<svg width="147" height="149" viewBox="0 0 147 149" fill="none" xmlns="http://www.w3.org/2000/svg">
<path d="M81.0006 148.407C115.884 148.407 144.163 132.08 144.163 111.94C144.163 91.7995 115.884 75.4727 81.0006 75.4727C46.1168 75.4727 17.8379 91.7995 17.8379 111.94C17.8379 132.08 46.1168 148.407 81.0006 148.407Z" fill="#F5F5F5"/>
<path d="M131.764 120.791C139.826 120.791 146.361 117.018 146.361 112.364C146.361 107.71 139.826 103.937 131.764 103.937C123.703 103.937 117.168 107.71 117.168 112.364C117.168 117.018 123.703 120.791 131.764 120.791Z" fill="#E0E0E0"/>
<path d="M87.4418 89.0503L70.2461 98.9781L91.7783 111.438L108.974 101.482L87.4418 89.0503Z" fill="#E0E0E0"/>
<path d="M21.7433 122.382C24.7865 124.16 24.7865 127.041 21.7433 128.816C18.7001 130.591 13.7601 130.591 10.7233 128.816C7.68656 127.041 7.68017 124.16 10.7233 122.382C13.7665 120.603 18.7001 120.606 21.7433 122.382Z" fill="#E0E0E0"/>
<path d="M74.512 10.5312V90.6917L26.083 118.649V38.4946L74.512 10.5312Z" fill="#EB7720"/>
<path opacity="0.25" d="M74.512 10.5312V90.6917L26.083 118.649V38.4946L74.512 10.5312Z" fill="black"/>
<path opacity="0.15" d="M74.5118 10.5312L62.47 17.4223L62.4668 83.7336L74.5118 90.6917V10.5312Z" fill="black"/>
<path d="M62.467 83.7335L76.1438 91.6272L26.083 120.533V62.7378L62.467 83.7335Z" fill="#EB7720"/>
<path opacity="0.8" d="M62.467 83.7335L76.1438 91.6272L26.083 120.533V62.7378L62.467 83.7335Z" fill="white"/>
<path opacity="0.1" d="M29.6074 107.137L44.67 115.833L71.784 100.179L56.7214 91.4839L29.6074 107.137Z" fill="black"/>
<path d="M30.2588 105.719L44.8552 114.146L71.1325 98.9781L56.5361 90.5479L30.2588 105.719Z" fill="#EB7720"/>
<path opacity="0.1" d="M30.2588 105.719L44.8552 114.146L71.1325 98.9781L56.5361 90.5479L30.2588 105.719Z" fill="black"/>
<path d="M30.2588 105.719V106.482L44.8552 114.913V114.146L30.2588 105.719Z" fill="#EB7720"/>
<path opacity="0.35" d="M30.2588 105.719V106.482L44.8552 114.913V114.146L30.2588 105.719Z" fill="black"/>
<path d="M44.8555 114.147L71.1328 98.9785V99.7417L44.8555 114.913V114.147Z" fill="#EB7720"/>
<path opacity="0.2" d="M44.8555 114.147L71.1328 98.9785V99.7417L44.8555 114.913V114.147Z" fill="black"/>
<path d="M41.7933 107.402L40.5383 106.339C40.5 106.307 40.4873 106.278 40.4968 106.252C40.5077 106.223 40.5294 106.199 40.5575 106.185L41.1578 105.837C41.1887 105.823 41.2226 105.815 41.2568 105.815C41.2926 105.814 41.3278 105.823 41.359 105.841C41.3706 105.847 41.3813 105.854 41.3909 105.863L43.6933 107.875C43.7112 107.887 43.7253 107.904 43.7338 107.923C43.7423 107.943 43.7448 107.965 43.7412 107.986C43.7344 108.013 43.7217 108.038 43.704 108.059C43.6863 108.08 43.6641 108.097 43.639 108.108L43.259 108.328C43.197 108.364 43.1264 108.383 43.0546 108.382C42.9879 108.384 42.9214 108.376 42.8567 108.36L41.4772 107.961L42.1701 108.756C42.1959 108.789 42.2094 108.829 42.2084 108.871C42.2084 108.916 42.1733 108.954 42.1126 108.989L41.7326 109.209C41.6682 109.246 41.5958 109.265 41.5219 109.267C41.4566 109.272 41.3911 109.262 41.3303 109.238L37.8464 107.91L37.8049 107.891C37.7929 107.887 37.7824 107.879 37.775 107.868C37.7676 107.858 37.7637 107.846 37.7637 107.833C37.7637 107.82 37.7676 107.808 37.775 107.798C37.7824 107.787 37.7929 107.78 37.8049 107.776L38.4053 107.428C38.441 107.409 38.48 107.397 38.5202 107.392C38.5716 107.389 38.6231 107.398 38.6703 107.418L40.5096 108.143L39.9508 107.504C39.9335 107.484 39.9205 107.46 39.9125 107.434C39.9125 107.402 39.9125 107.37 39.9763 107.338L40.4042 107.089C40.4537 107.058 40.5125 107.046 40.5703 107.054C40.6124 107.058 40.6541 107.065 40.6948 107.076L41.7933 107.402Z" fill="#FAFAFA"/>
<path d="M46.4744 105.623C46.5125 105.603 46.5556 105.593 46.5989 105.595C46.6412 105.593 46.6831 105.603 46.7203 105.623L47.2056 105.904C47.2203 105.91 47.2329 105.92 47.2419 105.933C47.2508 105.945 47.2556 105.961 47.2556 105.976C47.2556 105.992 47.2508 106.007 47.2419 106.02C47.2329 106.033 47.2203 106.043 47.2056 106.048L45.0374 107.303C44.999 107.323 44.9561 107.333 44.9129 107.332C44.8691 107.334 44.8257 107.323 44.7883 107.3L41.8314 105.595C41.8167 105.589 41.8041 105.578 41.7951 105.565C41.786 105.552 41.7809 105.537 41.7803 105.521C41.7808 105.506 41.7856 105.492 41.7941 105.479C41.8026 105.467 41.8144 105.457 41.8282 105.451L43.9645 104.218C44.0026 104.198 44.0457 104.188 44.089 104.19C44.1313 104.188 44.1732 104.198 44.2103 104.218L44.6957 104.499C44.7108 104.504 44.724 104.513 44.7333 104.526C44.7427 104.539 44.7477 104.554 44.7477 104.57C44.7477 104.585 44.7427 104.601 44.7333 104.613C44.724 104.626 44.7108 104.635 44.6957 104.64L43.2875 105.454L43.7824 105.742L45.0917 104.985C45.1288 104.965 45.1707 104.955 45.213 104.956C45.2564 104.954 45.2994 104.964 45.3376 104.985L45.8229 105.266C45.8373 105.271 45.8498 105.281 45.8589 105.293C45.868 105.306 45.8732 105.321 45.874 105.336C45.874 105.365 45.8581 105.387 45.8229 105.41L44.5137 106.163L45.0278 106.46L46.4744 105.623Z" fill="#FAFAFA"/>
<path d="M49.3803 103.953C49.4191 103.934 49.4617 103.924 49.5048 103.924C49.548 103.924 49.5906 103.934 49.6294 103.953L50.1148 104.234C50.1287 104.24 50.1408 104.25 50.1498 104.262C50.1588 104.275 50.1643 104.289 50.1659 104.304C50.1645 104.32 50.1591 104.335 50.1502 104.348C50.1412 104.361 50.129 104.371 50.1148 104.378L47.9944 105.601C47.9556 105.62 47.9131 105.63 47.8699 105.63C47.8267 105.63 47.7841 105.62 47.7454 105.601L44.7884 103.893C44.774 103.887 44.7615 103.877 44.7525 103.865C44.7434 103.853 44.7381 103.838 44.7373 103.822C44.7373 103.794 44.7533 103.771 44.7884 103.749L45.3887 103.404C45.4259 103.384 45.4678 103.374 45.5101 103.375C45.5534 103.373 45.5965 103.383 45.6346 103.404L47.9849 104.761L49.3803 103.953Z" fill="#FAFAFA"/>
<path d="M49.3227 102.533L49.4823 102.631L49.6963 102.756L49.9166 102.884L50.0922 102.976C50.1708 103.013 50.2519 103.044 50.3349 103.069C50.4234 103.093 50.5146 103.106 50.6064 103.107C50.7042 103.109 50.8018 103.098 50.897 103.075C51.003 103.047 51.105 103.005 51.2003 102.951C51.2839 102.908 51.3587 102.849 51.4206 102.778C51.457 102.737 51.4832 102.688 51.4973 102.635C51.5046 102.592 51.4979 102.548 51.4781 102.51C51.4611 102.474 51.4385 102.44 51.4111 102.411C51.3855 102.387 51.3677 102.356 51.36 102.322C51.36 102.299 51.3823 102.274 51.4334 102.242L52.0338 101.897C52.0649 101.88 52.1002 101.871 52.1359 101.871C52.1707 101.871 52.2049 101.88 52.2349 101.897C52.3683 101.973 52.4787 102.083 52.5543 102.216C52.6177 102.332 52.637 102.467 52.6085 102.596C52.5747 102.746 52.502 102.883 52.3978 102.996C52.264 103.147 52.1052 103.274 51.9284 103.372C51.7121 103.497 51.4802 103.593 51.2386 103.657C51.0068 103.716 50.769 103.749 50.5297 103.756C50.3021 103.763 50.0746 103.74 49.8528 103.688C49.6473 103.645 49.4486 103.574 49.262 103.478C49.1311 103.411 48.9938 103.334 48.8501 103.251C48.7064 103.168 48.5723 103.088 48.4445 103.008C48.2993 102.922 48.1741 102.805 48.0773 102.667C47.9976 102.553 47.9572 102.416 47.9623 102.277C47.9786 102.125 48.0397 101.982 48.138 101.865C48.2759 101.704 48.4427 101.569 48.6297 101.469C48.8304 101.352 49.045 101.259 49.2684 101.195C49.4936 101.131 49.7247 101.09 49.9581 101.073C50.179 101.058 50.4008 101.069 50.6191 101.105C50.8126 101.136 50.9994 101.2 51.1716 101.294C51.1832 101.298 51.1932 101.306 51.2005 101.316C51.2079 101.326 51.2122 101.338 51.2131 101.351C51.2128 101.364 51.2088 101.377 51.2014 101.388C51.194 101.398 51.1836 101.407 51.1716 101.412L50.5712 101.757C50.531 101.782 50.4849 101.798 50.4371 101.801C50.3851 101.796 50.3337 101.785 50.2838 101.769L50.1114 101.731C50.0403 101.723 49.9685 101.723 49.8975 101.731C49.8109 101.736 49.7252 101.751 49.642 101.776C49.5391 101.804 49.4404 101.846 49.3482 101.9C49.2651 101.944 49.1913 102.004 49.1311 102.076C49.0929 102.124 49.0726 102.184 49.0736 102.245C49.0783 102.304 49.1031 102.359 49.1438 102.402C49.1977 102.453 49.2578 102.497 49.3227 102.533Z" fill="#FAFAFA"/>
<path d="M51.673 101.149C51.5274 101.061 51.4013 100.943 51.3026 100.805C51.2199 100.692 51.1792 100.554 51.1876 100.415C51.2036 100.266 51.2636 100.125 51.36 100.009C51.5007 99.8454 51.6707 99.7089 51.8614 99.6071C52.078 99.4797 52.3112 99.383 52.5543 99.3197C52.7858 99.258 53.0237 99.2237 53.2632 99.2175C53.4887 99.2107 53.7141 99.2332 53.9338 99.2846C54.1411 99.3302 54.3418 99.4021 54.5309 99.4985C54.6683 99.572 54.8088 99.6486 54.9525 99.7316C55.0962 99.8146 55.2271 99.8945 55.3452 99.9679C55.4902 100.057 55.616 100.175 55.7156 100.313C55.7978 100.426 55.8394 100.563 55.8338 100.702C55.8179 100.853 55.7567 100.996 55.6582 101.111C55.5166 101.273 55.3468 101.409 55.1568 101.51C54.9398 101.638 54.7068 101.735 54.4639 101.801C54.2334 101.862 53.9965 101.895 53.7582 101.9C53.5317 101.905 53.3054 101.883 53.0844 101.833C52.8771 101.787 52.6764 101.715 52.4873 101.619C52.3563 101.549 52.219 101.475 52.0753 101.392C51.9316 101.309 51.7975 101.226 51.673 101.149ZM54.4894 100.444L54.3138 100.335L54.1126 100.211L53.9051 100.096L53.7199 99.9999C53.6367 99.961 53.5501 99.93 53.4612 99.9073C53.3703 99.8846 53.2771 99.8728 53.1834 99.8721C53.0853 99.8725 52.9876 99.8854 52.8928 99.9104C52.7923 99.9374 52.6957 99.9771 52.6054 100.029C52.5267 100.071 52.4564 100.127 52.3978 100.195C52.3602 100.243 52.339 100.302 52.3372 100.364C52.3362 100.422 52.3553 100.478 52.3915 100.524C52.4365 100.582 52.4917 100.632 52.5543 100.67C52.6022 100.706 52.6565 100.741 52.7204 100.779L52.9215 100.9L53.1291 101.019L53.3239 101.117C53.4928 101.198 53.6767 101.241 53.8636 101.245C54.0659 101.247 54.2648 101.193 54.4383 101.089C54.6267 100.977 54.7162 100.868 54.7066 100.769C54.6982 100.702 54.6742 100.637 54.6365 100.581C54.5988 100.524 54.5484 100.477 54.4894 100.444Z" fill="#FAFAFA"/>
<path d="M57.6092 99.1093H57.4719L56.284 98.9209L57.8008 99.7958C57.8148 99.802 57.8269 99.8117 57.8359 99.824C57.8448 99.8364 57.8504 99.8509 57.8519 99.8661C57.8506 99.8817 57.8452 99.8967 57.8362 99.9096C57.8272 99.9225 57.815 99.9328 57.8008 99.9395L57.2005 100.284C57.1622 100.305 57.1193 100.315 57.076 100.313C57.0337 100.315 56.9918 100.305 56.9546 100.284L53.9945 98.576C53.9805 98.5699 53.9684 98.5601 53.9594 98.5478C53.9504 98.5354 53.9449 98.5209 53.9434 98.5057C53.9434 98.477 53.9593 98.4547 53.9945 98.4323L54.5245 98.113C54.5813 98.0789 54.6468 98.0623 54.7129 98.0651H54.8471L56.8556 98.3684L56.3319 97.2093C56.3231 97.1846 56.3177 97.1588 56.316 97.1326C56.316 97.0943 56.3415 97.0592 56.4022 97.0241L56.9354 96.7047C56.9726 96.6845 57.0145 96.6745 57.0568 96.676C57.1001 96.6741 57.1432 96.6841 57.1813 96.7047L60.1415 98.4131C60.1734 98.4323 60.1926 98.4547 60.1894 98.4834C60.1862 98.5121 60.1894 98.5345 60.1415 98.5536L59.5412 98.9017C59.5027 98.9217 59.4599 98.9316 59.4166 98.9304C59.3743 98.9319 59.3324 98.922 59.2953 98.9017L57.7785 98.0267L58.0978 98.7101C58.1011 98.7366 58.1011 98.7634 58.0978 98.7899C58.0978 98.8219 58.0754 98.8474 58.0275 98.8762L57.737 99.0454C57.6997 99.0761 57.6561 99.0979 57.6092 99.1093Z" fill="#FAFAFA"/>
<path d="M62.4727 96.3917C62.5098 96.3714 62.5517 96.3615 62.594 96.363C62.6373 96.3618 62.6802 96.3717 62.7186 96.3917L63.2039 96.6727C63.2183 96.6782 63.2308 96.6878 63.2399 96.7003C63.2489 96.7127 63.2542 96.7276 63.255 96.743C63.2535 96.7581 63.248 96.7726 63.239 96.785C63.23 96.7973 63.2179 96.8071 63.2039 96.8132L61.0325 98.0682C60.9944 98.0888 60.9513 98.0988 60.908 98.0969C60.8657 98.0983 60.8238 98.0884 60.7866 98.0682L57.8265 96.3598C57.8123 96.3531 57.8001 96.3428 57.7911 96.3299C57.7821 96.317 57.7767 96.302 57.7754 96.2863C57.7766 96.271 57.782 96.2564 57.791 96.244C57.8 96.2316 57.8123 96.2219 57.8265 96.2161L59.9596 94.9835C59.998 94.9635 60.0408 94.9536 60.0841 94.9547C60.1274 94.9533 60.1704 94.9632 60.2087 94.9835L60.694 95.2645C60.7087 95.2699 60.7214 95.2797 60.7303 95.2926C60.7392 95.3054 60.744 95.3207 60.744 95.3363C60.744 95.352 60.7392 95.3672 60.7303 95.3801C60.7214 95.3929 60.7087 95.4027 60.694 95.4082L59.2794 96.2224L59.7744 96.5067L61.0836 95.7499C61.1224 95.7309 61.165 95.7211 61.2081 95.7211C61.2513 95.7211 61.2939 95.7309 61.3327 95.7499L61.8181 96.0309C61.8327 96.0363 61.8454 96.0461 61.8543 96.0589C61.8632 96.0718 61.868 96.0871 61.868 96.1027C61.868 96.1183 61.8632 96.1336 61.8543 96.1465C61.8454 96.1593 61.8327 96.1691 61.8181 96.1746L60.5088 96.9314L61.0197 97.2251L62.4727 96.3917Z" fill="#FAFAFA"/>
<path d="M55.2493 59.4423C54.6107 59.6019 53.0843 59.9053 53.0843 59.9053C53.0843 59.9053 53.905 58.8611 53.5697 58.628C53.2344 58.3949 52.9981 59.1166 52.0337 59.5125C51.0693 59.9085 50.6925 60.4098 50.0986 60.4162L42.7541 60.5184C42.7541 60.5184 37.6449 54.4065 36.8018 53.787C36.4896 53.5321 36.1258 53.3479 35.7355 53.247C35.3452 53.1461 34.9377 53.131 34.541 53.2026L35.5724 58.6312L39.8003 62.8431C40.7838 63.8202 41.167 64.1555 42.4795 64.0885C43.9707 64.0118 47.7484 63.4211 49.9262 63.0634C51.3567 62.9453 51.8421 63.0028 52.8416 62.8335C53.9177 62.6547 55.0513 62.6515 55.8049 61.288C56.6767 59.7041 56.1977 59.2124 55.2493 59.4423Z" fill="#F28F8F"/>
<path d="M41.0596 30.0452V96.1042L62.4672 83.7335V17.6904L41.0596 30.0452Z" fill="#455A64"/>
<path d="M41.9062 60.6237C41.9201 60.3595 41.9962 60.1024 42.1283 59.8732C42.2604 59.6441 42.4447 59.4493 42.6662 59.3049C43.0878 59.0622 43.4262 59.2602 43.4262 59.7455C43.4051 60.1455 43.2421 60.5248 42.9664 60.8153V61.4539C42.9612 61.5435 42.935 61.6305 42.8901 61.7081C42.8452 61.7858 42.7828 61.8518 42.7078 61.901L42.6184 61.9521C42.4778 62.0351 42.3629 61.9521 42.3629 61.802V61.1633C42.0947 61.1857 41.9062 60.9845 41.9062 60.6237Z" fill="#263238"/>
<path d="M49.535 28.3145L44.0713 31.4694V56.5429L49.535 53.3879V28.3145Z" fill="#EB7720"/>
<path opacity="0.3" d="M49.535 28.3145L44.0713 31.4694V56.5429L49.535 53.3879V28.3145Z" fill="black"/>
<path d="M58.587 23.0776L53.1201 26.2326V51.3061L58.587 48.1511V23.0776Z" fill="#EB7720"/>
<path opacity="0.3" d="M58.587 23.0776L53.1201 26.2326V51.3061L58.587 48.1511V23.0776Z" fill="black"/>
<path d="M49.535 53.3877L50.4003 53.8858L44.0713 57.5421V56.5426L49.535 53.3877Z" fill="#263238"/>
<path d="M58.5878 48.1509L59.4532 48.6522L53.1242 52.3053L52.2588 51.804L58.5878 48.1509Z" fill="#263238"/>
<path d="M58.5879 48.1508V23.0677L59.4565 22.5664L59.4533 48.649L58.5879 48.1508Z" fill="#EB7720"/>
<path d="M50.3994 53.8861L53.1233 52.3054V26.2324L50.3994 27.8131V53.8861Z" fill="#455A64"/>
<path d="M50.3996 53.886L49.5342 53.3878V28.3143L50.3996 27.813V53.886Z" fill="#EB7720"/>
<path opacity="0.1" d="M50.4003 58.0469L44.0713 61.7V89.7655L50.4003 86.1093V58.0469Z" fill="black"/>
<path d="M49.7902 60.0649L45.4697 62.5589V87.2875L49.7902 84.7936V60.0649Z" fill="#455A64"/>
<path d="M44.0713 61.6997L45.4699 62.5587V87.2873L44.0713 89.7653V61.6997Z" fill="#EB7720"/>
<path d="M50.4 58.0469L49.79 60.065V84.7936L50.4 86.1093V58.0469Z" fill="#EB7720"/>
<path d="M50.4003 86.1091L49.7904 84.7935L45.4699 87.2874L44.0713 89.7654L50.4003 86.1091Z" fill="#263238"/>
<path opacity="0.1" d="M59.4563 52.8066L53.124 56.4629V84.5285L59.4563 80.8722V52.8066Z" fill="black"/>
<path d="M58.8459 54.8281L54.5254 57.3221V82.0507L58.8459 79.5567V54.8281Z" fill="#455A64"/>
<path d="M53.124 56.4629L54.5259 57.3219V82.0505L53.124 84.5285V56.4629Z" fill="#EB7720"/>
<path d="M59.4556 52.8066L58.8457 54.828V79.5566L59.4556 80.8722V52.8066Z" fill="#EB7720"/>
<path d="M59.4563 80.8723L58.8463 79.5566L54.5259 82.0506L53.124 84.5286L59.4563 80.8723Z" fill="#263238"/>
<path d="M40.1299 95.5871L41.0591 96.1044V30.0454L40.1299 30.5723V95.5871Z" fill="#263238"/>
<path opacity="0.1" d="M62.467 17.4224V24.8786L26.083 45.951V38.4947L62.467 17.4224Z" fill="black"/>
<path opacity="0.1" d="M33.2898 110.132C35.0142 110.375 36.4831 111.282 38.1468 111.633C39.2389 111.86 40.414 111.93 41.4231 111.448C41.7424 111.291 42.2278 110.953 42.3363 110.605C42.5024 110.078 42.0873 109.647 41.752 109.328C41.3356 108.941 40.8974 108.578 40.4395 108.242C39.4825 107.599 38.4426 107.089 37.3485 106.725C36.3905 106.371 35.4325 106.045 34.4522 105.767C33.543 105.553 32.6164 105.422 31.6836 105.374C29.5753 105.137 27.4412 105.286 25.3865 105.815C23.4003 106.367 21.5546 106.901 20.0953 108.462C19.5718 108.96 19.2244 109.615 19.1054 110.327C19.0874 110.725 19.1552 111.121 19.3039 111.491C19.4527 111.86 19.679 112.192 19.9675 112.467C20.4111 112.948 20.9497 113.332 21.5494 113.595C22.149 113.858 22.7967 113.993 23.4514 113.993C23.9137 113.986 24.3698 113.886 24.7924 113.698C25.2149 113.51 25.5951 113.239 25.9102 112.901C26.5297 112.198 27.0055 111.378 27.8262 110.867C29.4036 109.877 31.4984 109.896 33.2898 110.132Z" fill="black"/>
<path d="M29.8119 51.4914C29.7576 52.0949 29.847 52.7304 28.7932 53.171C28.7932 53.171 29.3233 54.7102 28.0939 55.2211C28.0939 55.2211 28.5122 56.6645 27.4904 57.1371C27.5864 57.4382 27.5839 57.7621 27.4835 58.0619C27.383 58.3616 27.1897 58.6215 26.9316 58.8039C27.1352 59.0831 27.2428 59.4207 27.2382 59.7662C27.2336 60.1116 27.117 60.4463 26.906 60.7199C27.0209 60.8086 27.1148 60.9216 27.1811 61.0507C27.2473 61.1799 27.2842 61.3221 27.2892 61.4671C27.3339 62.0036 27.0976 62.6454 26.5739 62.7668C26.6679 62.6525 26.7192 62.5092 26.7192 62.3612C26.7192 62.2133 26.6679 62.07 26.5739 61.9557C26.2354 61.5693 26.0854 61.0839 26.4462 60.7295C26.4462 60.7295 25.1944 60.3495 25.9193 58.887C25.7737 58.7497 25.6634 58.5794 25.5976 58.3904C25.5318 58.2015 25.5125 57.9995 25.5413 57.8015C25.5701 57.6035 25.6462 57.4154 25.7632 57.253C25.8801 57.0907 26.0344 56.9589 26.2131 56.8688C26.2131 56.8688 25.5393 55.3552 26.8038 54.8028C26.8038 54.8028 26.0662 53.9214 27.037 52.8868C27.037 52.8868 26.1141 51.3253 28.0556 49.981L29.8119 51.4914Z" fill="#263238"/>
<path d="M36.9429 104.637C37.0109 104.51 37.0439 104.368 37.0387 104.225C37.0372 104.069 37.0435 103.914 37.0579 103.759C37.1345 102.577 38.0734 91.3592 38.3065 88.7823C38.6992 84.4554 38.7184 72.8862 37.8498 69.1597L26.2072 70.0825C25.3738 72.1805 24.767 74.7607 24.9075 78.8097C25.0129 81.8976 24.965 90.2735 24.965 90.2735C23.9138 91.3091 23.0934 92.555 22.5573 93.9298C21.6728 96.0789 21.0086 101.274 20.52 103.369C20.4274 103.765 20.322 104.327 20.322 104.327C20.0708 104.678 19.9316 105.096 19.9229 105.528C19.9269 106.811 20.0661 108.09 20.338 109.344C20.404 109.649 20.5495 109.932 20.7597 110.164C20.97 110.395 21.2375 110.567 21.5354 110.662C21.6778 110.722 21.8319 110.747 21.9857 110.736C22.0667 110.735 22.1447 110.706 22.206 110.653C22.3146 110.544 22.206 110.286 22.206 110.155C22.1713 109.944 22.151 109.73 22.1454 109.516C22.1454 109.098 22.1454 108.59 22.1709 108.172C22.2225 107.244 22.3669 106.324 22.602 105.426L22.8255 104.892C22.8255 104.892 27.807 94.7792 29.2121 92.3108C30.3361 90.3789 31.4793 82.8683 32.2712 78.765L33.6507 88.5619C33.3161 89.5813 33.0683 90.6271 32.9098 91.6881C32.7055 93.5051 33.7465 100.508 34.1361 103.04C34.1929 103.411 34.2133 103.786 34.1967 104.161C34.1777 104.274 34.1777 104.39 34.1967 104.503C34.2444 104.619 34.3255 104.719 34.4298 104.79C34.6405 104.894 34.8622 104.975 35.0908 105.03C35.4031 105.112 35.7284 105.134 36.0488 105.093C36.1702 105.074 36.2851 105.033 36.4065 105.01C36.5443 104.983 36.6723 104.919 36.7769 104.825C36.8438 104.774 36.9002 104.71 36.9429 104.637Z" fill="#FFA8A7"/>
<path d="M23.8153 113.055H23.7259C22.9447 113.154 22.1512 113.081 21.4012 112.841C20.7343 112.623 20.1356 112.236 19.6641 111.717C19.4785 111.463 19.339 111.179 19.2522 110.877C19.1553 110.563 19.0827 110.243 19.035 109.919C18.837 108.887 19.1148 108.597 18.8051 107.581C18.6637 107.228 18.5474 106.865 18.457 106.496C18.5079 106.305 18.5982 106.128 18.7221 105.975L19.9994 107.763L20.8456 108.951L21.2958 109.59C21.3948 109.73 21.4715 109.909 21.5832 110.043C21.7554 110.201 21.9489 110.333 22.158 110.436C22.3656 110.567 22.5795 110.692 22.7967 110.807C23.2217 111.037 23.6599 111.241 24.1091 111.42C24.2992 111.484 24.4805 111.572 24.6488 111.681C24.7327 111.738 24.8034 111.812 24.8558 111.899C24.9082 111.985 24.941 112.082 24.9521 112.183C24.952 112.357 24.8832 112.525 24.7605 112.649C24.5017 112.889 24.1678 113.033 23.8153 113.055Z" fill="#EB7720"/>
<path d="M22.5158 105.57L22.7298 105.139C22.9054 105.285 22.6595 106.18 22.6276 107.112C22.6159 107.529 22.6426 107.946 22.7074 108.357C22.7649 108.734 22.9092 109.093 23.1289 109.405C23.4526 109.906 23.8573 110.349 24.3264 110.717C24.5453 110.854 24.7282 111.041 24.8597 111.263C24.9322 111.386 24.9744 111.525 24.9827 111.668C24.9911 111.81 24.9653 111.953 24.9076 112.084C24.8008 112.268 24.634 112.41 24.435 112.486C24.1657 112.592 23.8809 112.652 23.5919 112.665C22.6647 112.739 21.735 112.555 20.9064 112.132C20.4571 111.901 20.0696 111.566 19.776 111.155C19.5667 110.785 19.4322 110.378 19.38 109.957C19.2267 109.226 19.2778 108.479 19.1884 107.917C19.099 107.355 18.6424 106.547 18.7222 106.001C18.7669 105.697 19.1661 105.186 19.5365 104.778C19.9069 104.369 20.2486 103.97 20.3763 104.088L20.3252 104.343C20.5103 104.792 20.8502 105.159 21.2832 105.378C21.6587 105.585 22.0952 105.653 22.5158 105.57Z" fill="#455A64"/>
<path d="M23.1956 109.577C23.219 109.574 23.241 109.565 23.2587 109.549C23.2764 109.534 23.2889 109.513 23.2946 109.491C23.2985 109.476 23.2994 109.461 23.2973 109.446C23.2952 109.431 23.2901 109.416 23.2824 109.403C23.2747 109.39 23.2644 109.379 23.2523 109.37C23.2401 109.36 23.2263 109.354 23.2116 109.35C22.557 109.181 21.3595 109.222 20.7975 109.529C20.7843 109.536 20.7726 109.546 20.7632 109.558C20.7538 109.57 20.7469 109.583 20.7427 109.598C20.7386 109.612 20.7373 109.628 20.739 109.643C20.7408 109.658 20.7454 109.672 20.7528 109.685C20.7598 109.699 20.7695 109.711 20.7813 109.721C20.7931 109.73 20.8067 109.737 20.8214 109.742C20.836 109.746 20.8514 109.747 20.8665 109.745C20.8816 109.743 20.8962 109.738 20.9093 109.73C21.4138 109.452 22.5506 109.411 23.1446 109.574L23.1956 109.577Z" fill="#E0E0E0"/>
<path d="M22.8761 108.683C22.8992 108.681 22.9213 108.673 22.9395 108.658C22.9577 108.644 22.9713 108.625 22.9783 108.603C22.9832 108.589 22.9852 108.573 22.9842 108.558C22.9831 108.543 22.9791 108.529 22.9722 108.515C22.9654 108.502 22.9558 108.49 22.9443 108.48C22.9327 108.471 22.9193 108.463 22.9048 108.459C22.1702 108.243 21.3853 108.274 20.6695 108.545C20.6536 108.55 20.639 108.558 20.6265 108.569C20.6141 108.58 20.6042 108.594 20.5976 108.609C20.5909 108.624 20.5876 108.641 20.5879 108.658C20.5882 108.674 20.5921 108.69 20.5994 108.705C20.6066 108.72 20.617 108.734 20.6299 108.744C20.6427 108.755 20.6577 108.762 20.6738 108.767C20.6898 108.771 20.7066 108.771 20.723 108.769C20.7394 108.766 20.7549 108.759 20.7685 108.75C21.4352 108.506 22.162 108.48 22.8442 108.676C22.8543 108.68 22.8651 108.683 22.8761 108.683Z" fill="#E0E0E0"/>
<path d="M22.6941 107.766C22.7146 107.767 22.7348 107.761 22.7524 107.75C22.7699 107.74 22.784 107.724 22.7931 107.706C22.8004 107.692 22.8051 107.678 22.8068 107.663C22.8086 107.648 22.8073 107.633 22.8032 107.618C22.799 107.604 22.792 107.59 22.7826 107.578C22.7732 107.566 22.7616 107.556 22.7484 107.549C22.05 107.276 21.2727 107.284 20.5801 107.572C20.5665 107.578 20.5543 107.587 20.5442 107.598C20.5341 107.61 20.5263 107.623 20.5212 107.637C20.5162 107.651 20.514 107.666 20.5148 107.681C20.5156 107.696 20.5194 107.711 20.5259 107.725C20.5395 107.752 20.5633 107.772 20.592 107.782C20.6207 107.791 20.652 107.789 20.6791 107.776C21.3047 107.519 22.0046 107.51 22.6366 107.75C22.6543 107.76 22.6739 107.765 22.6941 107.766Z" fill="#E0E0E0"/>
<path d="M42.2313 109.711C42.2503 109.901 42.2199 110.092 42.1433 110.267C42.0667 110.441 41.9463 110.593 41.7938 110.707C40.9328 111.201 39.9234 111.37 38.9487 111.183C37.2977 110.768 36.9752 110.324 36.394 109.727C35.6724 108.967 35.7554 108.571 34.9411 107.885C34.6317 107.663 34.3382 107.42 34.063 107.157C33.9956 106.905 33.9697 106.644 33.9863 106.384L42.2313 109.711Z" fill="#EB7720"/>
<path d="M37.0071 104.113L37.0582 103.759C37.2817 103.788 37.4573 104.548 37.9331 105.355C38.3467 106.012 38.8732 106.59 39.4882 107.064C40.4462 107.782 41.6277 108.491 42.1674 109.299C42.7071 110.107 41.0306 110.864 39.7597 110.835C39.1923 110.825 38.6326 110.702 38.113 110.474C37.5934 110.246 37.1242 109.917 36.7325 109.507C36.2088 108.973 35.8479 108.316 35.4552 107.891C35.0624 107.466 34.2577 107.032 34.0278 106.521C33.8972 106.037 33.8808 105.53 33.9799 105.039C34.0629 104.538 34.0342 103.848 34.2034 103.877C34.2034 103.925 34.2034 104.148 34.2034 104.148C34.6941 104.466 35.27 104.626 35.8543 104.608C36.2855 104.587 36.6947 104.411 37.0071 104.113Z" fill="#455A64"/>
<path d="M40.337 107.61C40.3572 107.598 40.3734 107.581 40.3837 107.56C40.3939 107.539 40.3977 107.515 40.3945 107.492C40.3922 107.477 40.3869 107.463 40.379 107.45C40.3711 107.438 40.3608 107.427 40.3486 107.418C40.3364 107.409 40.3226 107.403 40.3079 107.4C40.2933 107.397 40.2782 107.397 40.2635 107.399C39.593 107.502 38.5104 108.016 38.1177 108.523C38.1084 108.535 38.1015 108.549 38.0976 108.563C38.0937 108.578 38.0927 108.593 38.0948 108.608C38.0969 108.623 38.102 108.637 38.1098 108.65C38.1175 108.663 38.1278 108.674 38.14 108.683C38.1639 108.701 38.1939 108.71 38.2238 108.706C38.2536 108.702 38.2809 108.687 38.2997 108.664C38.6541 108.207 39.6824 107.722 40.2987 107.626L40.337 107.61Z" fill="#E0E0E0"/>
<path d="M39.4304 106.984C39.4506 106.973 39.467 106.956 39.4773 106.936C39.4876 106.915 39.4913 106.892 39.4879 106.869C39.4832 106.839 39.4667 106.812 39.4422 106.794C39.4177 106.776 39.387 106.769 39.357 106.773C38.6016 106.912 37.9121 107.293 37.3931 107.859C37.3745 107.883 37.3662 107.914 37.3701 107.944C37.374 107.974 37.3897 108.002 37.4139 108.02C37.438 108.039 37.4685 108.047 37.4988 108.043C37.529 108.039 37.5565 108.024 37.5751 108C38.0583 107.481 38.6951 107.13 39.3921 107C39.4058 106.997 39.4189 106.992 39.4304 106.984Z" fill="#E0E0E0"/>
<path d="M38.6636 106.332C38.6813 106.322 38.6958 106.307 38.7059 106.289C38.716 106.271 38.7212 106.251 38.7211 106.23C38.7211 106.2 38.709 106.17 38.6874 106.149C38.6659 106.127 38.6366 106.115 38.6061 106.115C37.8624 106.21 37.1847 106.59 36.7157 107.175C36.6984 107.2 36.6917 107.231 36.6971 107.261C36.7025 107.291 36.7195 107.318 36.7445 107.335C36.7691 107.353 36.7997 107.36 36.8296 107.355C36.8594 107.35 36.8862 107.334 36.9041 107.31C37.3292 106.784 37.9394 106.441 38.6093 106.352C38.6289 106.35 38.6477 106.344 38.6636 106.332Z" fill="#E0E0E0"/>
<path d="M27.4782 66.5698C26.5725 68.3293 25.8594 70.1815 25.3514 72.0942C24.7128 74.8148 24.7351 76.603 24.7607 81.3546C24.7862 86.1062 24.8533 90.2223 24.8533 90.2223C24.8533 90.2223 22.4999 91.7774 21.7207 97.1677C21.7207 97.1677 23.576 99.0836 26.038 98.445C26.038 98.445 28.682 93.7477 29.5506 92.2756C30.4192 90.8035 32.2776 78.7681 32.2776 78.7681L33.3953 88.581C33.3953 88.581 32.5522 90.928 32.6608 92.5853C32.7694 94.2426 33.2196 96.8356 33.2196 96.8356C34.7115 97.2901 36.3188 97.1763 37.7317 96.5162C37.7317 96.5162 38.53 88.8141 38.6354 86.02C38.7408 83.2259 39.0825 73.3523 37.7094 67.1797L27.4782 66.5698Z" fill="#455A64"/>
<path d="M32.2773 78.7878L33.3822 74.4513C33.3822 74.4513 35.5057 74.6972 37.1758 73.4614C37.1758 73.4614 36.8341 75.0581 33.874 75.5179L32.5967 79.7617L32.6158 81.7895L32.2773 78.7878Z" fill="#263238"/>
<path d="M37.6514 65.3791C37.5289 64.1863 37.5161 62.9849 37.6131 61.7898C38.2885 61.1617 38.7187 60.314 38.8269 59.398C38.9351 58.482 38.7143 57.5574 38.2038 56.7892C36.5912 54.1771 34.5475 53.2031 34.5475 53.2031L31.8556 53.1201C31.4724 53.1648 28.1642 53.6406 27.7427 53.7588C27.7427 53.7588 26.6027 54.7168 26.293 55.8312C26.1173 56.4699 26.0662 57.1085 26.6378 59.149L28.0397 62.7223C28.0397 62.7223 28.4484 63.792 28.2408 64.5424C28.0333 65.2928 26.8933 67.1577 26.293 68.9683C26.293 68.9683 28.8476 71.2578 33.5385 70.7278C37.546 70.2711 38.1304 68.9236 38.1304 68.9236C38.1304 68.9236 37.6993 66.1103 37.6514 65.3791Z" fill="#FAFAFA"/>
<path opacity="0.1" d="M30.1064 61.0715C30.3802 61.5527 30.7871 61.9446 31.2782 62.2001C31.7694 62.4556 32.3238 62.5638 32.875 62.5117C33.4076 62.4794 33.9222 62.3071 34.3669 62.0122C34.8115 61.7173 35.1704 61.3101 35.4073 60.832C35.4073 60.832 35.3881 62.946 32.891 63.0194C30.3938 63.0929 30.1064 61.0715 30.1064 61.0715Z" fill="black"/>
<path d="M48.2019 60.9053C48.2122 60.6117 48.1245 60.323 47.9529 60.0846C47.9289 60.0409 47.8951 60.0034 47.854 59.9751C47.813 59.9469 47.7659 59.9286 47.7165 59.9217C47.5943 59.9295 47.4798 59.9845 47.3972 60.075C47.0523 60.3943 46.7586 60.7137 46.3977 61.033C46.0584 61.3324 45.6295 61.511 45.1779 61.5407C45.1817 61.4514 45.2155 61.3659 45.2737 61.298C45.4142 61.1033 45.5196 60.9628 45.6697 60.752C45.7654 60.6476 45.8369 60.5233 45.8788 60.3881C45.9208 60.2528 45.9323 60.1099 45.9124 59.9696C45.9032 59.9319 45.8841 59.8972 45.8572 59.8692C45.8303 59.8411 45.7964 59.8207 45.7591 59.81C45.6957 59.8045 45.6324 59.8215 45.5803 59.8579C45.0863 60.1034 44.6232 60.4068 44.2008 60.7616C43.7377 61.1512 43.4631 61.7962 42.6616 62.1123C41.8601 62.4285 41.0043 62.5051 39.5258 62.6999C38.3731 62.85 36.4763 63.0958 35.199 63.2076C33.3692 61.3523 31.1307 58.0281 29.9109 56.3772C29.2613 55.4492 28.5372 54.5757 27.7459 53.7651C26.6761 54.0845 26.0567 54.6305 25.8076 55.3969C25.1689 57.1628 26.0694 59.1809 28.4612 61.8409C29.2403 62.7127 31.6002 65.3056 32.804 66.5158C32.9815 66.6967 33.1964 66.8366 33.4335 66.926C33.6706 67.0153 33.9244 67.0519 34.1771 67.0331C34.8984 66.9549 35.6148 66.8365 36.323 66.6787C37.6418 66.3594 39.3151 65.8804 40.6307 65.561C41.6941 65.3024 42.7989 64.9895 43.7026 64.7244C44.3192 64.5613 44.925 64.3597 45.5164 64.1209C46.0168 63.9402 46.4896 63.6908 46.9214 63.38C47.2057 63.1819 47.4541 62.9368 47.6559 62.6552C47.8304 62.3881 47.9638 62.0964 48.0518 61.7898C48.1499 61.5051 48.2006 61.2063 48.2019 60.9053Z" fill="#FFA8A7"/>
<path d="M27.3472 43.9714C26.6064 44.9294 26.4659 46.1812 26.6479 47.4138C26.9672 49.4862 28.2222 51.0988 29.723 51.779C30.6203 52.1877 31.789 52.3601 32.3894 51.8364C33.325 51.0253 34.2734 50.2398 35.2825 49.5149C36.0361 48.9817 36.8791 48.4484 37.2463 47.599C37.5657 46.8773 37.5657 45.6415 36.8887 45.1082C37.4229 44.6905 37.7954 44.1002 37.9425 43.4382C38.0093 43.2647 38.0231 43.0753 37.9822 42.8939C37.9413 42.7126 37.8474 42.5475 37.7125 42.4195C37.521 42.2535 36.9174 42.2247 36.662 42.196C35.7676 42.0618 34.8855 41.8557 34.0243 41.5797C32.9571 41.3514 31.8584 41.3092 30.7768 41.4551C29.9338 41.618 28.9726 41.9501 28.5415 43.1252C28.0562 43.2579 27.6332 43.5575 27.3472 43.9714Z" fill="#263238"/>
<path d="M35.0105 43.3999C35.6492 43.7192 36.4699 45.1817 36.6072 48.3558C36.7126 51.0446 35.8823 51.7631 35.4576 51.9834C35.0329 52.2037 34.1803 52.1367 33.3532 52.0536L33.4395 53.398C33.4395 53.398 35.8248 55.1192 33.9568 55.4768C32.9236 55.619 31.8748 55.367 31.019 54.7711C30.5565 54.4765 30.1588 54.0908 29.8502 53.6375L29.6618 50.3005C29.6618 50.3005 29.2084 50.7987 28.3462 50.1345C27.6341 49.5853 27.3435 48.6049 27.8353 48.0365C27.964 47.9012 28.123 47.7984 28.2992 47.7364C28.4754 47.6744 28.6638 47.6551 28.8489 47.6801C29.034 47.705 29.2105 47.7735 29.3641 47.8798C29.5176 47.9862 29.6437 48.1274 29.7321 48.292C29.7321 48.292 30.2302 48.5442 30.6549 47.6214C31.4652 47.4915 32.2364 47.1828 32.9126 46.7177C33.4666 46.3333 33.9378 45.8416 34.2982 45.2716C34.6585 44.7017 34.9008 44.0652 35.0105 43.3999Z" fill="#FFA8A7"/>
<path d="M33.0664 47.7299C33.0782 47.8205 33.0535 47.9121 32.9978 47.9846C32.9422 48.057 32.86 48.1044 32.7694 48.1163C32.6772 48.1234 32.586 48.0938 32.5154 48.0341C32.4449 47.9743 32.4008 47.8891 32.3926 47.797C32.3829 47.7076 32.409 47.6181 32.4653 47.548C32.5216 47.478 32.6034 47.4331 32.6928 47.4234C32.7821 47.4136 32.8717 47.4398 32.9418 47.4961C33.0118 47.5524 33.0567 47.6342 33.0664 47.7236V47.7299Z" fill="#263238"/>
<path d="M33.1205 49.7671L34.3979 50.1343C34.3778 50.2209 34.3404 50.3026 34.2881 50.3745C34.2357 50.4463 34.1693 50.5068 34.093 50.5525C34.0167 50.5981 33.932 50.6278 33.8439 50.6399C33.7558 50.652 33.6662 50.6462 33.5804 50.6229C33.4087 50.5663 33.2653 50.4459 33.1798 50.2867C33.0942 50.1275 33.073 49.9415 33.1205 49.7671Z" fill="#B16668"/>
<path d="M33.8905 50.6323C33.8759 50.4697 33.7996 50.3189 33.6772 50.2108C33.5549 50.1027 33.3958 50.0456 33.2327 50.0512C33.1918 50.0542 33.1512 50.0606 33.1113 50.0703C33.1322 50.1987 33.1889 50.3185 33.2747 50.4162C33.3605 50.5139 33.4721 50.5855 33.5967 50.6227C33.6926 50.6487 33.7931 50.652 33.8905 50.6323Z" fill="#F28F8F"/>
<path d="M36.0549 46.4873L35.3301 46.0562C35.3556 46.0084 35.3907 45.9663 35.433 45.9325C35.4754 45.8986 35.5242 45.8738 35.5765 45.8594C35.6288 45.8451 35.6835 45.8415 35.7372 45.849C35.7909 45.8565 35.8425 45.8749 35.8889 45.903C35.9869 45.9599 36.0589 46.0526 36.0899 46.1616C36.1209 46.2706 36.1083 46.3874 36.0549 46.4873Z" fill="#263238"/>
<path d="M32.5165 46.4874L31.7597 46.8323C31.7344 46.7842 31.7192 46.7314 31.715 46.6772C31.7109 46.623 31.7178 46.5685 31.7355 46.517C31.7531 46.4656 31.7811 46.4183 31.8176 46.3781C31.8542 46.3379 31.8986 46.3055 31.9481 46.2831C32.051 46.2375 32.1674 46.2334 32.2732 46.2714C32.3791 46.3095 32.4662 46.3868 32.5165 46.4874Z" fill="#263238"/>
<path d="M35.9306 47.4742C35.9354 47.5184 35.9314 47.5632 35.919 47.6059C35.9065 47.6486 35.8857 47.6885 35.8579 47.7232C35.83 47.7578 35.7956 47.7867 35.7565 47.8081C35.7175 47.8295 35.6746 47.843 35.6304 47.8478C35.5862 47.8526 35.5414 47.8487 35.4987 47.8362C35.456 47.8237 35.4161 47.803 35.3814 47.7751C35.3467 47.7472 35.3179 47.7128 35.2965 47.6737C35.2751 47.6347 35.2616 47.5919 35.2568 47.5476C35.245 47.457 35.2697 47.3654 35.3253 47.293C35.381 47.2206 35.4632 47.1732 35.5538 47.1612C35.6449 47.1541 35.7353 47.1828 35.8057 47.2412C35.8761 47.2996 35.9209 47.3832 35.9306 47.4742Z" fill="#263238"/>
<path d="M34.2959 47.3818L34.4779 49.4128L35.5285 49.0136L34.2959 47.3818Z" fill="#F28F8F"/>
<path d="M33.3376 52.0533C32.4658 51.9927 30.6585 51.5935 30.3359 50.9102C30.4703 51.258 30.7076 51.5565 31.0161 51.766C31.5749 52.1875 33.3727 52.5898 33.3727 52.5898L33.3376 52.0533Z" fill="#F28F8F"/>
<path d="M29.7168 47.6279L29.803 49.0393C29.9297 49.0324 30.0538 49.0004 30.1681 48.9451C30.2824 48.8899 30.3845 48.8125 30.4686 48.7174C30.5526 48.6223 30.617 48.5115 30.6579 48.3913C30.6988 48.2712 30.7154 48.1441 30.7067 48.0175L30.6237 46.7114L29.7168 47.6279Z" fill="#263238"/>
<path d="M74.5117 90.6918L76.1435 91.6275V9.58936L74.5117 10.5314V90.6918Z" fill="#EB7720"/>
<path opacity="0.4" d="M74.5117 90.6918L76.1435 91.6275V9.58936L74.5117 10.5314V90.6918Z" fill="white"/>
<path opacity="0.1" d="M74.5117 90.6918L76.1435 91.6275V9.58936L74.5117 10.5314V90.6918Z" fill="black"/>
<path d="M76.1437 91.6274L81.1412 88.7407V0.929199L21.0791 35.608V123.41L26.0829 120.533V38.4947L76.1405 9.58933L76.1437 91.6274Z" fill="#EB7720"/>
<path opacity="0.7" d="M76.1437 91.6274L81.1412 88.7407V0.929199L21.0791 35.608V123.41L26.0829 120.533V38.4947L76.1405 9.58933L76.1437 91.6274Z" fill="white"/>
<path d="M81.1409 0.929239L21.0789 35.6081L19.4727 34.6756L79.5379 0L81.1409 0.929239Z" fill="#EB7720"/>
<path opacity="0.85" d="M81.1409 0.929239L21.0789 35.6081L19.4727 34.6756L79.5379 0L81.1409 0.929239Z" fill="white"/>
<path d="M21.0789 123.41V35.6082L19.4727 34.6758V122.484L21.0789 123.41Z" fill="#EB7720"/>
<path opacity="0.6" d="M19.4727 34.6758V122.484L21.0789 123.41V35.6082" fill="white"/>
<path d="M72.9785 98.9785L87.7122 90.4717L106.24 101.166L91.5058 109.673L72.9785 98.9785Z" fill="black"/>
<path d="M87.7123 90.4716V75.9263L72.6816 84.6056L85.2567 91.8894L87.7123 90.4716Z" fill="#EB7720"/>
<path d="M87.7119 75.9263V90.4716L93.9611 94.0768L106.536 86.7929L87.7119 75.9263Z" fill="#263238"/>
<path d="M72.6816 84.6055V98.8059L91.5059 109.673V95.4945L72.6816 84.6055Z" fill="#263238"/>
<path d="M91.5059 95.4946V109.673L106.537 100.993V86.793L91.5059 95.4946Z" fill="#EB7720"/>
<path d="M91.5059 95.4946L91.7996 109.133L102.717 103.2L91.5059 109.673V95.4946Z" fill="#455A64"/>
<path d="M93.3003 105.106C93.2464 105.107 93.1933 105.092 93.147 105.065C93.0806 105.017 93.028 104.952 92.9944 104.878C92.9607 104.803 92.9473 104.721 92.9554 104.64V103.385V103.292H93.0193L94.0028 102.714V104.148C94.0012 104.329 93.9562 104.506 93.8718 104.665C93.7873 104.825 93.6658 104.962 93.5174 105.065C93.4497 105.097 93.375 105.111 93.3003 105.106ZM93.1119 103.478V104.64C93.1051 104.694 93.1121 104.748 93.1322 104.798C93.1523 104.849 93.1849 104.893 93.2269 104.927C93.2615 104.942 93.2993 104.948 93.3367 104.944C93.3742 104.94 93.41 104.927 93.4408 104.905C93.5635 104.815 93.6638 104.698 93.7341 104.562C93.8044 104.427 93.8428 104.278 93.8464 104.126V104.024H93.4823L93.4089 103.529L93.1119 103.478ZM93.6164 103.864H93.8464V102.995L93.2588 103.343L93.5494 103.395L93.6164 103.864Z" fill="#E0E0E0"/>
<path d="M93.4792 106.115C93.4581 106.115 93.4378 106.107 93.4228 106.092C93.4078 106.077 93.3994 106.057 93.3994 106.035V104.982C93.3994 104.961 93.4078 104.94 93.4228 104.925C93.4378 104.91 93.4581 104.902 93.4792 104.902C93.5004 104.902 93.5207 104.91 93.5357 104.925C93.5507 104.94 93.5591 104.961 93.5591 104.982V106.035C93.5591 106.057 93.5507 106.077 93.5357 106.092C93.5207 106.107 93.5004 106.115 93.4792 106.115Z" fill="#E0E0E0"/>
<path d="M93.0191 106.383C93.0053 106.383 92.992 106.378 92.9803 106.371C92.9686 106.364 92.9589 106.354 92.952 106.342C92.9415 106.324 92.9387 106.302 92.9441 106.282C92.9494 106.261 92.9626 106.244 92.9808 106.233L93.8972 105.706C93.9155 105.696 93.9371 105.693 93.9574 105.698C93.9777 105.704 93.9951 105.717 94.0058 105.735C94.0109 105.744 94.0142 105.754 94.0155 105.764C94.0169 105.774 94.0162 105.784 94.0135 105.794C94.0108 105.804 94.0062 105.813 94 105.821C93.9937 105.829 93.9859 105.836 93.9771 105.841L93.0606 106.383C93.0471 106.388 93.0325 106.388 93.0191 106.383Z" fill="#E0E0E0"/>
<path d="M96.289 104.563C96.2589 104.563 96.2293 104.555 96.2028 104.541C96.1711 104.521 96.1456 104.492 96.1287 104.458C96.1119 104.425 96.1043 104.387 96.107 104.349V104.148C96.107 104.127 96.1154 104.107 96.1303 104.092C96.1453 104.077 96.1656 104.068 96.1868 104.068C96.208 104.068 96.2283 104.077 96.2432 104.092C96.2582 104.107 96.2666 104.127 96.2666 104.148V104.365C96.2603 104.383 96.2603 104.402 96.2666 104.42C96.2666 104.42 96.2922 104.42 96.3177 104.404C96.3664 104.359 96.4048 104.304 96.4302 104.243C96.4556 104.182 96.4673 104.116 96.4646 104.049V102.644C96.4646 102.623 96.473 102.603 96.488 102.588C96.503 102.573 96.5233 102.564 96.5444 102.564C96.5656 102.564 96.5859 102.573 96.6009 102.588C96.6159 102.603 96.6243 102.623 96.6243 102.644V104.049C96.6278 104.143 96.6094 104.236 96.5706 104.322C96.5318 104.407 96.4736 104.482 96.4007 104.541C96.3657 104.557 96.3275 104.565 96.289 104.563Z" fill="#E0E0E0"/>
<path d="M95.4561 103.334V103.19C95.4754 102.84 95.5772 102.499 95.7531 102.195C95.9289 101.891 96.174 101.632 96.4683 101.441C96.5743 101.352 96.7051 101.298 96.8428 101.287C96.9805 101.276 97.1183 101.307 97.2375 101.377C97.3566 101.447 97.4513 101.552 97.5085 101.677C97.5657 101.803 97.5828 101.943 97.5572 102.079V102.127L95.4561 103.334ZM96.9409 101.463C96.8007 101.469 96.6643 101.511 96.545 101.584C96.2945 101.749 96.0824 101.966 95.9232 102.22C95.7639 102.474 95.6612 102.759 95.6221 103.056L97.3976 102.031C97.4036 101.932 97.3845 101.833 97.3421 101.743C97.2997 101.653 97.2353 101.576 97.1549 101.517C97.0893 101.481 97.0157 101.463 96.9409 101.463Z" fill="#E0E0E0"/>
<path d="M99.1248 102.944C99.1036 102.944 99.0833 102.936 99.0683 102.921C99.0533 102.906 99.0449 102.886 99.0449 102.864V100.179C99.0449 100.158 99.0533 100.137 99.0683 100.122C99.0833 100.108 99.1036 100.099 99.1248 100.099C99.1459 100.099 99.1662 100.108 99.1812 100.122C99.1962 100.137 99.2046 100.158 99.2046 100.179V102.871C99.203 102.891 99.1939 102.91 99.1791 102.923C99.1643 102.937 99.1449 102.944 99.1248 102.944Z" fill="#E0E0E0"/>
<path d="M98.8956 100.792H98.8637C98.854 100.788 98.8453 100.782 98.8379 100.775C98.8306 100.767 98.8248 100.758 98.821 100.748C98.8171 100.739 98.8152 100.728 98.8154 100.718C98.8156 100.707 98.8179 100.697 98.8221 100.687L99.1032 100.048L99.4225 100.409C99.4371 100.424 99.4453 100.444 99.4453 100.465C99.4453 100.486 99.4371 100.506 99.4225 100.521C99.4153 100.529 99.4067 100.535 99.397 100.539C99.3874 100.543 99.3771 100.545 99.3666 100.545C99.3561 100.545 99.3458 100.543 99.3362 100.539C99.3266 100.535 99.3179 100.529 99.3107 100.521L99.1606 100.352L98.9786 100.77C98.9684 100.781 98.9551 100.789 98.9404 100.793C98.9257 100.797 98.9101 100.797 98.8956 100.792Z" fill="#E0E0E0"/>
<path d="M99.8562 102.529C99.835 102.529 99.8147 102.521 99.7997 102.506C99.7848 102.491 99.7764 102.471 99.7764 102.449V99.7607C99.7772 99.7401 99.786 99.7206 99.8008 99.7063C99.8157 99.692 99.8356 99.6841 99.8562 99.6841C99.8768 99.6841 99.8967 99.692 99.9116 99.7063C99.9264 99.7206 99.9352 99.7401 99.936 99.7607V102.449C99.936 102.471 99.9276 102.491 99.9126 102.506C99.8977 102.521 99.8774 102.529 99.8562 102.529Z" fill="#E0E0E0"/>
<path d="M99.6229 100.374C99.6136 100.377 99.6035 100.377 99.5942 100.374C99.5843 100.371 99.5753 100.365 99.5678 100.358C99.5602 100.351 99.5542 100.342 99.5503 100.332C99.5464 100.323 99.5446 100.312 99.545 100.302C99.5454 100.292 99.548 100.281 99.5527 100.272L99.8337 99.6333L100.153 99.9973C100.161 100.005 100.167 100.013 100.171 100.023C100.175 100.032 100.177 100.043 100.177 100.053C100.177 100.064 100.175 100.074 100.171 100.084C100.167 100.093 100.161 100.102 100.153 100.109C100.138 100.123 100.119 100.13 100.099 100.13C100.079 100.13 100.059 100.123 100.044 100.109L99.8943 99.9367L99.7123 100.355C99.7015 100.367 99.6869 100.376 99.6708 100.379C99.6547 100.383 99.6379 100.381 99.6229 100.374Z" fill="#E0E0E0"/>
<path d="M75.9004 94.6867L80.0038 97.0561C80.0575 97.091 80.1023 97.1382 80.1345 97.1936C80.1667 97.2491 80.1853 97.3114 80.189 97.3754V100.23C80.189 100.463 80.0229 100.549 79.8218 100.444L75.7184 98.0811C75.6645 98.0463 75.6196 97.9992 75.5874 97.9437C75.5552 97.8882 75.5366 97.8259 75.5332 97.7618V94.8878C75.5332 94.6643 75.6993 94.5685 75.9004 94.6867Z" fill="#FAFAFA"/>
<path d="M75.801 95.1304L75.9384 95.2102V97.7265L75.7979 97.6467L75.801 95.1304Z" fill="#455A64"/>
<path d="M76.3662 95.4565L76.6089 95.6002V98.1165L76.3662 97.976V95.4565Z" fill="#455A64"/>
<path d="M76.9346 95.7852L77.0751 95.865V98.3845L76.9346 98.3014V95.7852Z" fill="#455A64"/>
<path d="M77.3662 96.0278L77.644 96.1939V98.7134L77.3662 98.5473V96.0278Z" fill="#455A64"/>
<path d="M78.0723 96.4429L78.2128 96.5227V99.039L78.0723 98.9592V96.4429Z" fill="#455A64"/>
<path d="M78.4805 96.6729L78.7806 96.8485V99.368L78.4805 99.1891V96.6729Z" fill="#455A64"/>
<path d="M79.209 97.0977L79.3495 97.1775V99.697L79.209 99.6139V97.0977Z" fill="#455A64"/>
<path d="M79.5342 97.2827L79.6044 97.321V99.8405L79.5342 99.799V97.2827Z" fill="#455A64"/>
<path d="M78.9502 96.9604L79.0204 97.002V99.5183L78.9502 99.4767V96.9604Z" fill="#455A64"/>
<path d="M77.8066 96.2896L77.8769 96.3311V98.8473L77.8066 98.8058V96.2896Z" fill="#455A64"/>
<path d="M77.1777 95.9287L77.248 95.9702V98.4865L77.1777 98.4482V95.9287Z" fill="#455A64"/>
<path d="M76.7275 95.6831L76.7978 95.7214V98.2409L76.7275 98.1994V95.6831Z" fill="#455A64"/>
<path d="M76.1172 95.3096L76.1874 95.3511V97.8674L76.1172 97.829V95.3096Z" fill="#455A64"/>
<path d="M79.7773 97.4268L79.9178 97.5066V100.023L79.7773 99.943V97.4268Z" fill="#455A64"/>
<path d="M87.7123 75.9263L72.6816 84.6056L91.5059 95.4946L106.537 86.7929L87.7123 75.9263Z" fill="#455A64"/>
<path opacity="0.1" d="M72.6816 84.6055L91.5059 94.958L106.537 86.7929L91.5059 95.4945L72.6816 84.6055Z" fill="white"/>
<path d="M78.918 81.0001L97.755 91.8763L100.07 90.5384L81.2363 79.6621L78.918 81.0001Z" fill="#EB7720"/>
<path d="M100.07 90.5356V93.4798L99.7892 93.3202L99.4987 93.8215L99.2081 93.6523L98.9175 94.16L98.6269 93.9876L98.3363 94.4889L98.0425 94.3229L97.752 94.8274V91.8768L100.07 90.5356Z" fill="#EB7720"/>
<path opacity="0.25" d="M100.07 90.5356V93.4798L99.7892 93.3202L99.4987 93.8215L99.2081 93.6523L98.9175 94.16L98.6269 93.9876L98.3363 94.4889L98.0425 94.3229L97.752 94.8274V91.8768L100.07 90.5356Z" fill="black"/>
<path opacity="0.1" d="M90.1005 77.8037L76.9922 85.3717L90.1005 92.9653L103.212 85.3717L90.1005 77.8037Z" fill="black"/>
<path d="M79.1445 85.2057L90.1006 78.8799L101.06 85.2057L90.1006 91.5348L79.1445 85.2057Z" fill="black"/>
<path d="M90.1005 78.8799V66.3623L78.8857 72.8382L89.7109 79.1066L90.1005 78.8799Z" fill="#EB7720"/>
<path d="M90.1006 66.3623V78.8799L90.4934 79.1066L101.315 72.8382L90.1006 66.3623Z" fill="#263238"/>
<path d="M78.8857 72.8384V85.059L90.1005 91.5349V79.3335L78.8857 72.8384Z" fill="#263238"/>
<path d="M90.1006 79.3335V91.5349L101.315 85.059V72.8384L90.1006 79.3335Z" fill="#EB7720"/>
<path d="M90.1006 79.3335L90.3561 91.0687L99.7506 85.9627L90.1006 91.5349V79.3335Z" fill="#455A64"/>
<path d="M91.6487 87.6073C91.6016 87.6085 91.5551 87.5963 91.5146 87.5722C91.4573 87.5315 91.4118 87.4764 91.3827 87.4125C91.3535 87.3485 91.3418 87.2781 91.3486 87.2081V86.1256V86.0426H91.4028L92.2523 85.5444V86.7515C92.2523 86.9058 92.2158 87.058 92.1459 87.1956C92.076 87.3333 91.9746 87.4524 91.8499 87.5434C91.7907 87.5843 91.7207 87.6065 91.6487 87.6073ZM91.4859 86.2054V87.2241C91.4802 87.2703 91.486 87.3171 91.5027 87.3606C91.5194 87.404 91.5465 87.4427 91.5817 87.4732C91.6119 87.4855 91.6448 87.49 91.6772 87.4861C91.7096 87.4821 91.7405 87.47 91.7669 87.4508C91.8725 87.3733 91.9589 87.2725 92.0192 87.1562C92.0796 87.0399 92.1124 86.9112 92.1149 86.7802V86.6908H91.7956L91.7349 86.2693L91.4859 86.2054ZM91.9202 86.5407H92.1149V85.7935L91.6104 86.0905L91.8595 86.1352L91.9202 86.5407Z" fill="#E0E0E0"/>
<path d="M91.7991 88.4692C91.7813 88.4692 91.7643 88.4622 91.7517 88.4496C91.7391 88.437 91.7321 88.42 91.7321 88.4022V87.4953C91.7298 87.485 91.7299 87.4744 91.7324 87.4642C91.7348 87.454 91.7394 87.4445 91.746 87.4363C91.7526 87.4281 91.7609 87.4216 91.7704 87.417C91.7799 87.4125 91.7902 87.4102 91.8007 87.4102C91.8112 87.4102 91.8216 87.4125 91.831 87.417C91.8405 87.4216 91.8488 87.4281 91.8554 87.4363C91.862 87.4445 91.8667 87.454 91.8691 87.4642C91.8715 87.4744 91.8716 87.485 91.8694 87.4953V88.4022C91.8694 88.4113 91.8676 88.4203 91.864 88.4286C91.8604 88.437 91.8552 88.4445 91.8486 88.4508C91.842 88.457 91.8343 88.4619 91.8258 88.4651C91.8173 88.4683 91.8082 88.4697 91.7991 88.4692Z" fill="#E0E0E0"/>
<path d="M91.4066 88.6994C91.3944 88.6991 91.3824 88.6957 91.3718 88.6896C91.3612 88.6834 91.3523 88.6748 91.346 88.6643C91.3377 88.6485 91.3357 88.6302 91.3404 88.613C91.3452 88.5958 91.3563 88.581 91.3715 88.5717L92.1602 88.1151C92.1755 88.1099 92.192 88.1101 92.2072 88.1157C92.2223 88.1212 92.235 88.1318 92.2432 88.1457C92.2515 88.1595 92.2547 88.1758 92.2524 88.1917C92.25 88.2076 92.2423 88.2223 92.2305 88.2332L91.4386 88.6899C91.429 88.696 91.4179 88.6993 91.4066 88.6994Z" fill="#E0E0E0"/>
<path d="M94.2195 87.1346C94.1927 87.135 94.1663 87.1284 94.1428 87.1154C94.1162 87.0978 94.0948 87.0735 94.0808 87.0448C94.0667 87.0162 94.0606 86.9843 94.063 86.9525V86.7641C94.063 86.7464 94.0701 86.7293 94.0827 86.7167C94.0952 86.7041 94.1123 86.6971 94.1301 86.6971C94.1479 86.6971 94.1649 86.7041 94.1775 86.7167C94.1901 86.7293 94.1971 86.7464 94.1971 86.7641V86.9525C94.1923 86.967 94.1923 86.9827 94.1971 86.9973C94.1971 86.9973 94.2195 86.9973 94.2418 86.9973C94.2858 86.9571 94.3201 86.9075 94.3422 86.8522C94.3643 86.7969 94.3737 86.7373 94.3696 86.6779V85.4709C94.3696 85.4531 94.3766 85.436 94.3892 85.4235C94.4018 85.4109 94.4188 85.4038 94.4366 85.4038C94.4544 85.4038 94.4715 85.4109 94.4841 85.4235C94.4966 85.436 94.5037 85.4531 94.5037 85.4709V86.6779C94.5072 86.7588 94.4917 86.8393 94.4584 86.9131C94.4251 86.9868 94.375 87.0518 94.3121 87.1026C94.2843 87.1207 94.2525 87.1317 94.2195 87.1346Z" fill="#E0E0E0"/>
<path d="M93.501 86.0776V85.9466C93.5174 85.645 93.6049 85.3514 93.7565 85.0901C93.908 84.8287 94.1191 84.6068 94.3727 84.4426C94.4631 84.3668 94.5745 84.3206 94.692 84.3103C94.8095 84.3 94.9273 84.3261 95.0294 84.385C95.1316 84.4439 95.2131 84.5328 95.263 84.6397C95.3129 84.7465 95.3287 84.8661 95.3084 84.9823V85.0238L93.501 86.0776ZM94.7783 84.4809C94.6582 84.486 94.5415 84.5223 94.4398 84.5863C94.2226 84.7288 94.0389 84.9169 93.9016 85.1374C93.7643 85.358 93.6767 85.6058 93.6447 85.8636L95.171 84.9823C95.1767 84.8968 95.1606 84.8112 95.1244 84.7336C95.0881 84.656 95.0327 84.5889 94.9635 84.5384C94.9087 84.4997 94.845 84.4755 94.7783 84.4681V84.4809Z" fill="#E0E0E0"/>
<path d="M96.6598 85.7424C96.642 85.7424 96.625 85.7354 96.6124 85.7228C96.5998 85.7102 96.5928 85.6931 96.5928 85.6754V83.3634C96.5928 83.3457 96.5998 83.3286 96.6124 83.316C96.625 83.3034 96.642 83.2964 96.6598 83.2964C96.6776 83.2964 96.6947 83.3034 96.7072 83.316C96.7198 83.3286 96.7269 83.3457 96.7269 83.3634V85.6754C96.7269 85.6842 96.7252 85.6929 96.7218 85.701C96.7184 85.7092 96.7135 85.7166 96.7072 85.7228C96.701 85.729 96.6936 85.734 96.6855 85.7373C96.6774 85.7407 96.6686 85.7424 96.6598 85.7424Z" fill="#E0E0E0"/>
<path d="M96.4614 83.8904H96.4327C96.4244 83.8869 96.4169 83.8819 96.4107 83.8755C96.4044 83.8691 96.3995 83.8615 96.3962 83.8531C96.393 83.8448 96.3914 83.8359 96.3916 83.8269C96.3918 83.818 96.3939 83.8092 96.3975 83.801L96.6402 83.2422L96.9085 83.5615C96.9148 83.5678 96.9199 83.5752 96.9234 83.5834C96.9268 83.5917 96.9286 83.6005 96.9286 83.6094C96.9286 83.6183 96.9268 83.6272 96.9234 83.6354C96.9199 83.6436 96.9148 83.6511 96.9085 83.6573C96.8955 83.6694 96.8783 83.6762 96.8606 83.6762C96.8428 83.6762 96.8257 83.6694 96.8127 83.6573L96.6849 83.5104L96.5285 83.8713C96.5201 83.8803 96.5094 83.8869 96.4976 83.8902C96.4858 83.8936 96.4733 83.8937 96.4614 83.8904Z" fill="#E0E0E0"/>
<path d="M97.2792 85.3848C97.2611 85.3848 97.2437 85.3779 97.2307 85.3654C97.2176 85.3529 97.2098 85.3358 97.209 85.3177V83.0026C97.2124 82.9869 97.2211 82.9729 97.2335 82.9628C97.246 82.9528 97.2616 82.9473 97.2776 82.9473C97.2937 82.9473 97.3092 82.9528 97.3217 82.9628C97.3342 82.9729 97.3429 82.9869 97.3463 83.0026V85.3082C97.3472 85.3176 97.3461 85.3272 97.3432 85.3363C97.3402 85.3453 97.3355 85.3537 97.3292 85.3609C97.3229 85.368 97.3153 85.3739 97.3067 85.378C97.2981 85.3821 97.2888 85.3844 97.2792 85.3848Z" fill="#E0E0E0"/>
<path d="M97.0871 83.5325H97.0616C97.0533 83.529 97.0458 83.5239 97.0396 83.5175C97.0333 83.5111 97.0284 83.5035 97.0251 83.4952C97.0219 83.4869 97.0203 83.478 97.0205 83.469C97.0208 83.4601 97.0228 83.4513 97.0264 83.4431L97.2691 82.8843L97.5374 83.2036C97.5492 83.2172 97.5552 83.2349 97.554 83.2528C97.5528 83.2708 97.5445 83.2875 97.531 83.2994C97.5243 83.3053 97.5165 83.3098 97.508 83.3126C97.4996 83.3155 97.4907 83.3166 97.4818 83.3161C97.4638 83.3149 97.447 83.3066 97.4352 83.293L97.3075 83.1461L97.151 83.507C97.1434 83.5163 97.1336 83.5236 97.1224 83.5281C97.1112 83.5326 97.0991 83.5341 97.0871 83.5325Z" fill="#E0E0E0"/>
<path d="M81.6579 81.5145L85.1897 83.5518C85.2359 83.5827 85.2743 83.6238 85.302 83.672C85.3297 83.7202 85.3459 83.7742 85.3493 83.8296V86.282C85.3493 86.4864 85.2057 86.5694 85.03 86.4673L81.4983 84.4268C81.4525 84.3964 81.4146 84.3557 81.3874 84.3081C81.3602 84.2604 81.3446 84.207 81.3418 84.1521V81.6965C81.3418 81.4954 81.4855 81.4123 81.6579 81.5145Z" fill="#FAFAFA"/>
<path d="M81.5713 81.8945L81.6894 81.9648V84.1298L81.5713 84.0628V81.8945Z" fill="#455A64"/>
<path d="M82.0596 82.1787L82.2671 82.3V84.4651L82.0596 84.3437V82.1787Z" fill="#455A64"/>
<path d="M82.5488 82.4595L82.6702 82.5297V84.6948L82.5488 84.6245V82.4595Z" fill="#455A64"/>
<path d="M82.9189 82.6675L83.1584 82.8112V84.9762L82.9189 84.8357V82.6675Z" fill="#455A64"/>
<path d="M83.5254 83.0249L83.6467 83.092V85.2602L83.5254 85.1899V83.0249Z" fill="#455A64"/>
<path d="M83.8799 83.2227L84.1353 83.3759V85.541L83.8799 85.3877V83.2227Z" fill="#455A64"/>
<path d="M84.5059 83.5903L84.624 83.6574V85.8256L84.5059 85.7554V83.5903Z" fill="#455A64"/>
<path d="M84.7832 83.7466L84.8439 83.7817V85.9467L84.7832 85.9148V83.7466Z" fill="#455A64"/>
<path d="M84.2822 83.4717L84.3429 83.5036V85.6718L84.2822 85.6367V83.4717Z" fill="#455A64"/>
<path d="M83.2959 82.894L83.3566 82.9292V85.0942L83.2959 85.0591V82.894Z" fill="#455A64"/>
<path d="M82.7559 82.584L82.8165 82.6191V84.7841L82.7559 84.749V82.584Z" fill="#455A64"/>
<path d="M82.3691 82.3701L82.4298 82.4052V84.5703L82.3691 84.5351V82.3701Z" fill="#455A64"/>
<path d="M81.8457 82.0508L81.9032 82.0859V84.2509L81.8457 84.2158V82.0508Z" fill="#455A64"/>
<path d="M84.9941 83.8711L85.1123 83.9413V86.1064L84.9941 86.0361V83.8711Z" fill="#455A64"/>
<path d="M90.1005 66.3623L78.8857 72.8382L90.1005 79.3333L101.315 72.8382L90.1005 66.3623Z" fill="#455A64"/>
<path opacity="0.1" d="M78.8857 72.8384L90.1005 78.8705L101.315 72.8384L90.1005 79.3335L78.8857 72.8384Z" fill="white"/>
<path d="M83.8701 69.9614L95.0944 76.4405L97.087 75.2877L85.8659 68.8086L83.8701 69.9614Z" fill="#EB7720"/>
<path d="M97.0873 75.2876V77.8199L96.8478 77.6825L96.5956 78.1136L96.3465 77.9667L96.0974 78.4042L95.8451 78.2573L95.5961 78.6884L95.3438 78.5447L95.0947 78.979V76.4404L97.0873 75.2876Z" fill="#EB7720"/>
<path opacity="0.25" d="M97.0873 75.2876V77.8199L96.8478 77.6825L96.5956 78.1136L96.3465 77.9667L96.0974 78.4042L95.8451 78.2573L95.5961 78.6884L95.3438 78.5447L95.0947 78.979V76.4404L97.0873 75.2876Z" fill="black"/>
<path d="M140.634 109.803C139.803 110.282 138.865 110.273 137.846 109.886L137.169 104.413L140.682 103.602L140.634 109.803Z" fill="#B16668"/>
<path d="M130.489 107.517C129.818 109.082 128.841 108.571 127.356 107.626L127.241 102.233L131.073 101.971L130.489 107.517Z" fill="#B16668"/>
<path d="M134.662 114.865C134.585 115.174 134.603 115.499 134.717 115.797C134.832 115.966 135.438 116.484 136.585 116.532C137.68 116.576 138.651 116.401 139.28 115.976C139.552 115.823 139.781 115.605 139.948 115.341C140.116 115.078 140.215 114.777 140.238 114.466C140.283 113.827 140.193 113.243 140.477 112.754C140.762 112.266 141.09 111.86 141.18 111.617C141.289 111.179 141.302 110.723 141.218 110.279L134.662 114.865Z" fill="#263238"/>
<path d="M137.447 109.657C137.44 109.893 137.402 110.126 137.336 110.353C137.18 110.84 136.965 111.306 136.697 111.742C136.566 111.971 136.42 112.19 136.259 112.4C135.94 112.802 135.541 113.137 135.203 113.524C134.838 113.891 134.613 114.373 134.564 114.887C134.542 115.746 135.48 116.008 136.202 116.117C136.981 116.229 137.776 116.164 138.527 115.928C138.926 115.818 139.285 115.593 139.559 115.282C139.833 114.97 140.01 114.586 140.069 114.175C140.101 113.936 140.069 113.693 140.101 113.45C140.181 112.9 140.394 112.378 140.724 111.93C140.915 111.672 141.077 111.393 141.209 111.1C141.417 110.564 141.209 109.97 141.062 109.446C140.925 108.993 140.819 108.45 140.66 108.488C140.66 108.581 140.66 108.782 140.66 108.782C140.612 108.881 140.497 108.951 140.465 109.069C140.435 109.191 140.396 109.311 140.347 109.427C140.271 109.604 140.143 109.755 139.98 109.858L139.916 108.9C139.92 108.799 139.891 108.699 139.833 108.616C139.756 108.548 139.657 108.51 139.555 108.507C138.952 108.38 138.332 108.347 137.719 108.408C137.672 108.409 137.627 108.419 137.585 108.439C137.543 108.459 137.506 108.488 137.476 108.523C137.438 108.59 137.426 108.668 137.441 108.743C137.46 109.048 137.463 109.352 137.447 109.657Z" fill="#EB7720"/>
<path d="M136.594 111.924C136.914 111.675 137.623 111.652 138.015 111.681C138.414 111.704 138.801 111.827 139.139 112.039C139.188 112.071 139.247 112.085 139.305 112.079C139.364 112.072 139.418 112.046 139.459 112.004C139.483 111.979 139.502 111.949 139.513 111.916C139.525 111.883 139.529 111.848 139.526 111.813C139.522 111.779 139.511 111.745 139.494 111.715C139.476 111.685 139.452 111.659 139.424 111.64C139.047 111.379 138.604 111.231 138.146 111.215C137.188 111.173 136.904 111.349 136.904 111.349C136.904 111.349 136.492 111.643 136.594 111.924Z" fill="#F5F5F5"/>
<path d="M135.889 112.824C136.281 112.575 137.07 112.588 137.463 112.617C137.854 112.646 138.231 112.777 138.555 112.997C138.604 113.028 138.663 113.041 138.721 113.035C138.779 113.028 138.833 113.003 138.874 112.962C138.899 112.937 138.917 112.907 138.929 112.874C138.94 112.841 138.945 112.806 138.941 112.772C138.938 112.737 138.927 112.703 138.909 112.673C138.892 112.643 138.868 112.618 138.839 112.598C138.46 112.326 138.012 112.165 137.546 112.135C136.588 112.096 136.336 112.301 136.336 112.301C136.227 112.349 136.13 112.421 136.052 112.511C135.975 112.602 135.919 112.709 135.889 112.824Z" fill="#F5F5F5"/>
<path d="M138.523 110.283C138.116 110.222 137.699 110.269 137.316 110.42C137.147 110.519 137.044 110.791 137.156 110.854C137.492 110.708 137.858 110.647 138.223 110.676C138.585 110.699 138.941 110.786 139.273 110.931C139.356 110.966 139.455 111.014 139.542 111.059C139.569 111.074 139.6 111.084 139.632 111.087C139.663 111.09 139.695 111.086 139.725 111.076C139.756 111.065 139.783 111.049 139.807 111.027C139.83 111.006 139.848 110.979 139.861 110.95C139.883 110.902 139.886 110.847 139.869 110.797C139.853 110.747 139.818 110.705 139.771 110.679C139.388 110.459 138.963 110.324 138.523 110.283Z" fill="#F5F5F5"/>
<path d="M121.468 111.11C121.394 111.362 121.418 111.634 121.535 111.87C121.647 112.09 122.835 112.713 124.409 112.559C125.568 112.441 126.675 112.016 127.615 111.327C128.203 110.912 128.825 110.819 129.601 110.752C130.377 110.685 130.971 110.433 131.131 110.059C131.209 109.73 131.189 109.384 131.073 109.066L121.468 111.11Z" fill="#263238"/>
<path d="M127.689 106.278C127.548 106.244 127.409 106.202 127.273 106.15C127.201 106.115 127.118 106.108 127.04 106.131C126.995 106.16 126.957 106.199 126.929 106.245C126.901 106.291 126.885 106.343 126.881 106.396C126.851 106.629 126.801 106.859 126.731 107.083C126.619 107.267 126.474 107.43 126.303 107.562C125.92 107.886 125.506 108.17 125.067 108.411C124.562 108.702 124.064 108.932 123.541 109.184C123.017 109.436 122.292 109.615 121.877 109.912C121.273 110.346 121.238 111.394 121.941 111.786C122.557 112.125 124.176 112.463 125.827 111.94C126.731 111.652 127.714 110.662 128.908 110.519C129.668 110.439 130.681 110.343 131.144 109.752C131.316 109.491 131.188 108.743 131.073 107.862C130.971 107.07 130.891 105.837 130.639 105.914C130.639 105.914 130.537 106.201 130.518 106.233C130.454 106.331 130.381 106.423 130.301 106.508C130.232 106.578 130.16 106.644 130.084 106.706C129.997 106.8 129.905 106.89 129.809 106.974C129.684 107.077 129.53 107.138 129.368 107.147C129.291 107.15 129.215 107.131 129.148 107.092C129.02 107.016 129.007 106.846 128.905 106.738C128.787 106.617 128.646 106.52 128.49 106.454C128.271 106.368 128.041 106.316 127.807 106.297C127.772 106.294 127.727 106.284 127.689 106.278Z" fill="#EB7720"/>
<path d="M125.767 107.98C125.818 107.874 125.895 107.783 125.991 107.714C126.087 107.646 126.199 107.602 126.316 107.588C126.661 107.514 127.274 107.751 127.67 108.054C127.707 108.082 127.736 108.119 127.756 108.161C127.775 108.203 127.784 108.249 127.781 108.295C127.779 108.342 127.765 108.387 127.741 108.426C127.717 108.466 127.684 108.499 127.644 108.523C127.595 108.552 127.538 108.564 127.481 108.56C127.424 108.555 127.369 108.534 127.325 108.498C126.893 108.128 126.334 107.943 125.767 107.98Z" fill="#F5F5F5"/>
<path d="M124.709 108.619C124.781 108.51 124.879 108.42 124.993 108.356C125.108 108.293 125.236 108.258 125.367 108.255C125.9 108.263 126.418 108.44 126.845 108.759C126.88 108.787 126.908 108.822 126.927 108.863C126.945 108.903 126.954 108.948 126.952 108.992C126.949 109.036 126.937 109.08 126.914 109.118C126.892 109.157 126.86 109.189 126.823 109.213C126.774 109.243 126.716 109.256 126.659 109.251C126.602 109.247 126.547 109.224 126.504 109.187C126.266 108.964 125.982 108.797 125.671 108.698C125.36 108.6 125.032 108.573 124.709 108.619Z" fill="#F5F5F5"/>
<path d="M123.541 109.184C123.625 109.085 123.73 109.005 123.848 108.95C123.966 108.895 124.094 108.866 124.224 108.865C124.739 108.881 125.236 109.06 125.642 109.376C125.677 109.403 125.705 109.439 125.724 109.48C125.742 109.521 125.751 109.565 125.748 109.61C125.746 109.654 125.733 109.698 125.711 109.737C125.689 109.775 125.657 109.808 125.62 109.832C125.57 109.862 125.513 109.875 125.456 109.869C125.398 109.864 125.344 109.841 125.301 109.804C125.076 109.571 124.799 109.393 124.494 109.286C124.189 109.178 123.862 109.143 123.541 109.184Z" fill="#F5F5F5"/>
<path d="M115.315 60.0429C114.708 59.484 114.069 58.1461 113.574 58.8805C113.255 59.3755 113.932 59.7108 113.894 60.3366C113.855 60.9625 111.949 59.4776 111.154 58.922C110.624 58.5516 109.401 59.7108 109.893 60.9657C110.327 62.0802 111.023 62.7859 112.272 63.3128C113.59 63.8716 114.28 64.1494 115.934 64.8934C116.675 63.8428 117.192 62.805 117.01 61.796C115.711 61.0392 115.838 60.525 115.315 60.0429Z" fill="#EB7720"/>
<path opacity="0.7" d="M115.315 60.0429C114.708 59.484 114.069 58.1461 113.574 58.8805C113.255 59.3755 113.932 59.7108 113.894 60.3366C113.855 60.9625 111.949 59.4776 111.154 58.922C110.624 58.5516 109.401 59.7108 109.893 60.9657C110.327 62.0802 111.023 62.7859 112.272 63.3128C113.59 63.8716 114.28 64.1494 115.934 64.8934C116.675 63.8428 117.192 62.805 117.01 61.796C115.711 61.0392 115.838 60.525 115.315 60.0429Z" fill="white"/>
<path opacity="0.1" d="M115.315 60.0429C114.708 59.484 114.069 58.1461 113.574 58.8805C113.255 59.3755 113.932 59.7108 113.894 60.3366C113.855 60.9625 111.949 59.4776 111.154 58.922C110.624 58.5516 109.401 59.7108 109.893 60.9657C110.327 62.0802 111.023 62.7859 112.272 63.3128C113.59 63.8716 114.28 64.1494 115.934 64.8934C116.675 63.8428 117.192 62.805 117.01 61.796C115.711 61.0392 115.838 60.525 115.315 60.0429Z" fill="black"/>
<path opacity="0.1" d="M113.766 60.9976C113.766 61.5596 113.92 62.4537 114.724 62.9135C114.523 62.8861 114.331 62.8109 114.164 62.6943C113.998 62.5777 113.861 62.4229 113.766 62.2429C113.663 62.0518 113.608 61.8377 113.608 61.6202C113.608 61.4028 113.663 61.1887 113.766 60.9976Z" fill="black"/>
<path d="M130.984 53.7681C130.266 54.7261 130.563 54.3333 130.346 55.7959C130.167 56.9742 127.692 68.3134 125.451 68.7828C124.467 68.9904 117.372 65.7429 115.65 64.7945C116.3 63.8962 116.763 62.8766 117.011 61.796C119.074 62.6039 122.628 63.3926 123.905 63.795C124.496 62.1473 125.217 60.4548 125.894 58.7911C127.178 55.6266 127.909 53.3754 130.984 53.7681Z" fill="#455A64"/>
<path d="M140.27 72.9501C140.27 75.4664 140.443 90.0979 140.443 90.0979C140.506 90.8228 141.203 92.1097 141.257 94.7186C141.337 98.4994 141.187 109.615 141.187 109.615C141.187 109.615 138.824 110.481 137.17 109.791C137.17 109.791 135.41 95.4562 134.934 91.7137C134.522 88.447 133.682 80.9876 133.682 80.9876L132.517 90.8867C132.689 92.4655 132.733 94.0555 132.651 95.6414C132.53 97.3754 131.029 107.073 131.029 107.073C131.029 107.073 128.529 107.597 126.728 106.99C126.728 106.99 126.823 91.3816 126.795 89.7914C126.759 87.9808 127.548 72.4009 127.548 72.4009L140.27 72.9501Z" fill="#EB7720"/>
<path opacity="0.4" d="M140.27 72.9501C140.27 75.4664 140.443 90.0979 140.443 90.0979C140.506 90.8228 141.203 92.1097 141.257 94.7186C141.337 98.4994 141.187 109.615 141.187 109.615C141.187 109.615 138.824 110.481 137.17 109.791C137.17 109.791 135.41 95.4562 134.934 91.7137C134.522 88.447 133.682 80.9876 133.682 80.9876L132.517 90.8867C132.689 92.4655 132.733 94.0555 132.651 95.6414C132.53 97.3754 131.029 107.073 131.029 107.073C131.029 107.073 128.529 107.597 126.728 106.99C126.728 106.99 126.823 91.3816 126.795 89.7914C126.759 87.9808 127.548 72.4009 127.548 72.4009L140.27 72.9501Z" fill="black"/>
<path opacity="0.15" d="M133.683 80.9875L133.475 79.4451C132.731 79.3174 130.866 78.088 129.768 77.0278C130.537 78.2545 131.594 79.2759 132.846 80.004L132.689 89.8041L133.683 80.9875Z" fill="black"/>
<path d="M135.729 53.7233C136.288 53.8574 137.645 54.0235 138.628 54.3077C139.356 54.5153 139.663 55.4062 139.816 56.0768C140.302 58.2226 140.388 62.7219 140.388 62.7219L140.417 73.2022C138.6 74.5242 131.156 75.1948 127.324 72.4071C127.324 72.4071 127.79 59.9246 127.79 57.9831C127.79 56.0416 128.87 53.7074 131.849 53.5317L135.729 53.7233Z" fill="#455A64"/>
<path d="M136.103 53.8003C136.202 53.8219 136.295 53.865 136.375 53.9266C136.456 53.9882 136.522 54.0667 136.568 54.1566C136.615 54.2466 136.641 54.3457 136.645 54.4469C136.649 54.5481 136.631 54.649 136.591 54.7423C136.192 55.6563 135.653 56.5029 134.995 57.2522C133.909 58.4912 131.61 59.4875 131.61 59.4875C131.61 59.4875 130.47 58.2102 130.678 56.7509C130.885 55.2915 131.476 54.0717 131.917 53.73C132.033 53.6525 132.161 53.5952 132.297 53.5608V53.3756C131.644 53.3136 130.985 53.392 130.365 53.6055C129.589 53.9504 128.212 54.5284 127.778 56.9169C127.344 59.3055 126.977 72.7459 126.977 72.7459C126.977 72.7459 131.584 76.9227 140.66 73.8668V62.8021C140.66 62.8021 140.593 57.629 139.229 54.2569L136.116 53.6183L136.103 53.8003Z" fill="#EB7720"/>
<path opacity="0.1" d="M140.651 67.9272C139.523 68.7383 138.01 69.7825 136.911 70.4819C136.592 70.6862 136.304 70.8618 136.075 70.996C135.794 71.1588 135.359 70.9353 135.04 70.8714C134.187 70.6958 133.644 70.8331 132.843 70.8714C132.204 70.9002 131.866 70.7245 131.808 70.8714C131.758 71.0447 131.776 71.2304 131.857 71.3915C131.938 71.5526 132.077 71.677 132.246 71.74C132.615 71.8903 133.001 71.9975 133.395 72.0593C132.75 72.3664 132.058 72.5669 131.349 72.6533C129.902 72.8353 129.295 73.2919 130.24 74.4032C131.639 74.8202 133.095 75.0163 134.555 74.9844C134.874 74.847 135.232 74.665 135.608 74.4862C136.138 74.2084 137.231 73.5921 138.256 73.0365C138.735 72.7746 139.214 72.5255 139.584 72.3371C139.954 72.1487 140.286 71.9923 140.651 71.8198V67.9272Z" fill="black"/>
<path opacity="0.1" d="M139.529 55.1221C138.013 58.459 140.325 61.1893 140.325 61.1893L140.628 62.0993C140.564 60.7518 140.337 57.6416 139.529 55.1221Z" fill="black"/>
<path d="M127.155 67.1064C127.899 68.4444 131.354 69.2459 134.337 69.2906C137.319 69.3353 139.797 68.4827 140.65 67.6939V66.3943C139.797 67.1926 137.319 68.0516 134.337 67.9909C131.354 67.9302 127.95 67.1319 127.206 65.7939L127.155 67.1064Z" fill="#FAFAFA"/>
<path d="M140.65 70.0955C139.798 70.8938 137.32 71.7528 134.337 71.6921C131.355 71.6314 127.813 70.8139 127.069 69.476L127.114 68.1699C127.858 69.5079 131.355 70.335 134.337 70.3797C137.32 70.4244 139.798 69.5718 140.65 68.783V70.0955Z" fill="#FAFAFA"/>
<path opacity="0.15" d="M131.61 59.481L131.402 74.6968C131.169 74.649 130.949 74.5947 130.731 74.5404L131.61 59.481Z" fill="black"/>
<path d="M119.788 65.7046L130.364 66.4167L135.745 78.3403L125.638 77.4015L119.788 65.7046Z" fill="#263238"/>
<path opacity="0.15" d="M129.576 73.9531C129.73 74.3491 129.986 74.6972 130.318 74.962C130.65 75.2268 131.046 75.3987 131.467 75.4603C132.412 75.5419 133.363 75.3653 134.216 74.9494L133.766 73.9531H129.576Z" fill="black"/>
<path opacity="0.15" d="M123.084 66.9469L122.927 66.5765C122.841 66.3753 123.429 66.2572 124.243 66.3019L125.798 66.4009C126.612 66.4552 127.344 66.6596 127.43 66.8639L127.586 67.2311L123.084 66.9469Z" fill="black"/>
<path d="M122.106 65.631C122.052 65.5033 122.285 65.4234 122.627 65.449L123.243 65.5001C123.243 65.5001 122.908 64.7018 124.268 64.7433C125.629 64.7848 126.095 65.6693 126.095 65.6693L126.756 65.7268C127.042 65.7246 127.319 65.8242 127.538 66.0078L127.656 66.2345L122.209 65.8673L122.106 65.631Z" fill="#EB7720"/>
<path opacity="0.3" d="M122.106 65.631C122.052 65.5033 122.285 65.4234 122.627 65.449L123.243 65.5001C123.243 65.5001 122.908 64.7018 124.268 64.7433C125.629 64.7848 126.095 65.6693 126.095 65.6693L126.756 65.7268C127.042 65.7246 127.319 65.8242 127.538 66.0078L127.656 66.2345L122.209 65.8673L122.106 65.631Z" fill="black"/>
<path d="M127.373 66.9114C127.302 66.7422 126.785 66.573 126.143 66.4899C126.143 66.4676 126.127 66.4484 126.121 66.4293C126.047 66.2536 126.105 66.1259 126.488 66.1546V66.0014L122.717 65.7778L122.899 65.9088C123.394 65.9311 123.605 65.9567 123.739 66.2696L123.767 66.3398C123.183 66.3398 122.809 66.458 122.867 66.624L123.023 66.9945L127.529 67.2787L127.373 66.9114Z" fill="#EB7720"/>
<path opacity="0.4" d="M127.373 66.9114C127.302 66.7422 126.785 66.573 126.143 66.4899C126.143 66.4676 126.127 66.4484 126.121 66.4293C126.047 66.2536 126.105 66.1259 126.488 66.1546V66.0014L122.717 65.7778L122.899 65.9088C123.394 65.9311 123.605 65.9567 123.739 66.2696L123.767 66.3398C123.183 66.3398 122.809 66.458 122.867 66.624L123.023 66.9945L127.529 67.2787L127.373 66.9114Z" fill="black"/>
<path d="M136.336 70.1431C136.017 70.3506 135.729 70.5263 135.499 70.6604C135.218 70.82 134.784 70.5997 134.465 70.5358C133.612 70.3602 133.069 70.4975 132.268 70.5358C131.629 70.5678 131.291 70.3921 131.233 70.5358C131.182 70.7091 131.199 70.8952 131.28 71.0564C131.362 71.2177 131.501 71.3421 131.671 71.4044C132.04 71.5565 132.426 71.6637 132.82 71.7237C132.174 72.0308 131.483 72.2313 130.773 72.3177C129.151 72.5221 128.58 73.0521 130.077 74.5083C131.016 75.4183 132.328 75.5556 135.033 74.1506C135.563 73.8728 136.655 73.2533 137.68 72.6977C137.643 72.2026 137.504 71.7205 137.273 71.2812C137.041 70.8418 136.723 70.4545 136.336 70.1431Z" fill="#EB7720"/>
<path opacity="0.7" d="M136.336 70.1431C136.017 70.3506 135.729 70.5263 135.499 70.6604C135.218 70.82 134.784 70.5997 134.465 70.5358C133.612 70.3602 133.069 70.4975 132.268 70.5358C131.629 70.5678 131.291 70.3921 131.233 70.5358C131.182 70.7091 131.199 70.8952 131.28 71.0564C131.362 71.2177 131.501 71.3421 131.671 71.4044C132.04 71.5565 132.426 71.6637 132.82 71.7237C132.174 72.0308 131.483 72.2313 130.773 72.3177C129.151 72.5221 128.58 73.0521 130.077 74.5083C131.016 75.4183 132.328 75.5556 135.033 74.1506C135.563 73.8728 136.655 73.2533 137.68 72.6977C137.643 72.2026 137.504 71.7205 137.273 71.2812C137.041 70.8418 136.723 70.4545 136.336 70.1431Z" fill="white"/>
<path opacity="0.1" d="M136.336 70.1431C136.017 70.3506 135.729 70.5263 135.499 70.6604C135.218 70.82 134.784 70.5997 134.465 70.5358C133.612 70.3602 133.069 70.4975 132.268 70.5358C131.629 70.5678 131.291 70.3921 131.233 70.5358C131.182 70.7091 131.199 70.8952 131.28 71.0564C131.362 71.2177 131.501 71.3421 131.671 71.4044C132.04 71.5565 132.426 71.6637 132.82 71.7237C132.174 72.0308 131.483 72.2313 130.773 72.3177C129.151 72.5221 128.58 73.0521 130.077 74.5083C131.016 75.4183 132.328 75.5556 135.033 74.1506C135.563 73.8728 136.655 73.2533 137.68 72.6977C137.643 72.2026 137.504 71.7205 137.273 71.2812C137.041 70.8418 136.723 70.4545 136.336 70.1431Z" fill="black"/>
<path d="M143.435 58.0472C142.477 54.6943 141.18 54.4133 139.219 54.2568C137.195 57.8237 139.75 60.8605 139.75 60.8605L141.605 66.4232C141.317 66.7425 138.22 68.9395 136.336 70.1433C136.879 70.5872 137.68 71.9475 137.68 72.6979C138.159 72.4393 138.638 72.1902 139.009 71.9986C141.867 70.5776 145.683 69.0672 145.746 67.6206C145.81 66.1741 144.424 61.579 143.435 58.0472Z" fill="#455A64"/>
<path d="M132.354 47.5795C132.357 47.6601 132.385 47.7378 132.432 47.8029C132.48 47.8681 132.545 47.9179 132.621 47.9462C132.696 47.9744 132.778 47.9799 132.857 47.9619C132.936 47.9439 133.007 47.9033 133.063 47.845C133.119 47.7867 133.156 47.7133 133.17 47.6339C133.185 47.5546 133.176 47.4728 133.144 47.3986C133.112 47.3245 133.06 47.2612 132.992 47.2168C132.925 47.1723 132.846 47.1485 132.766 47.1484C132.654 47.1518 132.548 47.1989 132.471 47.2795C132.394 47.3602 132.352 47.468 132.354 47.5795Z" fill="#263238"/>
<path d="M132.766 46.1843L133.618 46.6697C133.68 46.5534 133.694 46.4174 133.657 46.2909C133.62 46.1644 133.535 46.0574 133.42 45.9927C133.365 45.9615 133.304 45.9416 133.241 45.9343C133.177 45.927 133.114 45.9324 133.052 45.9503C132.991 45.9682 132.935 45.9981 132.885 46.0383C132.836 46.0785 132.795 46.1281 132.766 46.1843Z" fill="#263238"/>
<path d="M132.459 50.0962L131.501 50.4538C131.521 50.5173 131.554 50.576 131.597 50.6266C131.64 50.6772 131.693 50.7186 131.753 50.7483C131.812 50.7781 131.877 50.7956 131.944 50.7999C132.01 50.8042 132.077 50.7951 132.14 50.7732C132.271 50.7249 132.378 50.6268 132.438 50.5001C132.498 50.3734 132.505 50.2284 132.459 50.0962Z" fill="#F28F8F"/>
<path d="M129.065 46.5261L129.841 45.929C129.805 45.8764 129.758 45.8317 129.704 45.7977C129.65 45.7637 129.59 45.7411 129.527 45.7312C129.464 45.7214 129.399 45.7245 129.337 45.7403C129.276 45.7562 129.218 45.7845 129.167 45.8236C129.062 45.9046 128.993 46.0231 128.974 46.1542C128.955 46.2852 128.988 46.4186 129.065 46.5261Z" fill="#263238"/>
<path d="M129.24 47.5797C129.243 47.658 129.27 47.7337 129.315 47.7972C129.361 47.8608 129.425 47.9095 129.498 47.9372C129.572 47.9648 129.651 47.9703 129.728 47.9529C129.804 47.9355 129.874 47.8959 129.928 47.8392C129.982 47.7825 130.018 47.7111 130.032 47.6339C130.046 47.5568 130.037 47.4772 130.006 47.4053C129.974 47.3333 129.923 47.2721 129.857 47.2293C129.792 47.1865 129.715 47.164 129.636 47.1646C129.583 47.1658 129.531 47.1775 129.482 47.1991C129.433 47.2206 129.389 47.2515 129.352 47.2901C129.316 47.3286 129.287 47.374 129.268 47.4237C129.248 47.4734 129.239 47.5264 129.24 47.5797Z" fill="#263238"/>
<path d="M131.403 46.8901L131.266 49.3968L129.953 48.9498L131.403 46.8901Z" fill="#F28F8F"/>
<path d="M132.36 46.989L138.223 46.5547C139.357 47.4137 141.468 49.2211 141.464 49.7224V50.0705C141.469 50.0839 141.469 50.0985 141.464 50.112C141.257 50.5079 140.506 50.7506 139.344 50.7698C137.965 50.7953 135.831 50.6676 135.253 50.1822C134.407 49.4542 132.38 47.3083 132.38 47.3083L132.673 47.2859L132.36 46.989Z" fill="#EB7720"/>
<path opacity="0.2" d="M132.36 46.989L138.223 46.5547C139.357 47.4137 141.468 49.2211 141.464 49.7224V50.0705C141.469 50.0839 141.469 50.0985 141.464 50.112C141.257 50.5079 140.506 50.7506 139.344 50.7698C137.965 50.7953 135.831 50.6676 135.253 50.1822C134.407 49.4542 132.38 47.3083 132.38 47.3083L132.673 47.2859L132.36 46.989Z" fill="black"/>
<path d="M138.224 46.8994C139.408 47.7967 141.663 49.7286 141.452 50.1246C141.241 50.5206 140.494 50.7633 139.332 50.7824C137.952 50.808 135.819 50.6802 135.241 50.1949C134.395 49.4668 132.367 47.3209 132.367 47.3209L138.224 46.8994Z" fill="#EB7720"/>
<path opacity="0.4" d="M138.224 46.8994C139.408 47.7967 141.663 49.7286 141.452 50.1246C141.241 50.5206 140.494 50.7633 139.332 50.7824C137.952 50.808 135.819 50.6802 135.241 50.1949C134.395 49.4668 132.367 47.3209 132.367 47.3209L138.224 46.8994Z" fill="black"/>
<path d="M138.223 46.8998C138.243 47.0691 137.646 47.4235 137.646 47.4235L137.812 46.3921L138.223 46.8998Z" fill="#EB7720"/>
<path opacity="0.3" d="M138.223 46.8998C138.243 47.0691 137.646 47.4235 137.646 47.4235L137.812 46.3921L138.223 46.8998Z" fill="black"/>
<path d="M136.684 43.4761C136.684 43.4761 137.6 43.6038 137.935 44.2935C138.226 44.8939 138.121 46.3436 137.731 47.9243C137.509 48.9462 137.179 49.9417 136.748 50.894C136.595 51.1633 136.344 51.3634 136.048 51.4528L136.093 49.5784L136.16 48.2724C136.16 48.2724 135.323 47.126 135.231 46.1872C135.113 44.9801 135.365 44.4851 135.365 44.4851L136.684 43.4761Z" fill="#263238"/>
<path d="M135.202 45.287C135.196 46.2147 134.823 47.1024 134.165 47.7563C133.507 48.4103 132.617 48.7773 131.689 48.7772C130.809 48.7041 129.989 48.3021 129.392 47.6513C128.795 47.0005 128.465 46.1487 128.468 45.2655C128.471 44.3823 128.806 43.5327 129.407 42.8857C130.008 42.2387 130.831 41.8419 131.712 41.7744C132.639 41.7803 133.527 42.153 134.181 42.8111C134.835 43.4692 135.202 44.3593 135.202 45.287Z" fill="#263238"/>
<path d="M136.113 48.0618C136.432 48.3332 136.684 47.6275 136.949 47.3497C137.214 47.0718 138.076 46.711 138.504 47.6083C138.932 48.5056 138.128 49.8436 137.463 50.0895C137.264 50.1659 137.045 50.1734 136.84 50.1109C136.636 50.0485 136.459 49.9195 136.336 49.7446V53.8958C135.34 55.6905 133.58 55.6362 132.642 55.534C131.703 55.4318 131.495 54.4579 132.182 53.6691V52.3918C131.66 52.4729 131.131 52.4975 130.604 52.4653C129.742 52.3311 129.292 51.6829 129.036 50.7505C128.621 49.2528 128.455 46.7334 129.036 43.8275C129.994 43.0803 133.341 43.1888 135.362 44.4853C135.218 47.0623 135.796 47.7871 136.113 48.0618Z" fill="#FFA8A7"/>
<path d="M129.401 42.5534C129.794 42.1262 130.274 41.7877 130.809 41.5603C131.241 41.3752 131.705 41.2765 132.175 41.2697C132.785 41.2697 133.395 41.1803 134.005 41.1995C135.065 41.2314 136.343 41.6625 136.822 42.6939C137.042 43.1665 137.077 43.6519 136.646 43.9712C136.259 44.2325 135.816 44.3978 135.353 44.4534C134.57 44.5907 133.791 44.7727 132.999 44.8685C132.153 45.0126 131.287 45.0007 130.445 44.8334C130.051 44.7415 129.676 44.5815 129.337 44.3608C129.165 44.2428 129.005 44.1092 128.858 43.9616C128.803 43.9042 128.653 43.786 128.634 43.7062C128.615 43.6263 128.72 43.4731 128.759 43.3869C128.933 43.0809 129.149 42.8004 129.401 42.5534Z" fill="#263238"/>
<path d="M132.191 52.3887C132.191 52.3887 134.107 52.0055 134.784 51.6511C135.18 51.4488 135.506 51.1301 135.716 50.7378C135.613 51.1294 135.433 51.4964 135.186 51.8171C134.691 52.4558 132.188 52.8996 132.188 52.8996L132.191 52.3887Z" fill="#F28F8F"/>
<path d="M132.54 47.4234C132.538 47.475 132.547 47.5263 132.565 47.5745C132.584 47.6226 132.611 47.6666 132.647 47.7038C132.683 47.741 132.726 47.7707 132.773 47.7911C132.82 47.8115 132.871 47.8222 132.923 47.8226C133.027 47.8201 133.126 47.7768 133.198 47.7021C133.27 47.6275 133.31 47.5274 133.309 47.4234C133.314 47.3699 133.308 47.316 133.291 47.2651C133.274 47.2143 133.246 47.1675 133.21 47.1278C133.174 47.0882 133.13 47.0565 133.08 47.0348C133.031 47.0131 132.978 47.002 132.924 47.002C132.871 47.002 132.818 47.0131 132.769 47.0348C132.719 47.0565 132.675 47.0882 132.639 47.1278C132.603 47.1675 132.575 47.2143 132.558 47.2651C132.541 47.316 132.535 47.3699 132.54 47.4234Z" fill="#263238"/>
<path d="M132.923 46.0824L133.779 46.4688C133.828 46.3515 133.83 46.2198 133.785 46.1008C133.74 45.9819 133.651 45.885 133.536 45.8301C133.479 45.8047 133.418 45.7911 133.356 45.7901C133.294 45.7891 133.233 45.8008 133.175 45.8244C133.118 45.848 133.066 45.883 133.022 45.9274C132.979 45.9718 132.945 46.0245 132.923 46.0824Z" fill="#263238"/>
<path d="M132.501 50.0449L131.271 50.5016C131.297 50.5848 131.339 50.662 131.396 50.7284C131.452 50.7947 131.521 50.8489 131.599 50.8874C131.677 50.926 131.762 50.9482 131.849 50.9527C131.936 50.9572 132.023 50.9438 132.105 50.9135C132.27 50.8471 132.403 50.7199 132.476 50.5583C132.55 50.3966 132.559 50.2129 132.501 50.0449Z" fill="#B16668"/>
<path d="M132.105 50.9132C131.996 50.9516 131.878 50.9604 131.764 50.9388C131.769 50.7852 131.835 50.6398 131.945 50.5332C132.056 50.4266 132.204 50.3671 132.358 50.3672C132.414 50.3674 132.47 50.376 132.524 50.3927C132.506 50.5086 132.458 50.6177 132.384 50.7091C132.311 50.8004 132.215 50.8709 132.105 50.9132Z" fill="#F28F8F"/>
<path d="M129.321 46.3122L130.212 45.9928C130.193 45.9336 130.163 45.8788 130.123 45.8317C130.083 45.7846 130.033 45.7462 129.978 45.719C129.922 45.6918 129.861 45.6762 129.799 45.6733C129.737 45.6705 129.676 45.6803 129.618 45.7022C129.501 45.7482 129.405 45.8364 129.35 45.9493C129.295 46.0623 129.285 46.1918 129.321 46.3122Z" fill="#263238"/>
<path d="M129.368 47.3083C129.363 47.3618 129.369 47.4157 129.386 47.4666C129.404 47.5175 129.431 47.5643 129.467 47.6039C129.503 47.6436 129.548 47.6753 129.597 47.6969C129.646 47.7186 129.699 47.7298 129.753 47.7298C129.806 47.7298 129.859 47.7186 129.909 47.6969C129.958 47.6753 130.002 47.6436 130.038 47.6039C130.074 47.5643 130.102 47.5175 130.119 47.4666C130.136 47.4157 130.142 47.3618 130.137 47.3083C130.139 47.2568 130.13 47.2054 130.112 47.1573C130.094 47.1091 130.066 47.0652 130.03 47.028C129.994 46.9908 129.951 46.9611 129.904 46.9407C129.857 46.9203 129.806 46.9096 129.754 46.9092C129.65 46.9117 129.552 46.955 129.479 47.0296C129.407 47.1043 129.367 47.2044 129.368 47.3083Z" fill="#263238"/>
<path d="M131.543 46.312L131.402 49.3967L129.841 48.9848L131.543 46.312Z" fill="#F28F8F"/>
<path d="M138.472 45.4722C138.46 45.9671 138.376 46.4576 138.223 46.9284C138.125 46.7752 138.004 46.6374 137.865 46.5196C137.08 45.8672 136.188 45.3561 135.228 45.0092C133.015 44.1566 130.438 44.0225 128.362 44.7506C128.397 44.3271 128.49 43.9103 128.637 43.5116C129.391 41.5445 130.914 40.5163 133.347 40.7686C136.199 41.0655 138.552 42.6494 138.472 45.4722Z" fill="#EB7720"/>
<path d="M133.251 43.7352C132.59 43.5117 130.901 43.3808 130.406 43.5372C130.177 43.3489 129.977 43.1284 129.812 42.8826C129.582 42.5154 129.658 42.0524 129.876 41.9598C130.093 41.8672 130.109 42.1482 130.948 42.5665C130.838 42.2974 130.813 42.0006 130.878 41.7171C131.016 41.3754 131.306 41.9885 131.929 42.3813C132.551 42.774 133.171 42.9784 133.251 43.7352Z" fill="#263238"/>
<path d="M137.001 47.3081C136.689 47.6604 136.456 48.0752 136.317 48.5248C136.254 48.8192 136.215 49.1182 136.199 49.4189L136.126 49.9873C136.126 49.9873 135.682 51.2327 134.788 51.7276C133.894 52.2226 131.329 52.9283 130.138 52.4174C128.947 51.9064 128.574 49.6297 128.657 48.4258C128.657 48.4258 130.327 47.8734 130.949 47.9851C131.572 48.0969 133.009 48.6238 133.581 48.726C134.823 48.9335 135.276 48.7994 136.049 47.9787C136.751 47.2347 137.001 47.3081 137.001 47.3081Z" fill="#EB7720"/>
<path opacity="0.6" d="M137.001 47.3081C136.689 47.6604 136.456 48.0752 136.317 48.5248C136.254 48.8192 136.215 49.1182 136.199 49.4189L136.126 49.9873C136.126 49.9873 135.682 51.2327 134.788 51.7276C133.894 52.2226 131.329 52.9283 130.138 52.4174C128.947 51.9064 128.574 49.6297 128.657 48.4258C128.657 48.4258 130.327 47.8734 130.949 47.9851C131.572 48.0969 133.009 48.6238 133.581 48.726C134.823 48.9335 135.276 48.7994 136.049 47.9787C136.751 47.2347 137.001 47.3081 137.001 47.3081Z" fill="white"/>
<path opacity="0.1" d="M137.001 47.3081C136.689 47.6604 136.456 48.0752 136.317 48.5248C136.254 48.8192 136.215 49.1182 136.199 49.4189L136.126 49.9873C136.126 49.9873 135.682 51.2327 134.788 51.7276C133.894 52.2226 131.329 52.9283 130.138 52.4174C128.947 51.9064 128.574 49.6297 128.657 48.4258C128.657 48.4258 130.327 47.8734 130.949 47.9851C131.572 48.0969 133.009 48.6238 133.581 48.726C134.823 48.9335 135.276 48.7994 136.049 47.9787C136.751 47.2347 137.001 47.3081 137.001 47.3081Z" fill="black"/>
<path d="M128.644 48.7004C128.644 48.6046 128.644 48.5088 128.644 48.4226C128.644 48.4226 130.314 47.8702 130.936 47.9819C131.559 48.0937 132.996 48.6206 133.568 48.7228C134.81 48.9303 135.263 48.7962 136.036 47.9755C136.738 47.2347 136.994 47.3113 136.994 47.3113C136.682 47.6636 136.449 48.0784 136.311 48.528C136.248 48.8224 136.208 49.1214 136.192 49.4221L136.119 49.9905C136.007 50.3791 135.813 50.7394 135.551 51.0475C135.833 50.5651 135.964 50.0085 135.924 49.4508C135.918 48.986 136.035 48.5278 136.263 48.1224C136.132 48.3441 135.959 48.5376 135.752 48.6916C135.546 48.8457 135.312 48.9572 135.062 49.0197C133.96 49.3135 133.105 48.892 131.607 48.4386C130.467 48.1001 129.93 48.3204 128.644 48.7004Z" fill="#FAFAFA"/>
<path d="M11.2083 126.44C8.52273 123.668 6.94206 112.39 9.56373 110.183H22.902C25.5205 112.383 23.943 123.665 21.2575 126.44L21.184 126.517L21.0914 126.606C21.018 126.679 20.9349 126.753 20.8487 126.826L20.7849 126.877L20.5837 127.031C20.4726 127.113 20.3563 127.187 20.2356 127.254C18.0259 128.548 14.4398 128.548 12.2301 127.254C12.1083 127.187 11.991 127.113 11.8788 127.031C11.8118 126.983 11.7543 126.935 11.6904 126.884L11.6106 126.823C11.5276 126.753 11.4509 126.683 11.3775 126.612L11.2721 126.507L11.2083 126.44Z" fill="#455A64"/>
<path d="M21.7423 109.299C24.7855 111.074 24.7855 113.955 21.7423 115.733C18.6991 117.512 13.7592 117.509 10.7224 115.733C7.68558 113.958 7.67919 111.074 10.7224 109.299C13.7656 107.523 18.6991 107.523 21.7423 109.299Z" fill="#455A64"/>
<g opacity="0.1">
<path d="M21.7423 109.299C24.7855 111.074 24.7855 113.955 21.7423 115.733C18.6991 117.512 13.7592 117.509 10.7224 115.733C7.68558 113.958 7.67919 111.074 10.7224 109.299C13.7656 107.523 18.6991 107.523 21.7423 109.299Z" fill="white"/>
</g>
<path d="M20.2802 110.155C22.5155 111.457 22.5155 113.575 20.2802 114.877C18.0449 116.18 14.4205 116.183 12.1853 114.877C9.94997 113.571 9.94997 111.457 12.1853 110.155C14.4205 108.852 18.0449 108.849 20.2802 110.155Z" fill="#263238"/>
<path d="M12.1856 112.397C14.4209 111.09 18.0453 111.09 20.2806 112.397C20.8225 112.693 21.2822 113.12 21.6185 113.639C21.2811 114.155 20.8216 114.581 20.2806 114.878C18.0453 116.184 14.4209 116.184 12.1856 114.878C11.6446 114.581 11.1851 114.155 10.8477 113.639C11.184 113.12 11.6437 112.693 12.1856 112.397Z" fill="#F5F5F5"/>
<path d="M23.624 88.2935L18.2944 91.9402L23.3366 90.0243C23.2911 91.3736 22.951 92.6968 22.3403 93.9009C22.3403 93.9009 19.0097 95.5167 17.1992 97.2219L21.6346 95.8456C21.7736 96.6183 21.7265 97.413 21.4973 98.1639C21.4685 98.2661 21.4366 98.3714 21.4047 98.4832C21.1684 99.1921 20.8331 100.533 20.2647 102.124C19.7814 103.515 19.1677 104.858 18.4318 106.134C18.0647 106.76 17.6573 107.362 17.2119 107.935L17.1289 108.044C16.305 107.495 15.4535 106.962 14.5743 106.447C14.0474 105.106 13.4822 101.913 13.38 99.3582C12.9936 89.4591 20.798 84.3722 26.8907 82.9097C26.8907 82.9097 24.6618 85.3302 23.624 88.2935Z" fill="#EB7720"/>
<path opacity="0.3" d="M23.624 88.2935L18.2944 91.9402L23.3366 90.0243C23.2911 91.3736 22.951 92.6968 22.3403 93.9009C22.3403 93.9009 19.0097 95.5167 17.1992 97.2219L21.6346 95.8456C21.7736 96.6183 21.7265 97.413 21.4973 98.1639C21.4685 98.2661 21.4366 98.3714 21.4047 98.4832C21.1684 99.1921 20.8331 100.533 20.2647 102.124C19.7814 103.515 19.1677 104.858 18.4318 106.134C18.0647 106.76 17.6573 107.362 17.2119 107.935L17.1289 108.044C16.305 107.495 15.4535 106.962 14.5743 106.447C14.0474 105.106 13.4822 101.913 13.38 99.3582C12.9936 89.4591 20.798 84.3722 26.8907 82.9097C26.8907 82.9097 24.6618 85.3302 23.624 88.2935Z" fill="black"/>
<path d="M19.3643 88.4053C18.822 88.8901 18.3549 89.4529 17.9785 90.0753C17.6072 90.7008 17.2807 91.3517 17.0013 92.0232C16.4512 93.3675 16.0507 94.7682 15.8071 96.2C15.2869 99.0599 15.451 102.002 16.286 104.787C16.2971 104.823 16.2933 104.862 16.2756 104.895C16.258 104.928 16.2278 104.953 16.1918 104.964C16.1558 104.975 16.117 104.971 16.0837 104.954C16.0505 104.936 16.0256 104.906 16.0146 104.87C15.2155 102.036 15.0995 99.0525 15.6761 96.1649C15.9469 94.7288 16.3753 93.327 16.9534 91.9849C17.2431 91.3156 17.5803 90.6678 17.9625 90.0466C18.3468 89.4337 18.8191 88.8807 19.3643 88.4053Z" fill="#FAFAFA"/>
<path d="M0 93.4248C0.121344 93.5781 2.12352 96.1135 5.05813 101.018L10.1673 102.002L6.37056 102.551L8.30567 105.834L13.3255 107.034L9.35945 107.555C9.35945 107.555 10.3398 111.438 13.1147 113.13C14.6475 114.066 15.4043 114.223 15.8865 113.791C16.2058 113.491 16.3559 111.646 16.6784 110.007C17.0009 108.369 17.1063 105.687 15.6502 102.404C15.2541 101.525 14.7336 100.708 14.1046 99.9774C10.4963 95.7048 3.49343 93.4823 0 93.4248Z" fill="#EB7720"/>
<path opacity="0.15" d="M0 93.4248C0.121344 93.5781 2.12352 96.1135 5.05813 101.018L10.1673 102.002L6.37056 102.551L8.30567 105.834L13.3255 107.034L9.35945 107.555C9.35945 107.555 10.3398 111.438 13.1147 113.13C14.6475 114.066 15.4043 114.223 15.8865 113.791C16.2058 113.491 16.3559 111.646 16.6784 110.007C17.0009 108.369 17.1063 105.687 15.6502 102.404C15.2541 101.525 14.7336 100.708 14.1046 99.9774C10.4963 95.7048 3.49343 93.4823 0 93.4248Z" fill="black"/>
<path opacity="0.1" d="M14.574 104.094C15.1241 105.464 15.4767 106.906 15.6214 108.376C15.7257 110.232 15.7172 112.093 15.5959 113.948C15.7025 113.912 15.8011 113.856 15.8865 113.782C16.2058 113.482 16.3559 111.636 16.6784 109.998C17.0009 108.36 17.1063 105.678 15.6502 102.395C15.2541 101.516 14.7336 100.699 14.1046 99.9681C10.4963 95.6892 3.49343 93.4667 0 93.4092C5.33594 94.4534 10.9912 98.1991 13.7087 102.433C14.0448 102.961 14.3344 103.516 14.574 104.094Z" fill="black"/>
<path d="M5.31348 95.271C7.93514 96.5196 10.3972 98.1928 12.3067 100.425C13.2755 101.529 14.0634 102.779 14.641 104.129C15.2013 105.484 15.5347 106.922 15.6277 108.386C15.6253 108.387 15.6225 108.388 15.6197 108.388C15.6169 108.388 15.6142 108.387 15.6117 108.386C15.3822 106.956 14.9724 105.561 14.3919 104.234C13.816 102.915 13.0641 101.68 12.1566 100.562C11.2321 99.4482 10.1784 98.448 9.01766 97.5829C7.85358 96.7119 6.61392 95.9467 5.31348 95.2965C5.31348 95.2965 5.31348 95.2965 5.31348 95.2774V95.271Z" fill="#FAFAFA"/>
<path d="M31.8532 97.0688C31.4214 97.0428 30.9885 97.0428 30.5567 97.0688C28.8568 97.169 27.176 97.4801 25.5529 97.9948C24.9525 98.1832 24.3458 98.3972 23.7487 98.6335C23.4517 98.758 23.1547 98.8889 22.8609 99.0262C21.4095 99.6851 20.0779 100.581 18.9205 101.677C18.3822 102.203 17.9104 102.792 17.5154 103.433C17.4675 103.516 17.4132 103.599 17.3653 103.682C17.2408 103.899 17.129 104.116 17.0237 104.321C16.0385 106.17 15.5397 108.239 15.5739 110.334C15.5452 111.809 15.9539 113.527 16.2126 113.811C16.2477 113.851 16.2886 113.885 16.3339 113.913C16.7395 114.204 17.4164 114.086 18.7033 113.457C21.2803 112.198 22.4554 108.711 22.4554 108.711L19.0131 107.929L23.5251 107.29L25.4954 104.563L22.2063 103.778L26.7759 103.334C28.3386 101.148 30.0309 99.0584 31.8436 97.0752L31.8532 97.0688Z" fill="#EB7720"/>
<path opacity="0.05" d="M30.5567 97.0591C28.8568 97.1594 27.176 97.4704 25.5529 97.9852C24.9525 98.1736 24.3458 98.3875 23.7487 98.6238C23.4517 98.7484 23.1547 98.8793 22.8609 99.0166C21.4095 99.6754 20.0779 100.571 18.9205 101.667C18.3822 102.193 17.9104 102.783 17.5154 103.423C17.4675 103.506 17.4132 103.589 17.3653 103.672C17.2408 103.89 17.129 104.107 17.0237 104.311C16.0385 106.16 15.5397 108.229 15.5739 110.324C15.5452 111.799 15.9539 113.517 16.2126 113.801C16.2477 113.841 16.2886 113.876 16.3339 113.904C16.4159 113.96 16.5081 114 16.6053 114.022C16.4233 111.723 17.8667 105.997 19.6964 103.711C21.6124 101.332 25.9967 97.9628 31.8308 97.0527C31.4064 97.0293 30.9809 97.0314 30.5567 97.0591Z" fill="black"/>
</svg>
