<svg width="279" height="192" viewBox="0 0 279 192" fill="none" xmlns="http://www.w3.org/2000/svg">
<path d="M44.2645 183.936C53.1645 176.65 54.3156 164.406 53.0552 153.59C52.843 151.783 52.888 149.86 51.8848 148.342C50.8817 146.825 48.7596 145.905 47.1776 146.805C45.8915 147.551 45.4028 149.165 44.7468 150.522C43.865 152.345 42.4877 153.883 40.7727 154.959C39.6538 155.654 38.239 156.136 37.03 155.603C35.3774 154.869 35.0173 152.728 34.8822 150.927C34.625 147.571 34.372 144.212 34.1234 140.851C34.0811 139.04 33.7467 137.249 33.1331 135.545C32.4257 133.886 31.0431 132.401 29.2747 132.066C27.5063 131.732 25.4163 132.89 25.2105 134.684C25.2022 135.436 25.2452 136.188 25.3391 136.934C25.3757 137.308 25.3027 137.683 25.1291 138.016C24.9555 138.348 24.6888 138.623 24.3617 138.806C23.6543 139.076 22.8826 138.626 22.291 138.163C20.2589 136.504 18.7863 134.266 17.4037 132.034C16.0211 129.803 14.6642 127.533 12.7929 125.668C10.9216 123.803 8.42651 122.453 5.8028 122.517C3.17909 122.581 0.523233 124.414 0.0730875 127.018C-0.377058 129.623 1.32706 132.066 3.12765 133.983C5.80941 136.814 8.88481 139.244 12.2592 141.198C12.9058 141.486 13.4441 141.973 13.7961 142.587C14.2913 143.757 13.2366 145.043 12.0727 145.539C10.748 146.098 9.25606 146.079 7.84775 146.362C6.43943 146.645 4.94752 147.391 4.51667 148.76C3.92505 150.69 5.64203 152.464 7.27542 153.603C10.5671 155.882 14.2226 157.585 18.0853 158.638C19.4679 159.011 20.9148 159.319 22.0723 160.162C23.2299 161.004 24.0015 162.567 23.4678 163.892C22.9341 165.216 21.2749 165.757 19.8473 165.615C18.4197 165.474 17.1015 164.824 15.7189 164.438C13.1466 163.712 9.93128 164.149 8.47795 166.419C8.0482 167.193 7.80626 168.057 7.77163 168.942C7.73701 169.826 7.91066 170.707 8.2786 171.512C9.02714 173.113 10.09 174.548 11.4039 175.73C15.781 180.126 21.2433 183.286 27.2362 184.888C33.2167 186.399 38.6506 186.495 44.2645 183.936Z" fill="#EB7720" fill-opacity="0.26"/>
<path d="M45.0425 191.968C44.1181 186.98 42.7118 182.093 40.8433 177.377C38.5344 171.616 35.8912 165.994 32.9272 160.541L30.6057 156.246C29.8469 154.831 29.0945 153.429 28.2714 152.104C26.6939 149.565 24.9764 147.115 23.1268 144.767C21.3713 142.51 19.6157 140.426 17.9823 138.497C16.3489 136.568 14.767 134.799 13.2429 133.243C10.8714 130.783 8.31058 128.512 5.58402 126.452C4.61943 125.719 3.84775 125.166 3.32687 124.819L2.72881 124.407C2.66052 124.361 2.58967 124.318 2.5166 124.279C2.5166 124.279 2.58091 124.337 2.70952 124.433L3.29471 124.864C3.80916 125.237 4.58084 125.79 5.51972 126.536C8.21511 128.623 10.7495 130.91 13.1015 133.378C14.5998 134.934 16.1689 136.709 17.8151 138.645C19.4614 140.581 21.1976 142.664 22.9596 144.921C24.8086 147.266 26.5261 149.711 28.1042 152.246C28.9209 153.564 29.6668 154.959 30.4256 156.374L32.7278 160.676C35.6672 166.122 38.2993 171.727 40.6118 177.467C42.4825 182.166 43.9036 187.032 44.856 192" fill="#EB7720" fill-opacity="0.79"/>
<path d="M28.2197 152.072C28.28 151.815 28.3145 151.552 28.3225 151.288C28.374 150.786 28.4254 150.047 28.4769 149.14C28.5862 147.326 28.6505 144.818 28.7148 142.066C28.7791 139.314 28.882 136.793 29.0299 134.992C29.0942 134.086 29.165 133.359 29.2164 132.851C29.2539 132.591 29.2711 132.329 29.2678 132.066C29.1884 132.318 29.1345 132.576 29.1071 132.838C29.0235 133.34 28.927 134.073 28.837 134.973C28.6376 136.787 28.5026 139.294 28.4383 142.047C28.374 144.799 28.329 147.275 28.2904 149.121C28.2582 149.989 28.2389 150.715 28.2197 151.268C28.1937 151.536 28.1937 151.805 28.2197 152.072Z" fill="#EB7720" fill-opacity="0.79"/>
<path d="M4.40747 149.68H4.65184H5.35278C5.95726 149.68 6.83183 149.68 7.92504 149.712C10.0922 149.757 13.0696 149.924 16.3813 150.265C19.6931 150.606 22.6384 151.043 24.7733 151.423C25.8408 151.609 26.7025 151.776 27.3006 151.892L27.9822 152.027C28.143 152.027 28.2266 152.066 28.2266 152.027C28.1542 151.989 28.076 151.963 27.9951 151.95L27.3199 151.763C26.7347 151.616 25.873 151.416 24.8055 151.21C22.677 150.78 19.706 150.31 16.4071 149.963C13.1081 149.616 10.105 149.487 7.92504 149.493C6.83826 149.493 5.99584 149.493 5.35278 149.551L4.65827 149.596C4.57079 149.611 4.48615 149.639 4.40747 149.68Z" fill="#EB7720" fill-opacity="0.79"/>
<path d="M40.5476 176.965C40.5982 176.867 40.6412 176.766 40.6762 176.663C40.7663 176.437 40.8691 176.148 41.0042 175.794C41.2871 175.036 41.6473 173.923 42.1231 172.579C43.0298 169.833 44.1681 166.001 45.377 161.75C46.586 157.499 47.6856 153.667 48.5473 150.908C48.9782 149.557 49.3254 148.451 49.5827 147.641C49.6984 147.281 49.7885 146.998 49.8592 146.754C49.8987 146.652 49.9267 146.546 49.9428 146.438C49.8854 146.531 49.8401 146.63 49.8077 146.734C49.7241 146.966 49.6148 147.255 49.4798 147.609C49.1968 148.368 48.8367 149.474 48.3673 150.824C47.4541 153.57 46.3159 157.403 45.1134 161.653C43.9108 165.904 42.8241 169.75 41.9366 172.495C41.5122 173.846 41.1585 174.952 40.9077 175.756C40.792 176.122 40.7019 176.399 40.6248 176.65C40.5888 176.752 40.563 176.857 40.5476 176.965Z" fill="#EB7720" fill-opacity="0.79"/>
<path d="M8.56152 169.615C8.66112 169.663 8.76734 169.696 8.87662 169.712L9.80907 169.93L13.243 170.715C16.1368 171.358 20.1238 172.342 24.5288 173.422C28.9338 174.503 32.9273 175.441 35.8339 176.059C37.2872 176.367 38.4641 176.605 39.2808 176.753L40.2196 176.92C40.3295 176.946 40.4414 176.961 40.554 176.965C40.4518 176.919 40.3436 176.886 40.2325 176.869L39.3 176.65L35.8725 175.866C32.9787 175.223 28.9917 174.239 24.5931 173.159C20.1946 172.078 16.1947 171.139 13.2881 170.522C11.8347 170.213 10.6579 169.975 9.84122 169.827L8.89592 169.654C8.7857 169.632 8.67386 169.619 8.56152 169.615Z" fill="#EB7720" fill-opacity="0.79"/>
<path d="M128.744 0.182768L82.25 14.167L91.6759 45.5057L138.17 31.5215L128.744 0.182768Z" fill="white"/>
<path d="M138.178 31.4909C138.178 31.4909 138.107 31.2916 137.991 30.9186C137.876 30.5456 137.702 29.9797 137.477 29.2595C137.033 27.8061 136.377 25.6776 135.548 22.9639C133.889 17.5171 131.516 9.70386 128.622 0.192922L128.789 0.28295L82.3082 14.3211L82.424 14.1089L91.8385 45.4519L91.6456 45.349L125.136 35.3493L134.725 32.5134L137.297 31.761L137.94 31.5681L138.171 31.5102L137.966 31.5809L137.322 31.7867L134.802 32.5584L125.271 35.4715L91.7292 45.6383L91.5813 45.6834L91.5362 45.5354C88.6617 35.9859 85.4593 25.3689 82.096 14.1989L82.051 14.0381L82.2054 13.9931L128.705 0.0385823L128.834 0L128.873 0.128616C131.721 9.691 134.056 17.5428 135.689 23.0153C136.487 25.729 137.117 27.8512 137.541 29.3109C137.753 30.0183 137.908 30.5649 138.023 30.9507C138.139 31.3366 138.178 31.4909 138.178 31.4909Z" fill="#EB7720" fill-opacity="0.79"/>
<path d="M128.75 0.173946C128.733 0.222985 128.712 0.27034 128.686 0.315416L128.467 0.714118C128.255 1.08067 127.966 1.58869 127.606 2.23175L124.358 7.80713L113.465 26.2824L113.388 26.4046L113.259 26.3531L111.838 25.8065L90.8932 17.6332L84.559 15.1252L82.8485 14.4243L82.4047 14.2378C82.3517 14.2201 82.3017 14.194 82.2568 14.1606C82.3128 14.1655 82.3673 14.1807 82.4176 14.2056L82.8677 14.36L84.6104 15.003L90.9768 17.4145L111.954 25.4914L113.381 26.0445L113.175 26.1152C117.484 18.8807 121.355 12.3986 124.159 7.68495L127.496 2.16745C127.882 1.52438 128.191 1.04208 128.41 0.675536L128.66 0.296125C128.712 0.212527 128.744 0.167515 128.75 0.173946Z" fill="#EB7720" fill-opacity="0.79"/>
<path d="M264.039 125.379C264.039 125.379 261.023 122.395 255.145 129.848C252.064 133.621 249.234 137.593 246.676 141.738C246.676 141.738 245.21 143.256 244.245 141.88C243.281 140.503 242.284 136.954 240.136 137.134C237.988 137.314 236.753 139.526 236.464 143.056C236.175 146.587 235.268 154.31 235.178 155.005C235.088 155.699 234.535 156.606 233.705 155.776C232.876 154.947 228.702 147.886 225.455 150.059C222.207 152.233 223.03 162.226 223.101 163.313C223.172 164.4 222.876 164.811 222.336 164.966C221.796 165.12 220.606 162.612 219.326 160.651C218.047 158.689 216.227 156.625 214.465 158.046C212.703 159.467 210.832 166.458 215.282 179.3L217.732 185.087L224.001 185.981C237.551 187.068 243.853 183.512 244.785 181.447C245.718 179.383 243.274 178.136 241.049 177.39C238.824 176.644 236.098 176.104 236.117 175.557C236.136 175.01 236.451 174.612 237.525 174.406C238.599 174.2 248.457 172.477 249.743 168.805C251.03 165.133 243.152 162.831 242.142 162.252C241.133 161.673 241.879 160.882 242.522 160.631C243.165 160.381 250.419 157.558 253.769 156.4C257.119 155.242 258.965 153.558 258.586 151.358C258.206 149.159 254.534 149.166 252.959 148.567C251.383 147.969 252.489 146.182 252.489 146.182C255.877 142.675 259.028 138.948 261.923 135.025C267.666 127.462 263.923 125.256 263.923 125.256" fill="#EB7720" fill-opacity="0.26"/>
<path d="M258.74 132.015C258.711 132.072 258.677 132.126 258.637 132.176L258.309 132.639C258 133.051 257.569 133.636 257.023 134.382C255.897 135.893 254.258 138.066 252.213 140.742C248.129 146.092 242.419 153.436 236.078 161.513L219.86 182.226L214.966 188.521L213.629 190.225L213.275 190.663C213.192 190.759 213.153 190.811 213.146 190.804C213.175 190.747 213.21 190.693 213.249 190.643L213.577 190.187L214.863 188.438C215.982 186.927 217.629 184.753 219.667 182.078C223.751 176.728 229.467 169.384 235.815 161.307C242.162 153.23 247.866 145.912 252.026 140.594C254.078 137.951 255.75 135.809 256.92 134.304C257.486 133.578 257.936 133.018 258.251 132.594L258.611 132.157C258.688 132.06 258.733 132.009 258.74 132.015Z" fill="#EB7720" fill-opacity="0.79"/>
<path d="M241.332 142.156C241.471 142.708 241.551 143.273 241.569 143.841C241.666 144.883 241.75 146.33 241.807 147.931C241.865 149.532 241.891 150.857 241.923 152.021C241.971 152.586 241.971 153.154 241.923 153.719C241.784 153.167 241.706 152.602 241.692 152.034C241.608 150.986 241.537 149.539 241.479 147.944C241.422 146.349 241.383 145.018 241.338 143.854C241.287 143.289 241.285 142.721 241.332 142.156Z" fill="#EB7720" fill-opacity="0.79"/>
<path d="M242.464 153.943C244.664 153.588 246.881 153.346 249.107 153.217C252.779 152.915 255.769 152.741 255.775 152.831C253.575 153.183 251.357 153.423 249.132 153.551C245.461 153.86 242.477 154.033 242.464 153.943Z" fill="#EB7720" fill-opacity="0.79"/>
<path d="M231.795 166.341C232.372 166.386 232.944 166.478 233.505 166.618C234.56 166.817 236.007 167.094 237.615 167.351C239.222 167.608 240.682 167.801 241.743 167.936C242.322 167.982 242.896 168.075 243.46 168.213C242.882 168.262 242.3 168.249 241.724 168.174C240.65 168.097 239.152 167.943 237.563 167.679C235.975 167.415 234.496 167.107 233.454 166.849C232.884 166.74 232.328 166.57 231.795 166.341Z" fill="#EB7720" fill-opacity="0.79"/>
<path d="M228.426 155.912C228.692 156.378 228.908 156.872 229.069 157.384C229.409 158.317 229.866 159.603 230.355 161.03C230.843 162.458 231.255 163.757 231.544 164.709C231.726 165.212 231.859 165.731 231.943 166.259C231.672 165.792 231.456 165.296 231.3 164.779C230.953 163.853 230.503 162.567 230.014 161.14C229.525 159.712 229.114 158.407 228.824 157.461C228.635 156.961 228.502 156.441 228.426 155.912Z" fill="#EB7720" fill-opacity="0.79"/>
<path d="M217.615 165.66C217.925 166.272 218.187 166.906 218.4 167.557C218.843 168.747 219.435 170.393 220.072 172.219C220.708 174.046 221.261 175.705 221.654 176.907C221.896 177.551 222.083 178.213 222.213 178.888C221.898 178.268 221.636 177.623 221.429 176.959C220.985 175.776 220.393 174.129 219.757 172.303C219.12 170.477 218.561 168.818 218.175 167.609C217.934 166.976 217.747 166.324 217.615 165.66Z" fill="#EB7720" fill-opacity="0.79"/>
<path d="M222.194 178.541C222.927 178.582 223.655 178.677 224.374 178.823C225.712 179.036 227.589 179.325 229.615 179.595C231.641 179.865 233.525 180.071 234.869 180.238C235.601 180.286 236.329 180.383 237.049 180.528C236.316 180.572 235.58 180.555 234.85 180.476C233.493 180.386 231.634 180.219 229.57 179.942C227.506 179.666 225.66 179.344 224.329 179.081C223.604 178.959 222.89 178.778 222.194 178.541Z" fill="#EB7720" fill-opacity="0.79"/>
<path d="M235.654 62.1088L234.13 111.981L270.575 113.094L272.098 63.2223L235.654 62.1088Z" fill="#F5F5F5"/>
<path d="M228.944 68.7387L227.42 118.611L263.865 119.724L265.388 69.8522L228.944 68.7387Z" fill="white"/>
<path d="M263.858 119.713C263.854 119.631 263.854 119.55 263.858 119.469C263.858 119.301 263.858 119.07 263.858 118.768C263.858 118.125 263.891 117.224 263.923 116.041C263.987 113.655 264.077 110.189 264.193 105.797C264.444 97.0191 264.797 84.5758 265.215 69.8432L265.363 69.9975L228.921 68.8979L229.094 68.7371C228.509 87.386 227.975 104.614 227.538 118.607L227.403 118.465L253.872 119.346L261.235 119.604L263.164 119.681L263.839 119.713H263.196L261.267 119.668L253.936 119.481L227.384 118.742H227.249V118.607C227.667 104.607 228.181 87.3603 228.741 68.7307V68.5635H228.914L265.35 69.6953H265.505V69.8496C265.022 84.6401 264.617 97.1027 264.328 105.9C264.18 110.273 264.058 113.732 263.981 116.105C263.936 117.276 263.903 118.176 263.878 118.8C263.878 119.096 263.878 119.327 263.846 119.488C263.813 119.649 263.858 119.713 263.858 119.713Z" fill="#EB7720" fill-opacity="0.79"/>
<path d="M251.178 80.274C251.178 80.3704 247.21 80.319 242.323 80.1711C237.435 80.0232 233.468 79.8238 233.468 79.7338C233.468 79.6438 237.442 79.6888 242.329 79.8367C247.217 79.9846 251.178 80.1839 251.178 80.274Z" fill="#EB7720" fill-opacity="0.79"/>
<path d="M260.592 84.9037C260.592 84.9938 254.483 84.9037 246.946 84.653C239.409 84.4022 233.3 84.1578 233.307 84.0678C233.313 83.9777 239.416 84.0678 246.959 84.3186C254.502 84.5694 260.598 84.8073 260.592 84.9037Z" fill="#EB7720" fill-opacity="0.79"/>
<path d="M260.457 89.4247C260.457 89.5148 254.341 89.4247 246.804 89.1739C239.268 88.9232 233.165 88.6788 233.165 88.5888C233.165 88.4987 239.281 88.5888 246.817 88.8396C254.354 89.0903 260.457 89.3283 260.457 89.4247Z" fill="#EB7720" fill-opacity="0.79"/>
<path d="M260.316 93.9452C260.316 94.0353 254.206 93.9453 246.67 93.6945C239.133 93.4437 233.03 93.1993 233.03 93.1093C233.03 93.0192 239.146 93.1093 246.683 93.3601C254.219 93.6108 260.322 93.8681 260.316 93.9452Z" fill="#EB7720" fill-opacity="0.79"/>
<path d="M260.18 98.4662C260.18 98.5563 254.065 98.4662 246.535 98.2155C239.004 97.9647 232.889 97.7203 232.889 97.6303C232.889 97.5402 239.004 97.6303 246.541 97.881C254.078 98.1318 260.18 98.3698 260.18 98.4662Z" fill="#EB7720" fill-opacity="0.79"/>
<path d="M260.045 102.987C260.045 103.077 253.929 102.987 246.392 102.736C238.856 102.485 232.753 102.241 232.753 102.151C232.753 102.061 238.868 102.151 246.405 102.402C253.942 102.652 260.045 102.871 260.045 102.987Z" fill="#EB7720" fill-opacity="0.79"/>
<path d="M259.903 107.508C259.903 107.598 253.788 107.508 246.258 107.257C238.727 107.006 232.612 106.762 232.618 106.672C232.625 106.582 238.727 106.672 246.264 106.923C253.801 107.173 259.91 107.411 259.903 107.508Z" fill="#EB7720" fill-opacity="0.79"/>
<path d="M247.145 111.643C247.145 111.733 243.859 111.707 239.808 111.585C235.756 111.462 232.477 111.282 232.477 111.192C232.477 111.102 235.763 111.128 239.814 111.25C243.865 111.372 247.145 111.546 247.145 111.643Z" fill="#EB7720" fill-opacity="0.79"/>
<path d="M155.91 23.1096L144.506 51.7515L180.329 66.0145L191.733 37.3727L155.91 23.1096Z" fill="white"/>
<path d="M191.726 37.3748L191.553 37.3105L191.051 37.1175L189.122 36.3459L181.772 33.4199L155.882 23.1309L155.959 23.0987L144.564 51.7344L144.525 51.6444L180.344 65.9204H180.273C183.72 57.2905 186.582 50.1396 188.575 45.143C189.578 42.6479 190.363 40.6866 190.897 39.3554L191.54 37.8313L191.752 37.304L191.553 37.8249C191.418 38.1722 191.218 38.6802 190.955 39.3426C190.427 40.6801 189.669 42.6415 188.665 45.1301C186.678 50.1332 183.829 57.3034 180.402 65.9526V66.004H180.35L144.48 51.8116H144.416V51.7473C148.538 41.4068 152.429 31.6322 155.824 23.1116V23.0537H155.875L181.83 33.4199L189.141 36.3523L191.07 37.124L191.566 37.3233L191.726 37.3748Z" fill="#EB7720" fill-opacity="0.79"/>
<path d="M156.399 25.436L146.432 50.4692L179.74 63.7308L189.707 38.6976L156.399 25.436Z" fill="#EB7720" fill-opacity="0.26"/>
<path d="M146.563 50.5449L164.396 39.6128L167.727 52.2169L174.685 48.963L179.874 63.8049L146.563 50.5449Z" fill="#EB7720" fill-opacity="0.79"/>
<path d="M175.418 41.7796C175.211 42.2985 174.855 42.7445 174.395 43.0611C173.935 43.3778 173.392 43.5509 172.833 43.5584C172.275 43.566 171.726 43.4078 171.258 43.1038C170.789 42.7997 170.422 42.3636 170.201 41.8505C169.981 41.3373 169.917 40.7703 170.019 40.2212C170.121 39.672 170.383 39.1654 170.773 38.7654C171.163 38.3654 171.662 38.09 172.209 37.9741C172.755 37.8582 173.324 37.9069 173.842 38.1141C174.187 38.2508 174.501 38.4542 174.767 38.7126C175.032 38.971 175.244 39.2793 175.391 39.6198C175.537 39.9603 175.615 40.3264 175.62 40.697C175.624 41.0676 175.556 41.4355 175.418 41.7796Z" fill="#EB7720" fill-opacity="0.79"/>
<path d="M63.6918 81.5596C63.9339 81.6595 64.196 81.7013 64.4571 81.6818C64.77 81.6459 65.0609 81.5028 65.2802 81.2767C65.5346 80.9245 65.7604 80.5525 65.9554 80.1642L70.1289 72.8847L71.5179 70.4796L72.2575 69.1935C72.3862 68.9886 72.498 68.7735 72.5919 68.5504C72.6595 68.3282 72.6595 68.091 72.5919 67.8688C72.534 67.6401 72.4058 67.4354 72.2253 67.2836C72.0193 67.1377 71.8045 67.0046 71.5822 66.8849L70.1482 66.0875L67.1644 64.4155L53.8787 56.9624C53.6166 56.8222 53.3118 56.7841 53.0233 56.8553C52.7347 56.9266 52.4827 57.1022 52.316 57.3482L51.3193 59.0588C50.6762 60.1906 50.0331 61.3159 49.3901 62.4156L45.6603 68.7884C45.5124 69.0392 45.3645 69.2899 45.223 69.5407C45.0797 69.758 45.0057 70.0136 45.0108 70.2738C45.0209 70.5278 45.1135 70.7716 45.2744 70.9683C45.4571 71.1576 45.6757 71.3085 45.9175 71.4121L48.7277 73.0069L53.7565 75.8621L61.036 80.0227L63.0102 81.1674L63.5182 81.4696C63.6339 81.5403 63.6918 81.5789 63.6854 81.5854L63.5053 81.5018L62.978 81.2252L60.9781 80.132L53.6407 76.0679L48.612 73.2191L45.7953 71.6436C45.5224 71.5231 45.2756 71.3505 45.0687 71.1355C44.8677 70.8871 44.7527 70.5803 44.7407 70.261C44.7269 69.9428 44.8123 69.6282 44.9851 69.3607C45.1265 69.1099 45.2744 68.8591 45.4223 68.6083L49.1071 62.2484L51.0363 58.8916L52.0459 57.1617C52.2588 56.8462 52.5812 56.6209 52.9506 56.5294C53.3201 56.438 53.7104 56.4868 54.0458 56.6666L67.3187 64.1454L70.3025 65.8303L71.7237 66.6405C71.9691 66.7653 72.2055 66.9071 72.4311 67.0649C72.6553 67.2563 72.8148 67.5124 72.8877 67.798C72.9649 68.0714 72.9649 68.3607 72.8877 68.634C72.7852 68.8774 72.6626 69.1119 72.5211 69.335L71.7687 70.6211L70.3668 73.0197C68.5727 76.055 67.1194 78.5179 66.1033 80.2478C65.8924 80.6367 65.6516 81.0086 65.3831 81.3603C65.1437 81.5949 64.8297 81.7382 64.4957 81.7654C64.2936 81.7803 64.0909 81.7473 63.904 81.669C63.8286 81.6425 63.7572 81.6057 63.6918 81.5596Z" fill="#EB7720" fill-opacity="0.79"/>
<path d="M60.2961 68.377L61.9166 71.2515L58.5727 71.3158L55.2288 71.3737L56.9522 68.4349L58.6756 65.4961L60.2961 68.377Z" fill="#EB7720" fill-opacity="0.79"/>
<path d="M278.379 190.971C278.379 191.068 216.87 191.145 141.021 191.145C65.1711 191.145 3.64258 191.08 3.64258 190.971C3.64258 190.862 65.1389 190.791 141.021 190.791C216.902 190.791 278.379 190.887 278.379 190.971Z" fill="#263238"/>
<path d="M71.6397 150.13L52.2256 130.626L61.9873 112.697C71.749 100.196 92.4172 101 92.4172 101C102.614 100.307 112.857 100.936 122.892 102.871C139.309 106.086 137.985 116.929 137.985 116.929L140.184 157.165L142.544 189.929L81.9995 191.151L71.6397 150.156" fill="#EB7720"/>
<path d="M104.257 189.235L50.0269 189.878C47.0395 189.913 44.0923 189.188 41.4621 187.771C38.8319 186.354 36.605 184.291 34.9906 181.778C33.3762 179.264 32.4272 176.381 32.2329 173.399C32.0385 170.418 32.6052 167.436 33.8796 164.734L57.0685 121.732L78.1932 136.008L63.7821 165.892L107.678 166.676L104.257 189.235Z" fill="#EB7720"/>
<path d="M136.069 110.37L179.586 177.557L154.197 179.216C154.197 179.216 139.034 155.326 139.375 155.815C139.979 156.715 136.069 110.37 136.069 110.37Z" fill="#EB7720"/>
<path d="M77.0999 139.873C77.1014 139.755 77.121 139.638 77.1577 139.526C77.2221 139.269 77.2928 138.947 77.3892 138.549C77.5886 137.706 77.8844 136.485 78.1867 134.967C78.4889 133.449 78.8297 131.623 79.0419 129.591C79.3031 127.389 79.3031 125.163 79.0419 122.961C78.693 120.777 77.9313 118.68 76.7976 116.781C75.8865 115.218 74.8084 113.758 73.5823 112.427C72.7559 111.518 71.8754 110.659 70.9457 109.855C70.5913 109.578 70.2522 109.282 69.9297 108.968C70.0344 109.02 70.1335 109.082 70.2255 109.154C70.4056 109.289 70.6949 109.476 71.0293 109.752C71.9963 110.516 72.9075 111.348 73.7559 112.241C75.0234 113.562 76.1367 115.022 77.0741 116.595C78.2477 118.523 79.0341 120.661 79.3892 122.89C79.6438 125.12 79.6265 127.372 79.3377 129.597C79.1206 131.408 78.8115 133.207 78.4117 134.986C78.0773 136.51 77.7687 137.726 77.505 138.562C77.3892 138.98 77.2864 139.301 77.2156 139.52C77.1885 139.641 77.1498 139.76 77.0999 139.873Z" fill="#263238"/>
<path d="M75.351 142.188C75.2582 142.523 75.1332 142.849 74.978 143.159C74.7208 143.803 74.3349 144.664 73.8398 145.732C72.8559 147.912 71.4604 150.908 69.8528 154.188C68.2451 157.468 66.7275 160.406 65.6021 162.548C65.0362 163.603 64.5732 164.477 64.2453 165.037C64.0887 165.348 63.9081 165.647 63.7051 165.93C63.8206 165.602 63.9625 165.284 64.1295 164.979C64.4575 164.336 64.8819 163.474 65.4156 162.439L69.5763 154.079C71.1518 150.818 72.5858 147.873 73.6533 145.667C74.1549 144.632 74.5665 143.77 74.888 143.095C75.0167 142.781 75.1716 142.477 75.351 142.188Z" fill="#263238"/>
<path d="M104.256 189.235C104.256 189.235 104.256 189.196 104.256 189.125C104.256 189.055 104.256 188.926 104.256 188.791C104.289 188.482 104.334 188.051 104.385 187.505C104.514 186.36 104.694 184.733 104.919 182.682C105.395 178.521 106.076 172.669 106.848 165.769L107.002 165.936H90.9836L63.0038 165.891L54.5153 165.84L52.2067 165.808H51.6023H51.3965C51.4648 165.8 51.5339 165.8 51.6023 165.808H52.2067L54.5153 165.776L63.0038 165.724L91.0286 165.679H107.047H107.221V165.846C106.372 172.74 105.658 178.592 105.144 182.746C104.887 184.791 104.674 186.418 104.501 187.563C104.432 188.103 104.374 188.532 104.327 188.849L104.276 189.177C104.269 189.196 104.263 189.235 104.256 189.235Z" fill="#263238"/>
<path d="M64.1609 166.368C63.7725 165.939 63.4117 165.485 63.0806 165.011C61.3475 162.835 59.2014 161.023 56.7657 159.68C56.2455 159.428 55.7389 159.149 55.248 158.844C55.8189 158.977 56.367 159.194 56.875 159.487C59.4118 160.74 61.6056 162.592 63.2671 164.882C63.6322 165.334 63.933 165.834 64.1609 166.368Z" fill="#263238"/>
<path d="M141.085 170.625C141.038 170.442 141.008 170.254 140.995 170.065C140.95 169.673 140.892 169.139 140.815 168.464C140.667 167.075 140.467 165.062 140.255 162.574C139.811 157.59 139.303 150.696 138.853 143.082C138.403 135.468 138.088 128.562 137.908 123.565C137.818 121.064 137.754 119.064 137.728 117.643C137.728 116.967 137.728 116.434 137.696 116.035C137.686 115.849 137.686 115.662 137.696 115.476C137.731 115.66 137.751 115.847 137.754 116.035C137.754 116.427 137.805 116.967 137.844 117.643C137.914 119.07 138.011 121.083 138.133 123.552C138.371 128.549 138.725 135.443 139.175 143.063C139.625 150.683 140.101 157.564 140.461 162.554C140.654 165.017 140.808 167.056 140.918 168.458C140.969 169.101 141.008 169.667 141.04 170.059C141.072 170.246 141.087 170.435 141.085 170.625Z" fill="#263238"/>
<path d="M92.6753 134.066C92.6781 133.771 92.7018 133.477 92.7461 133.185C92.8232 132.574 92.9197 131.758 93.0419 130.754C93.3248 128.632 93.6849 125.726 94.1608 122.356L94.4052 122.51L90.2445 125.423L86.0132 128.369L85.7109 128.581L85.7624 128.214C86.2768 124.877 86.7141 121.996 87.0485 119.854C87.2157 118.871 87.3443 118.06 87.4472 117.456C87.4817 117.166 87.542 116.88 87.6273 116.601C87.6277 116.894 87.6019 117.187 87.5501 117.475C87.4729 118.08 87.3765 118.89 87.2479 119.887C86.9585 121.996 86.5534 124.883 86.0903 128.246L85.846 128.092L90.0709 125.134L94.238 122.234L94.5402 122.022L94.4888 122.388C93.9936 125.745 93.5628 128.652 93.2541 130.748C93.0933 131.745 92.9647 132.561 92.8683 133.166C92.831 133.471 92.7664 133.773 92.6753 134.066Z" fill="#EB7720" fill-opacity="0.79"/>
<path d="M116.879 136.671C116.648 136.486 116.432 136.282 116.236 136.06C115.818 135.61 115.252 135.012 114.558 134.279L108.815 128.054L109.092 127.957C108.957 129.533 108.815 131.243 108.667 133.018C108.52 134.793 108.365 136.555 108.23 138.163L108.198 138.536L107.954 138.259L102.365 131.957L100.771 130.118C100.568 129.908 100.387 129.677 100.23 129.43C100.462 129.627 100.677 129.842 100.874 130.073L102.533 131.848L108.204 138.066L107.928 138.163C108.063 136.562 108.204 134.825 108.359 133.018C108.513 131.211 108.655 129.533 108.79 127.957L108.822 127.591L109.066 127.861L114.725 134.169L116.339 136.015C116.536 136.219 116.717 136.438 116.879 136.671Z" fill="#EB7720" fill-opacity="0.79"/>
<path d="M129.06 135.809C128.94 136.08 128.793 136.339 128.622 136.581L127.336 138.651L122.745 145.777L122.59 145.532L127.581 144.671L132.661 143.815L133.027 143.751L132.854 144.027L128.159 151.011L126.745 153.03C126.588 153.278 126.411 153.512 126.217 153.731C126.344 153.468 126.49 153.214 126.655 152.972L127.941 150.915L132.539 143.841L132.699 144.085L127.619 144.966L122.61 145.815L122.243 145.873L122.449 145.571L127.137 138.497L128.513 136.471C128.682 136.24 128.864 136.019 129.06 135.809Z" fill="#EB7720" fill-opacity="0.79"/>
<path d="M112.86 148.271C112.739 148.54 112.593 148.796 112.423 149.037L111.137 151.114L106.552 158.233L106.391 157.988L111.394 157.126L116.481 156.265L116.847 156.207L116.635 156.509L111.941 163.499L110.558 165.506C110.405 165.753 110.228 165.986 110.031 166.2C110.159 165.938 110.306 165.684 110.468 165.441C110.802 164.927 111.24 164.239 111.754 163.39L116.352 156.316L116.513 156.561L111.433 157.442L106.423 158.284L106.057 158.348L106.262 158.04L110.95 150.966C111.516 150.13 111.979 149.448 112.333 148.94C112.492 148.705 112.669 148.481 112.86 148.271Z" fill="#EB7720" fill-opacity="0.79"/>
<path d="M147.863 135.668C147.735 135.933 147.589 136.189 147.426 136.433L146.14 138.51L141.555 145.629L141.394 145.385L146.397 144.523L151.483 143.661L151.85 143.603L151.644 143.906L146.943 150.896C146.378 151.719 145.915 152.394 145.561 152.896C145.409 153.146 145.232 153.381 145.034 153.597C145.163 153.333 145.312 153.08 145.477 152.838L146.763 150.786L151.361 143.713L151.522 143.957L146.442 144.832L141.432 145.68L141.072 145.745L141.272 145.436L145.96 138.362L147.342 136.337C147.494 136.097 147.668 135.873 147.863 135.668Z" fill="#EB7720" fill-opacity="0.79"/>
<path d="M168.055 168.04C167.825 167.865 167.61 167.671 167.412 167.461L165.65 165.763L159.598 159.834L159.868 159.725C159.817 161.307 159.766 163.017 159.708 164.799C159.65 166.58 159.579 168.348 159.521 169.943V170.316L159.258 170.052L153.367 164.04L151.682 162.284C151.473 162.085 151.279 161.87 151.104 161.641C151.333 161.817 151.548 162.011 151.747 162.22L153.496 163.911L159.476 169.84L159.2 169.95C159.251 168.342 159.309 166.606 159.367 164.805C159.425 163.004 159.496 161.313 159.553 159.731V159.365L159.811 159.622L165.772 165.641L167.476 167.403C167.686 167.599 167.88 167.812 168.055 168.04Z" fill="#EB7720" fill-opacity="0.79"/>
<path d="M65.904 125.34C65.7782 125.606 65.632 125.862 65.4668 126.106L64.1806 128.183L59.5956 135.308L59.4348 135.063L64.4379 134.195L69.5245 133.34L69.8911 133.276L69.6853 133.584L64.9845 140.568L63.6083 142.574C63.4521 142.82 63.2757 143.053 63.081 143.269C63.2042 143.006 63.3506 142.754 63.5183 142.517L64.8044 140.459C65.9684 138.678 67.5632 136.234 69.4023 133.385L69.5631 133.629L64.4829 134.51L59.4734 135.359L59.1133 135.417L59.3126 135.115C61.1968 132.285 62.8173 129.842 64.0006 128.041L65.3832 126.016C65.5388 125.777 65.7129 125.551 65.904 125.34Z" fill="#EB7720" fill-opacity="0.79"/>
<path d="M40.4775 173.429C40.6942 173.624 40.8923 173.839 41.0692 174.072L42.6382 175.956L47.9693 182.534L47.6863 182.612C47.9178 181.049 48.1622 179.351 48.4258 177.583C48.6895 175.814 48.9467 174.072 49.1846 172.483L49.2361 172.117L49.4676 172.413L54.6507 179.049L56.1233 180.978C56.3104 181.201 56.4782 181.44 56.6249 181.692C56.4137 181.493 56.2181 181.278 56.0397 181.049L54.4964 179.171L49.2554 172.605L49.5383 172.535C49.3068 174.123 49.056 175.846 48.7924 177.634C48.5287 179.422 48.2779 181.094 48.04 182.657L47.9885 183.023L47.757 182.734L42.5096 176.084L41.0113 174.155C40.8172 173.925 40.6389 173.682 40.4775 173.429Z" fill="#EB7720" fill-opacity="0.79"/>
<path d="M98.5457 142.292C98.2577 142.353 97.9653 142.392 97.6711 142.407L95.2275 142.62L86.7776 143.263L86.8805 142.992L90.5846 146.465L94.3336 150.002L94.6037 150.259H94.2307L85.8259 150.722L83.3951 150.825C83.1041 150.85 82.8115 150.85 82.5205 150.825C82.8069 150.768 83.097 150.731 83.3886 150.716L85.813 150.523L94.2114 149.944L94.115 150.214L90.353 146.69L86.6618 143.205L86.3918 142.947H86.7583L95.2146 142.439L97.6583 142.317C97.953 142.286 98.2497 142.278 98.5457 142.292Z" fill="#EB7720" fill-opacity="0.79"/>
<path d="M84.2957 174.702C84.5102 174.903 84.7121 175.118 84.9001 175.345L86.5014 177.197L91.9738 183.666L91.6909 183.743C91.8903 182.174 92.1089 180.476 92.334 178.708C92.559 176.94 92.7905 175.184 92.977 173.596L93.0285 173.223L93.26 173.512L98.5846 180.039L100.096 181.968C100.283 182.192 100.455 182.429 100.61 182.676C100.393 182.478 100.193 182.263 100.012 182.033L98.4302 180.187L93.0285 173.756L93.305 173.673C93.1056 175.268 92.887 176.991 92.6619 178.785C92.4369 180.579 92.2118 182.258 92.0189 183.827L91.9674 184.193L91.7359 183.91L86.3535 177.364L84.823 175.435C84.6235 175.208 84.4468 174.963 84.2957 174.702Z" fill="#EB7720" fill-opacity="0.79"/>
<path d="M58.8239 150.934C58.5362 150.997 58.2436 151.036 57.9494 151.05L55.5121 151.256L47.0623 151.899L47.1587 151.622L50.8692 155.101L54.6183 158.638L54.8884 158.895H54.5154L46.1105 159.358L43.6797 159.461C43.3952 159.485 43.109 159.485 42.8245 159.461C43.1101 159.4 43.4006 159.363 43.6926 159.352L46.117 159.159L54.5154 158.574L54.4189 158.85L50.657 155.326L46.9594 151.841L46.6957 151.584H47.0623L55.5186 151.069L57.9622 150.954C58.2486 150.926 58.5366 150.919 58.8239 150.934Z" fill="#EB7720" fill-opacity="0.79"/>
<path d="M80.7078 173.975C80.4199 174.036 80.1273 174.073 79.8332 174.084L77.3896 174.297L68.9397 174.94L69.0426 174.663L72.7467 178.142L76.4957 181.679L76.7658 181.936H76.3993L67.988 182.393L65.5572 182.502C65.2662 182.527 64.9736 182.527 64.6826 182.502C64.9683 182.441 65.2587 182.404 65.5507 182.393L67.9751 182.2L76.3735 181.615L76.2771 181.891L72.5151 178.367L68.8239 174.895L68.5539 174.644H68.9204L77.3767 174.129L79.8268 174.014C80.1187 173.974 80.4136 173.961 80.7078 173.975Z" fill="#EB7720" fill-opacity="0.79"/>
<path d="M130.101 115.353C129.813 115.415 129.521 115.454 129.227 115.469L126.783 115.675L118.339 116.318L118.436 116.048L122.14 119.52L125.889 123.057L126.159 123.314H125.793L117.381 123.777L114.95 123.88C114.66 123.905 114.367 123.905 114.076 123.88C114.362 123.819 114.652 123.782 114.944 123.771L117.368 123.578L125.773 122.999L125.67 123.269L121.921 119.752L118.23 116.266L117.96 116.009H118.327L126.783 115.495L129.233 115.379C129.521 115.349 129.811 115.34 130.101 115.353Z" fill="#EB7720" fill-opacity="0.79"/>
<path d="M106.077 173.975C106.077 173.975 116.893 170.856 120.475 169.943C121.87 169.589 127.844 172.74 131.973 175.364C131.973 175.364 137.658 178.734 137.201 179.769C136.693 180.914 134.629 180.682 131.253 179.126C131.253 179.126 132.423 182.515 130.127 182.438C130.127 182.438 131.265 186.103 129.118 186.482C126.97 186.862 126.468 182.187 124.578 181.936C122.687 181.685 118.79 181.428 118.79 181.428C118.79 181.428 115.53 186.83 113.002 187.216C110.475 187.601 104.643 186.913 104.643 186.913L106.077 173.975Z" fill="#FFBE9D"/>
<path d="M124.538 174.721C125.597 175.193 126.609 175.763 127.56 176.425C128.57 176.996 129.522 177.664 130.403 178.419C128.332 177.381 126.367 176.143 124.538 174.721Z" fill="#EB996E"/>
<path d="M123.902 176.824C125.138 177.213 126.338 177.706 127.491 178.297C128.682 178.781 129.831 179.364 130.925 180.04C129.689 179.655 128.488 179.164 127.336 178.573C126.143 178.092 124.994 177.506 123.902 176.824Z" fill="#EB996E"/>
<path d="M125.06 181.846C126.693 181.84 128.32 182.057 129.895 182.489C128.262 182.494 126.635 182.278 125.06 181.846Z" fill="#EB996E"/>
<path d="M91.9992 62.358C92.1266 62.7747 92.1284 63.2197 92.0044 63.6374C91.8805 64.0551 91.6363 64.4271 91.3023 64.707C90.9682 64.9868 90.5592 65.1621 90.1262 65.2109C89.6932 65.2598 89.2555 65.18 88.8675 64.9817C87.4013 64.2422 87.2148 62.2165 87.5042 60.6024C87.7936 58.9883 88.3402 57.2585 87.665 55.7601C87.1441 54.6155 86.0187 53.8888 85.1441 52.9885C84.3724 52.206 83.7925 51.2552 83.4499 50.2109C83.1074 49.1665 83.0116 48.057 83.1699 46.9694C83.3553 45.8851 83.8364 44.8729 84.5604 44.0446C85.2843 43.2163 86.2229 42.6039 87.2727 42.275C89.427 41.677 92.0828 42.3394 93.7033 40.7767C94.8673 39.6449 94.938 37.7993 95.8383 36.4489C97.2338 34.3525 100.185 34.0181 102.681 34.3589C105.176 34.6997 107.709 35.5036 110.153 34.8927C112.191 34.3846 113.863 32.9635 115.78 32.0889C117.868 31.1342 120.203 30.8561 122.457 31.2935C124.712 31.7308 126.773 32.8618 128.353 34.5283C129.933 36.1948 130.953 38.3134 131.27 40.5879C131.587 42.8624 131.185 45.179 130.12 47.2138C129.41 48.7029 128.203 49.8971 126.705 50.5899" fill="#263238"/>
<path d="M104.41 115.482C106.05 115.479 107.673 115.15 109.185 114.515C110.697 113.88 112.068 112.951 113.218 111.782C114.368 110.613 115.275 109.228 115.886 107.706C116.497 106.184 116.8 104.556 116.777 102.916L116.616 91.0969C116.616 91.0969 126.545 90.1001 127.201 80.2612C127.857 70.4223 127.387 47.7157 127.387 47.7157C121.924 45.0054 115.837 43.8012 109.753 44.2274C103.669 44.6535 97.8094 46.6946 92.7774 50.14L91.2598 51.1882L91.9993 103.238C92.0382 106.502 93.3636 109.619 95.6875 111.912C98.0114 114.204 101.146 115.487 104.41 115.482Z" fill="#FFBE9D"/>
<path d="M124.789 65.5738C124.43 65.5325 124.099 65.3606 123.859 65.0908C123.618 64.821 123.485 64.4722 123.485 64.1108C123.485 63.7494 123.618 63.4006 123.859 63.1308C124.099 62.861 124.43 62.6891 124.789 62.6478C124.868 62.6285 124.949 62.6285 125.027 62.6478C125.386 62.6891 125.718 62.861 125.958 63.1308C126.199 63.4006 126.332 63.7494 126.332 64.1108C126.332 64.4722 126.199 64.821 125.958 65.0908C125.718 65.3606 125.386 65.5325 125.027 65.5738C124.949 65.5866 124.868 65.5866 124.789 65.5738Z" fill="#263238"/>
<path d="M126.719 62.3971C126.558 62.5643 125.632 61.754 124.275 61.6833C122.918 61.6125 121.896 62.2492 121.761 62.0691C121.626 61.8891 121.857 61.6897 122.308 61.3875C122.909 61.0015 123.619 60.8188 124.332 60.8663C125.045 60.9137 125.724 61.1888 126.269 61.6511C126.674 62.0112 126.803 62.3585 126.719 62.3971Z" fill="#263238"/>
<path d="M111.034 62.7311C111.268 62.8926 111.448 63.1197 111.552 63.3837C111.656 63.6476 111.68 63.9365 111.619 64.2139C111.559 64.4912 111.418 64.7444 111.214 64.9416C111.01 65.1387 110.752 65.2709 110.473 65.3213C110.194 65.3718 109.906 65.3382 109.646 65.225C109.385 65.1117 109.165 64.9238 109.011 64.685C108.858 64.4462 108.779 64.1673 108.784 63.8836C108.789 63.5999 108.879 63.3241 109.041 63.0912C109.258 62.7794 109.589 62.5664 109.963 62.4989C110.337 62.4314 110.722 62.5149 111.034 62.7311Z" fill="#263238"/>
<path d="M111.928 62.7892C111.761 62.9564 110.835 62.1461 109.485 62.0754C108.134 62.0046 107.105 62.6413 106.964 62.4612C106.893 62.3776 107.067 62.0818 107.51 61.7796C108.112 61.3936 108.821 61.2109 109.534 61.2583C110.248 61.3058 110.927 61.5809 111.472 62.0432C111.877 62.4033 112.005 62.7184 111.928 62.7892Z" fill="#263238"/>
<path d="M116.777 74.2743C116.777 74.1714 117.619 74.0428 118.995 73.927C119.349 73.927 119.638 73.8434 119.671 73.6569C119.697 73.3024 119.628 72.9473 119.471 72.628C119.169 71.7084 118.867 70.7824 118.545 69.8114C117.259 65.8051 116.417 62.5062 116.616 62.4419C116.815 62.3776 118.012 65.5736 119.278 69.5799C119.574 70.5573 119.864 71.5091 120.14 72.4094C120.344 72.8775 120.385 73.4007 120.256 73.8949C120.198 74.0283 120.11 74.1462 119.998 74.239C119.887 74.3318 119.754 74.3968 119.613 74.4286C119.412 74.4734 119.207 74.4885 119.002 74.4736C117.613 74.4479 116.777 74.3836 116.777 74.2743Z" fill="#263238"/>
<path d="M112.276 75.5347C114.343 76.5957 116.545 77.3681 118.822 77.8304C118.323 78.5161 117.607 79.0127 116.789 79.2392C115.972 79.4657 115.102 79.4089 114.321 79.078C111.421 77.8368 112.276 75.5347 112.276 75.5347Z" fill="white"/>
<path d="M116.654 90.9555C112.102 90.7932 107.701 89.2799 104.012 86.6084C104.012 86.6084 106.661 93.8557 116.532 93.5085L116.654 90.9555Z" fill="#EB996E"/>
<path d="M127.471 50.2043C127.471 50.2043 121.522 53.2267 113.645 49.4841C108.5 47.0276 102.475 45.8893 101.176 46.9504C99.8768 48.0115 99.7032 53.2846 94.6616 54.9244C94.6616 54.9244 95.2082 64.9948 91.1826 64.7119C87.157 64.4289 89.3692 48.7831 89.3692 48.7831L99.0987 43.793L109.78 41.5615L119.908 42.7898L127.767 44.7768L127.471 50.2043Z" fill="#263238"/>
<path d="M91.9164 61.4776C91.7556 61.394 85.2606 59.1046 85.1127 65.8504C84.9648 72.5961 91.762 71.355 91.7749 71.1621C91.7877 70.9692 91.9164 61.4776 91.9164 61.4776Z" fill="#FFBE9D"/>
<path d="M89.7677 68.5576C89.7677 68.5576 89.6455 68.6412 89.4461 68.7248C89.1637 68.8396 88.8476 68.8396 88.5652 68.7248C87.8578 68.4483 87.279 67.3037 87.279 66.0883C87.2782 65.5089 87.4033 64.9362 87.6456 64.4099C87.7148 64.201 87.8334 64.0119 87.9912 63.8585C88.149 63.7051 88.3415 63.5921 88.5523 63.5289C88.6884 63.5041 88.8288 63.5239 88.9528 63.5853C89.0767 63.6467 89.1776 63.7464 89.2404 63.8697C89.324 64.0562 89.2789 64.1912 89.3111 64.2041C89.3433 64.2169 89.459 64.0948 89.414 63.8183C89.3786 63.65 89.2881 63.4983 89.1568 63.3874C88.9747 63.2443 88.7441 63.1774 88.5137 63.2009C88.2353 63.2489 87.9738 63.3676 87.7543 63.5454C87.5347 63.7233 87.3645 63.9545 87.2597 64.2169C86.9627 64.7959 86.8084 65.4375 86.8096 66.0883C86.8096 67.4451 87.4912 68.7377 88.4558 69.0399C88.6362 69.095 88.8265 69.1097 89.0132 69.083C89.1999 69.0564 89.3784 68.989 89.5362 68.8856C89.7677 68.7248 89.7677 68.5705 89.7677 68.5576Z" fill="#EB996E"/>
<path d="M88.4824 40.3654C89.2519 40.1396 90.0738 40.1693 90.825 40.4498C91.5762 40.7304 92.2163 41.2467 92.6495 41.9216C92.0499 41.4675 91.4031 41.0794 90.7203 40.7641C89.9902 40.5538 89.2402 40.4201 88.4824 40.3654Z" fill="#263238"/>
<path d="M92.5401 36.3271C92.6623 36.3271 92.4758 37.7483 92.7073 39.4332C92.9075 40.4461 93.2247 41.4323 93.6526 42.372C93.6526 42.372 93.3697 42.134 93.0867 41.6324C92.7236 40.9649 92.484 40.2373 92.3794 39.4846C92.192 38.4336 92.247 37.3537 92.5401 36.3271Z" fill="#263238"/>
<path d="M120.25 59.1429C120.211 59.0658 120.5 58.8278 121.047 58.6092C122.498 58.0481 124.109 58.0642 125.548 58.6542C126.089 58.8857 126.378 59.1237 126.339 59.2008C126.256 59.3809 124.957 58.8729 123.291 58.8729C121.626 58.8729 120.327 59.3423 120.25 59.1429Z" fill="#263238"/>
<path d="M105.202 57.7412C105.163 57.664 105.453 57.4325 105.999 57.2075C106.719 56.9293 107.485 56.7918 108.256 56.8023C109.031 56.8022 109.798 56.9551 110.514 57.2525C111.054 57.484 111.337 57.7219 111.305 57.8055C111.272 57.8891 109.922 57.4775 108.25 57.4711C106.578 57.4647 105.292 57.9213 105.202 57.7412Z" fill="#263238"/>
<path d="M119.085 60.2233C119.1 60.3558 119.1 60.4895 119.085 60.622C119.085 60.905 119.085 61.2651 119.117 61.7088C119.15 62.1525 119.117 62.7506 119.156 63.3937C119.132 64.1358 119.241 64.8763 119.478 65.5801C119.788 66.493 120.324 67.3123 121.037 67.9612C121.751 68.6102 122.617 69.0676 123.555 69.2906C124.093 69.4221 124.648 69.4698 125.201 69.432C125.776 69.4062 126.343 69.2867 126.879 69.0783C128.023 68.6497 128.998 67.8624 129.657 66.8341C130.282 65.852 130.595 64.7046 130.558 63.5416C130.558 62.3905 130.558 61.2844 130.558 60.2233L130.712 60.3777L122.352 60.3005L119.928 60.2555H119.285H119.047C119.322 60.2249 119.599 60.212 119.876 60.2169L122.262 60.1719L130.712 60.0947H130.924V60.2555C130.924 61.3166 130.924 62.4226 130.924 63.5737C130.967 64.8002 130.638 66.0109 129.979 67.0463C129.28 68.135 128.246 68.9676 127.034 69.4192C126.464 69.638 125.862 69.7619 125.252 69.7857C124.671 69.8203 124.088 69.7661 123.522 69.625C122.539 69.3872 121.633 68.9003 120.892 68.211C120.151 67.5217 119.599 66.6534 119.291 65.6894C119.06 64.9539 118.964 64.1826 119.008 63.4129C119.008 62.7699 119.008 62.1718 119.04 61.6831C119.072 61.1944 119.04 60.8921 119.072 60.6092C119.066 60.4804 119.071 60.3514 119.085 60.2233Z" fill="#263238"/>
<path d="M103.324 59.8892C103.324 59.8892 103.324 60.0371 103.324 60.2879V61.3747C103.324 61.8505 103.324 62.4164 103.356 63.0659C103.339 63.8077 103.448 64.5469 103.677 65.2524C103.974 66.0991 104.46 66.8668 105.098 67.4967C105.836 68.2136 106.754 68.7179 107.754 68.9564C108.861 69.223 110.022 69.149 111.085 68.7442C112.226 68.3161 113.198 67.5312 113.857 66.5063C114.484 65.525 114.8 64.3776 114.764 63.2138C114.764 62.0628 114.764 60.9503 114.764 59.8892L114.918 60.0435L106.558 59.9664L104.14 59.9278H103.497H103.259C103.533 59.8973 103.808 59.8844 104.082 59.8892L106.468 59.8506L114.918 59.7734H115.072V59.9278C115.072 60.9888 115.072 62.1013 115.072 63.2524C115.111 64.4793 114.78 65.6894 114.121 66.725C113.422 67.8099 112.391 68.64 111.182 69.0915C110.612 69.3098 110.01 69.4336 109.401 69.458C108.817 69.4924 108.232 69.4382 107.664 69.2972C106.614 69.0385 105.653 68.4982 104.886 67.7346C104.223 67.0681 103.725 66.2554 103.433 65.3617C103.202 64.6262 103.106 63.8549 103.15 63.0852C103.15 62.4422 103.15 61.8441 103.189 61.3554C103.227 60.8667 103.189 60.5644 103.189 60.2815C103.212 60.1443 103.258 60.0118 103.324 59.8892Z" fill="#263238"/>
<path d="M119.227 60.6926C117.756 60.9158 116.26 60.9158 114.79 60.6926C116.26 60.4612 117.757 60.4612 119.227 60.6926Z" fill="#263238"/>
<path d="M91.0547 60.776C93.0992 60.6056 95.1513 60.5433 97.2024 60.5895C99.2549 60.5313 101.309 60.5807 103.357 60.7374C101.312 60.9159 99.2599 60.9781 97.2088 60.9239C95.1563 60.9895 93.1017 60.9402 91.0547 60.776Z" fill="#263238"/>
<path d="M157.206 182.129C158.651 184.811 160.84 187.019 163.509 188.487C166.178 189.955 169.215 190.621 172.254 190.405C175.844 190.154 179.241 188.686 181.885 186.244C184.528 183.801 186.26 180.531 186.793 176.972L190.523 134.279L175.585 130.587L169.482 164.027C169.482 164.027 166.293 178.039 157.206 182.129Z" fill="#FFBE9D"/>
<path d="M175.45 133.681L175.945 126.189C175.945 126.189 178.061 109.379 178.061 107.733C178.061 105.843 178.968 105.38 179.669 105.431C180.755 105.502 181.527 106.846 181.598 108.473C181.598 109.032 181.546 117.919 181.546 117.919C182.06 117.08 182.634 116.278 183.263 115.521C184.55 113.855 187.662 112.903 190.832 113.006C194.003 113.109 194.871 113.418 194.89 114.646C194.879 114.881 194.815 115.11 194.704 115.317C194.593 115.524 194.437 115.703 194.247 115.842C193.662 116.33 192.918 116.586 192.157 116.562C187.083 116.472 185.726 119.18 185.726 119.18L185.662 120.164C185.662 120.164 188.742 117.958 191.199 118.877C191.562 119.012 191.894 119.217 192.176 119.482C192.868 119.485 193.547 119.668 194.146 120.014C194.745 120.36 195.243 120.857 195.59 121.455C195.938 122.053 196.123 122.731 196.128 123.423C196.133 124.115 195.956 124.796 195.617 125.398C195.484 125.707 195.261 125.969 194.976 126.147C194.691 126.325 194.358 126.411 194.022 126.395C193.682 126.293 193.374 126.105 193.128 125.848C192.984 125.726 192.831 125.614 192.671 125.514L192.106 128.234C192.106 128.234 190.504 134.279 190.106 136.993" fill="#FFBE9D"/>
<path d="M176.91 133.095C177.836 133.353 178.794 132.671 179.296 131.848C179.797 131.025 180.01 130.054 180.447 129.192C181.772 126.62 184.948 125.398 186.164 122.761C186.331 122.395 186.421 121.893 186.099 121.649C185.778 121.404 185.379 121.604 185.051 121.784L176.691 126.414" fill="#FFBE9D"/>
<path d="M176.685 126.401C176.945 126.17 177.232 125.972 177.54 125.81C178.106 125.456 178.935 124.967 179.964 124.369L183.598 122.292L184.646 121.7C185.036 121.391 185.534 121.25 186.028 121.308C186.181 121.358 186.315 121.452 186.413 121.58C186.511 121.707 186.567 121.861 186.575 122.022C186.592 122.286 186.545 122.551 186.44 122.794C186.246 123.223 186.005 123.628 185.72 124.003C184.562 125.507 183.064 126.453 181.983 127.552C181.458 128.05 181.011 128.625 180.659 129.256C180.344 129.848 180.144 130.465 179.9 131.025C179.75 131.492 179.499 131.92 179.166 132.28C178.833 132.64 178.425 132.923 177.971 133.108C177.283 133.314 176.897 133.108 176.923 133.07C177.256 133.08 177.588 133.025 177.9 132.909C178.302 132.704 178.657 132.417 178.943 132.067C179.229 131.717 179.438 131.312 179.559 130.877C179.765 130.254 180.003 129.642 180.273 129.044C180.628 128.36 181.09 127.736 181.643 127.199C182.749 126.041 184.215 125.07 185.295 123.675C185.55 123.338 185.765 122.973 185.938 122.588C186.099 122.221 186.073 121.855 185.868 121.816C185.662 121.778 185.257 121.951 184.903 122.151L183.835 122.729L180.151 124.736C179.096 125.295 178.221 125.732 177.643 126.022C177.343 126.193 177.02 126.321 176.685 126.401Z" fill="#EB996E"/>
<path d="M185.546 120.234C185.603 119.626 185.803 119.039 186.131 118.523C186.512 117.994 187.053 117.602 187.675 117.405C188.453 117.149 189.267 117.019 190.086 117.019C190.927 117.027 191.767 116.954 192.594 116.8C193.287 116.659 193.93 116.337 194.459 115.868C194.635 115.705 194.771 115.505 194.858 115.282C194.945 115.06 194.98 114.82 194.96 114.581C194.951 114.406 194.893 114.237 194.793 114.093C194.761 114.093 194.793 114.279 194.825 114.588C194.822 114.803 194.773 115.016 194.679 115.21C194.586 115.404 194.452 115.576 194.285 115.713C193.771 116.118 193.167 116.392 192.523 116.511C191.714 116.644 190.894 116.704 190.073 116.691C189.223 116.681 188.378 116.814 187.572 117.083C186.897 117.318 186.321 117.77 185.932 118.369C185.68 118.772 185.534 119.232 185.507 119.707C185.471 119.883 185.484 120.065 185.546 120.234Z" fill="#EB996E"/>
<path d="M181.553 107.842C181.498 108.43 181.498 109.023 181.553 109.611C181.553 110.82 181.553 112.267 181.598 113.861C181.643 115.456 181.598 116.903 181.598 118.112C181.559 118.702 181.572 119.293 181.636 119.88C181.777 119.304 181.848 118.712 181.848 118.118C181.926 117.032 181.977 115.546 181.971 113.861C181.964 112.177 181.9 110.685 181.823 109.598C181.796 109.005 181.705 108.416 181.553 107.842Z" fill="#EB996E"/>
<path d="M187.553 122.208C187.733 122.165 187.906 122.098 188.067 122.009C188.277 121.902 188.507 121.84 188.742 121.829C188.977 121.818 189.212 121.858 189.431 121.945C189.565 122.017 189.678 122.124 189.759 122.253C189.841 122.383 189.887 122.531 189.894 122.684C189.914 123.068 189.886 123.452 189.81 123.829C189.704 124.302 189.78 124.798 190.022 125.218C190.176 125.433 190.378 125.61 190.613 125.733C190.848 125.856 191.108 125.922 191.373 125.925C191.633 125.923 191.89 125.869 192.129 125.765C192.368 125.661 192.583 125.51 192.762 125.321C193.097 124.984 193.322 124.553 193.405 124.086C193.506 123.33 193.495 122.563 193.373 121.809C193.306 121.3 193.152 120.806 192.916 120.35C192.736 120.028 192.569 119.906 192.556 119.919C192.543 119.932 192.659 120.092 192.794 120.408C192.97 120.87 193.081 121.355 193.122 121.848C193.206 122.573 193.196 123.306 193.09 124.028C193.008 124.437 192.796 124.808 192.485 125.087C192.174 125.365 191.782 125.535 191.366 125.571C191.157 125.57 190.951 125.52 190.765 125.425C190.578 125.33 190.417 125.193 190.292 125.025C190.098 124.672 190.037 124.261 190.119 123.867C190.191 123.462 190.208 123.049 190.17 122.639C190.152 122.443 190.083 122.256 189.97 122.095C189.857 121.933 189.705 121.804 189.527 121.719C189.277 121.624 189.008 121.59 188.742 121.619C188.476 121.648 188.22 121.74 187.997 121.887C187.695 122.067 187.514 122.163 187.553 122.208Z" fill="#EB996E"/>
<path d="M192.614 125.051C192.569 125.219 192.587 125.397 192.665 125.553C192.756 125.773 192.895 125.97 193.074 126.128C193.252 126.287 193.464 126.402 193.694 126.466C194.04 126.54 194.4 126.524 194.738 126.418C195.076 126.312 195.381 126.12 195.623 125.861C196.203 125.224 196.514 124.388 196.491 123.527C196.491 122.676 196.226 121.847 195.732 121.154C195.33 120.589 194.781 120.144 194.144 119.868C193.727 119.68 193.277 119.573 192.819 119.553C192.498 119.553 192.324 119.553 192.324 119.604C192.918 119.681 193.496 119.845 194.041 120.093C194.612 120.377 195.103 120.799 195.469 121.321C195.896 121.97 196.12 122.731 196.112 123.508C196.133 124.279 195.867 125.031 195.366 125.617C195.162 125.848 194.903 126.023 194.612 126.125C194.322 126.227 194.01 126.254 193.707 126.202C193.504 126.157 193.314 126.068 193.149 125.943C192.983 125.818 192.847 125.658 192.749 125.475C192.659 125.231 192.659 125.051 192.614 125.051Z" fill="#EB996E"/>
<path d="M186.505 130.992C186.229 130.905 185.932 130.905 185.656 130.992C184.932 131.151 184.281 131.544 183.804 132.111L184.1 132.201C184.061 131.803 183.996 131.408 183.907 131.018C183.651 129.636 183.017 128.351 182.074 127.308C182.704 128.514 183.204 129.784 183.566 131.095C183.656 131.494 183.72 131.88 183.765 132.24L183.817 132.639L184.068 132.324C184.494 131.798 185.064 131.407 185.708 131.198C186.19 131.05 186.505 131.037 186.505 130.992Z" fill="#EB996E"/>
<path d="M186.666 115.874C186.582 115.912 186.923 116.517 187.707 116.883C188.492 117.25 189.186 117.038 189.154 116.948C189.122 116.858 188.511 116.864 187.868 116.562C187.225 116.26 186.749 115.81 186.666 115.874Z" fill="#EB996E"/>
<path d="M172.878 138.529L191.649 139.873C191.649 139.873 188.762 173.088 188.202 178.239C187.643 183.39 184.344 191.158 172.878 191.158C161.412 191.158 159.277 187.254 154.177 179.216C160.19 175.049 169.74 162.606 169.74 162.606L172.878 138.529Z" fill="#EB7720"/>
<path d="M181.726 142.999C181.63 143.279 181.514 143.551 181.379 143.815L180.331 146.027L176.627 153.673L176.44 153.448L181.308 152.001L186.253 150.548L186.613 150.445L186.44 150.773L182.581 158.265L181.443 160.419C181.317 160.682 181.169 160.934 181 161.172C181.098 160.896 181.214 160.628 181.347 160.368C181.617 159.815 181.99 159.082 182.401 158.175L186.138 150.632L186.324 150.857L181.385 152.323L176.511 153.751L176.157 153.853L176.324 153.526L180.164 145.957C180.633 145.063 181.012 144.33 181.295 143.783C181.417 143.51 181.561 143.247 181.726 142.999Z" fill="#EB7720" fill-opacity="0.79"/>
<path d="M179.952 174.946C179.664 175.008 179.372 175.047 179.077 175.062L176.634 175.274L168.184 175.917L168.287 175.641L171.991 179.113L175.74 182.65L176.01 182.907H175.637L167.232 183.37L164.801 183.473C164.51 183.499 164.218 183.499 163.927 183.473C164.213 183.417 164.503 183.382 164.795 183.37L167.219 183.171L175.618 182.592L175.521 182.869L171.759 179.338L168.068 175.853L167.798 175.602H168.165L176.621 175.094L179.071 174.972C179.364 174.941 179.658 174.933 179.952 174.946Z" fill="#EB7720" fill-opacity="0.79"/>
<path d="M213.371 56.2943L194.227 49.4199L175.295 56.2043C172.877 57.3425 170.755 58.0306 170.755 60.2813V71.5092C170.711 79.3953 172.864 87.1379 176.974 93.8686C181.08 100.661 187.166 106.035 194.414 109.27C202.13 106.756 207.918 100.042 211.487 94.3059C215.608 87.5785 217.773 79.8357 217.738 71.9465V61.8504C217.738 58.635 216.027 57.066 213.371 56.2943Z" fill="#EB7720"/>
<g opacity="0.3">
<path d="M194.414 102.736C188.67 100.146 183.856 95.8597 180.62 90.4536C177.362 85.1346 175.649 79.0133 175.675 72.7757V64.9303C175.675 63.1426 176.755 61.4706 178.89 60.4739L194.234 54.7377V49.4453L175.295 56.2039C173.308 57.0721 170.755 58.0302 170.755 60.281V71.5089C170.711 79.395 172.864 87.1376 176.974 93.8683C181.08 100.661 187.166 106.035 194.414 109.27V102.736Z" fill="black"/>
</g>
<g opacity="0.4">
<path d="M194.414 109.251C195.712 108.826 196.971 108.288 198.176 107.643C201.137 105.968 203.83 103.856 206.162 101.379C208.272 99.1071 210.128 96.6124 211.699 93.9392C215.869 87.1622 217.968 79.3147 217.738 71.3612V62.0946C217.738 57.4774 215.358 57.1365 213.365 56.2684L194.221 49.394V54.6865L209.744 60.5191C211.879 61.5158 212.96 63.1878 212.96 64.9691V72.8466C212.985 79.0822 211.273 85.2015 208.014 90.5181C204.848 95.8992 200.092 100.168 194.401 102.736L194.414 109.251Z" fill="black"/>
</g>
<path opacity="0.5" d="M199.307 72.2742V70.7565C199.307 69.4382 198.784 68.1738 197.851 67.2416C196.919 66.3094 195.655 65.7856 194.336 65.7856C193.018 65.7856 191.754 66.3094 190.821 67.2416C189.889 68.1738 189.365 69.4382 189.365 70.7565V72.2999C188.708 72.3984 188.107 72.7298 187.673 73.2337C187.238 73.7376 186.999 74.3806 186.999 75.0458V83.9844C186.999 84.7212 187.292 85.4278 187.813 85.9488C188.334 86.4697 189.04 86.7624 189.777 86.7624H199.089C199.825 86.7624 200.532 86.4697 201.053 85.9488C201.574 85.4278 201.867 84.7212 201.867 83.9844V75.0458C201.867 74.3465 201.604 73.6727 201.13 73.1589C200.655 72.6451 200.004 72.3292 199.307 72.2742ZM195.687 81.753H193.256L193.635 79.9974C193.37 79.8241 193.167 79.5696 193.057 79.2717C192.948 78.9738 192.937 78.6485 193.028 78.3442C193.118 78.04 193.304 77.7731 193.559 77.5832C193.813 77.3934 194.122 77.2909 194.439 77.2909C194.757 77.2909 195.066 77.3934 195.32 77.5832C195.574 77.7731 195.761 78.04 195.851 78.3442C195.941 78.6485 195.931 78.9738 195.821 79.2717C195.712 79.5696 195.509 79.8241 195.243 79.9974C195.41 80.6533 195.687 81.753 195.687 81.753ZM198.259 72.2613H190.439V70.7565C190.48 69.7495 190.909 68.7974 191.636 68.0994C192.363 67.4013 193.332 67.0115 194.34 67.0115C195.347 67.0115 196.316 67.4013 197.043 68.0994C197.77 68.7974 198.199 69.7495 198.24 70.7565L198.259 72.2613Z" fill="white"/>
<path d="M178.781 72.1645C178.614 71.6615 178.517 71.1379 178.492 70.6083C178.349 69.3426 178.297 68.0681 178.338 66.7949C178.338 66.049 178.408 65.3416 178.473 64.6985C178.504 64.1121 178.651 63.5375 178.903 63.0073C179.084 62.644 179.378 62.3487 179.739 62.1649C180.003 62.0427 180.164 62.0491 180.164 62.0684C179.702 62.2803 179.33 62.6495 179.116 63.1102C178.91 63.6243 178.797 64.1707 178.781 64.7243C178.73 65.3673 178.691 66.0683 178.672 66.8078C178.627 68.2804 178.672 69.618 178.73 70.589C178.788 71.112 178.805 71.6388 178.781 72.1645Z" fill="white"/>
<path d="M179.057 77.0457C178.967 77.0457 178.884 76.5891 178.871 76.0168C178.858 75.4445 178.929 74.9814 179.019 74.9814C179.109 74.9814 179.192 75.438 179.205 76.0103C179.218 76.5827 179.154 77.0457 179.057 77.0457Z" fill="white"/>
<path d="M160.068 135.815L138.725 188.598H100.237V190.984H214.877L238.329 135.815H160.068Z" fill="#263238"/>
<path d="M192.697 166.979C191.926 169.634 189.675 171.313 187.669 170.734C185.662 170.155 184.665 167.519 185.437 164.863C186.209 162.207 188.466 160.529 190.472 161.107C192.479 161.686 193.475 164.323 192.697 166.979Z" fill="#FAFAFA"/>
</svg>
