<svg width="360" height="282" viewBox="0 0 360 282" fill="none" xmlns="http://www.w3.org/2000/svg">
<path d="M331.045 260.38H305.938V260.57H331.045V260.38Z" fill="#EBEBEB"/>
<path d="M241.08 262.442H234.492V262.632H241.08V262.442Z" fill="#EBEBEB"/>
<path d="M305.18 253.346H290.633V253.535H305.18V253.346Z" fill="#EBEBEB"/>
<path d="M62.5065 254.619H29.7666V254.809H62.5065V254.619Z" fill="#EBEBEB"/>
<path d="M74.0593 254.619H69.2607V254.809H74.0593V254.619Z" fill="#EBEBEB"/>
<path d="M160.674 257.818H89.6602V258.008H160.674V257.818Z" fill="#EBEBEB"/>
<path d="M170.717 214.375H24.3392C23.1912 214.375 22.0902 213.919 21.2785 213.107C20.4668 212.295 20.0107 211.194 20.0107 210.046V4.29053C20.0207 3.14914 20.4812 2.0579 21.2918 1.25434C22.1025 0.45078 23.1977 -4.37588e-05 24.3392 3.18572e-09H170.717C171.286 3.18572e-09 171.849 0.111957 172.374 0.329481C172.899 0.547005 173.376 0.865836 173.778 1.26777C174.18 1.6697 174.499 2.14686 174.716 2.67201C174.934 3.19716 175.046 3.76001 175.046 4.32843V210.046C175.046 210.615 174.934 211.178 174.716 211.703C174.499 212.228 174.18 212.705 173.778 213.107C173.376 213.509 172.899 213.828 172.374 214.045C171.849 214.263 171.286 214.375 170.717 214.375ZM24.3392 0.151609C23.2421 0.153613 22.1905 0.590319 21.4147 1.36608C20.639 2.14185 20.2023 3.19343 20.2003 4.29053V210.046C20.2023 211.143 20.639 212.195 21.4147 212.971C22.1905 213.747 23.2421 214.183 24.3392 214.185H170.717C171.815 214.183 172.866 213.747 173.642 212.971C174.418 212.195 174.854 211.143 174.856 210.046V4.29053C174.854 3.19343 174.418 2.14185 173.642 1.36608C172.866 0.590319 171.815 0.153613 170.717 0.151609H24.3392Z" fill="#EB7720"/>
<path d="M334.682 214.375H188.304C187.156 214.375 186.055 213.919 185.243 213.107C184.432 212.295 183.976 211.194 183.976 210.046V4.29053C183.986 3.14914 184.446 2.0579 185.257 1.25434C186.067 0.45078 187.163 -4.37588e-05 188.304 3.18572e-09H334.682C335.83 3.18573e-09 336.931 0.45603 337.743 1.26777C338.555 2.07951 339.011 3.18046 339.011 4.32843V210.046C339.011 211.194 338.555 212.295 337.743 213.107C336.931 213.919 335.83 214.375 334.682 214.375ZM188.304 0.151609C187.207 0.153613 186.155 0.590319 185.38 1.36608C184.604 2.14185 184.167 3.19343 184.165 4.29053V210.046C184.167 211.143 184.604 212.195 185.38 212.971C186.155 213.747 187.207 214.183 188.304 214.185H334.682C335.779 214.183 336.831 213.747 337.607 212.971C338.383 212.195 338.819 211.143 338.821 210.046V4.29053C338.819 3.19343 338.383 2.14185 337.607 1.36608C336.831 0.590319 335.779 0.153613 334.682 0.151609H188.304Z" fill="#EB7720"/>
<path d="M369.022 248.184H-10V248.373H369.022V248.184Z" fill="#EBEBEB"/>
<path d="M89.0612 48.0901L94.5874 44.5425L97.6044 50.3794L104.169 50.0762L103.866 56.6409L109.703 59.6579L106.155 65.184L109.703 70.7177L103.866 73.7348L104.169 80.2994L97.6044 79.9962L94.5874 85.8331L89.0612 82.2855L83.5275 85.8331L80.5105 79.9962L73.9458 80.2994L74.249 73.7348L68.4121 70.7177L71.9598 65.184L68.4121 59.6579L74.249 56.6409L73.9458 50.0762L80.5105 50.3794L83.5275 44.5425L89.0612 48.0901Z" fill="#EB7720" fill-opacity="0.28"/>
<path d="M86.9618 73.6292L80.3893 67.0568C80.0287 66.6958 79.8262 66.2063 79.8262 65.6961C79.8262 65.1858 80.0287 64.6964 80.3893 64.3353C80.7504 63.9747 81.2398 63.7722 81.7501 63.7722C82.2603 63.7722 82.7498 63.9747 83.1108 64.3353L86.9618 68.1863L95.0048 60.1432C95.3659 59.7826 95.8553 59.5801 96.3655 59.5801C96.8758 59.5801 97.3652 59.7826 97.7263 60.1432C98.0869 60.5043 98.2894 60.9937 98.2894 61.504C98.2894 62.0142 98.0869 62.5037 97.7263 62.8647L86.9618 73.6292Z" fill="#FAFAFA"/>
<path d="M294.628 106.111L298.964 103.329L301.329 107.908L306.483 107.665L306.241 112.812L310.819 115.177L308.037 119.521L310.819 123.857L306.241 126.222L306.483 131.369L301.329 131.134L298.964 135.713L294.628 132.931L290.292 135.713L287.926 131.134L282.779 131.369L283.014 126.222L278.436 123.857L281.218 119.521L278.436 115.177L283.014 112.812L282.779 107.665L287.926 107.908L290.292 103.329L294.628 106.111Z" fill="#EB7720" fill-opacity="0.28"/>
<path d="M292.983 126.139L287.828 120.984C287.548 120.7 287.391 120.318 287.391 119.919C287.391 119.52 287.548 119.138 287.828 118.854C288.112 118.572 288.496 118.413 288.897 118.413C289.297 118.413 289.681 118.572 289.965 118.854L292.998 121.886L299.305 115.579C299.589 115.297 299.973 115.138 300.374 115.138C300.774 115.138 301.159 115.297 301.443 115.579C301.725 115.863 301.883 116.247 301.883 116.648C301.883 117.048 301.725 117.433 301.443 117.717L292.983 126.139Z" fill="#FAFAFA"/>
<path d="M89.6148 178.898L98.067 183.212C98.7633 183.564 99.5553 183.681 100.324 183.544C101.092 183.407 101.795 183.025 102.327 182.454L108.793 175.51C109.168 175.108 109.445 174.626 109.603 174.1C109.76 173.574 109.795 173.019 109.703 172.478L106.345 153.405C106.079 151.91 105.23 150.58 103.985 149.709C102.74 148.838 101.201 148.496 99.7044 148.759L89.0008 150.646C88.2597 150.777 87.5516 151.053 86.9169 151.457C86.2823 151.862 85.7335 152.387 85.302 153.004C84.8705 153.621 84.5647 154.316 84.4021 155.051C84.2394 155.786 84.2231 156.545 84.354 157.287L87.7121 176.351C87.8132 176.893 88.0373 177.405 88.3671 177.846C88.697 178.288 89.1239 178.648 89.6148 178.898ZM99.242 177.382C99.5936 177.319 99.9563 177.361 100.284 177.503C100.612 177.646 100.89 177.883 101.082 178.183C101.275 178.484 101.375 178.835 101.368 179.193C101.361 179.55 101.248 179.897 101.043 180.19C100.839 180.483 100.552 180.709 100.219 180.839C99.8856 180.968 99.5216 180.996 99.1727 180.919C98.8239 180.841 98.5059 180.662 98.2591 180.403C98.0123 180.145 97.8478 179.819 97.7865 179.467C97.7048 178.998 97.812 178.515 98.0847 178.125C98.3573 177.734 98.7733 177.467 99.242 177.382Z" fill="#EB7720" fill-opacity="0.32"/>
<path d="M90.0269 172.988L106.384 170.104L106.072 168.334L89.7149 171.218L90.0269 172.988Z" fill="#FAFAFA"/>
<path d="M87.2574 157.266L103.614 154.381L103.302 152.612L86.9454 155.496L87.2574 157.266Z" fill="#FAFAFA"/>
<path d="M118.504 55.4431L124.326 61.6894C124.804 62.2023 125.436 62.5455 126.127 62.6672C126.818 62.7889 127.529 62.6825 128.154 62.3641L135.734 58.4829C136.18 58.2576 136.567 57.9313 136.865 57.5298C137.162 57.1284 137.362 56.6631 137.448 56.1709L140.48 39.0239C140.716 37.6791 140.408 36.2956 139.625 35.1772C138.842 34.0587 137.647 33.2966 136.303 33.0581L126.683 31.3601C125.337 31.1243 123.951 31.4324 122.831 32.2169C121.711 33.0014 120.948 34.1981 120.71 35.5445L117.678 52.6839C117.591 53.1764 117.62 53.6824 117.764 54.1615C117.907 54.6406 118.161 55.0795 118.504 55.4431ZM127.093 57.1563C127.409 57.2106 127.702 57.3576 127.935 57.5787C128.168 57.7998 128.33 58.085 128.401 58.3982C128.471 58.7114 128.447 59.0385 128.332 59.3382C128.217 59.6378 128.015 59.8964 127.752 60.0813C127.49 60.2662 127.179 60.3691 126.858 60.3769C126.537 60.3847 126.22 60.297 125.949 60.125C125.678 59.9531 125.464 59.7045 125.334 59.4108C125.205 59.1172 125.165 58.7916 125.22 58.4753C125.294 58.0524 125.533 57.6762 125.884 57.4289C126.235 57.1817 126.67 57.0837 127.093 57.1563Z" fill="#F0F0F0"/>
<path d="M120.677 50.5869L135.384 53.1802L135.664 51.59L120.957 48.9968L120.677 50.5869Z" fill="#FAFAFA"/>
<path d="M123.593 37.3607L138.229 39.8994L138.503 38.317L123.868 35.7783L123.593 37.3607Z" fill="#FAFAFA"/>
<path d="M259.394 36.9546C258.318 35.4174 256.675 34.3703 254.827 34.0434C252.979 33.7165 251.078 34.1365 249.539 35.2111L246.507 37.3109L244.4 34.2787C243.321 32.7448 241.679 31.7004 239.832 31.3737C237.986 31.047 236.085 31.4646 234.545 32.5352C233.011 33.614 231.967 35.2562 231.64 37.1028C231.313 38.9494 231.731 40.8502 232.802 42.3898L243.043 57.0125L257.673 46.7713C259.194 45.6909 260.228 44.0543 260.55 42.2165C260.872 40.3787 260.457 38.488 259.394 36.9546Z" fill="#EB7720" fill-opacity="0.21"/>
<path d="M280.422 38.319C280.162 37.9443 279.83 37.6247 279.445 37.3787C279.061 37.1327 278.631 36.965 278.182 36.8854C277.733 36.8058 277.272 36.8158 276.826 36.9148C276.381 37.0138 275.959 37.1999 275.586 37.4624L274.115 38.4933L273.084 37.0227C272.555 36.2691 271.749 35.7559 270.843 35.5953C269.936 35.4348 269.003 35.64 268.248 36.1661C267.495 36.6975 266.983 37.5053 266.824 38.4129C266.665 39.3206 266.871 40.2543 267.399 41.0101L272.409 48.1662L279.573 43.1554C279.947 42.8943 280.266 42.5618 280.511 42.1771C280.757 41.7924 280.924 41.363 281.003 40.9136C281.081 40.4642 281.071 40.0037 280.971 39.5584C280.872 39.1131 280.685 38.6919 280.422 38.319Z" fill="#EB7720" fill-opacity="0.21"/>
<path d="M56.223 107.915C51.3306 109.32 47.1962 112.61 44.7286 117.062C42.2609 121.514 41.662 126.763 43.0634 131.657C44.9661 138.274 56.5717 149.365 64.4706 156.331C65.2807 157.047 66.2581 157.548 67.3127 157.786C68.3673 158.025 69.4649 157.994 70.5044 157.696C71.5438 157.398 72.4915 156.844 73.26 156.083C74.0284 155.323 74.5929 154.381 74.9012 153.344C77.9334 143.255 81.8677 127.692 79.9726 121.074C79.2779 118.651 78.1124 116.387 76.5427 114.414C74.973 112.441 73.0299 110.796 70.8244 109.574C68.6188 108.352 66.1941 107.576 63.6888 107.292C61.1834 107.007 58.6465 107.219 56.223 107.915ZM63.9551 134.878C62.272 135.362 60.4833 135.336 58.8152 134.803C57.147 134.27 55.6744 133.254 54.5834 131.885C53.4925 130.515 52.8324 128.852 52.6864 127.107C52.5405 125.362 52.9153 123.613 53.7635 122.08C54.6117 120.548 55.8952 119.302 57.4516 118.5C59.0081 117.697 60.7676 117.374 62.5076 117.571C64.2477 117.769 65.8901 118.478 67.2272 119.609C68.5643 120.74 69.536 122.242 70.0194 123.925C70.6676 126.181 70.3929 128.603 69.2556 130.657C68.1184 132.712 66.2117 134.23 63.9551 134.878Z" fill="#E0E0E0"/>
<path d="M59.2251 107.058C54.3388 108.468 50.2117 111.759 47.7501 116.209C45.2884 120.659 44.6934 125.904 46.0958 130.793C47.9985 137.411 59.6041 148.508 67.5029 155.475C68.3162 156.189 69.2962 156.686 70.3525 156.921C71.4088 157.155 72.5072 157.12 73.5462 156.818C74.5851 156.515 75.5311 155.956 76.2967 155.191C77.0622 154.427 77.6226 153.481 77.926 152.443C80.9582 142.353 84.8925 126.798 82.9974 120.173C82.2989 117.75 81.1297 115.488 79.5566 113.518C77.9835 111.547 76.0374 109.906 73.8296 108.688C71.6217 107.47 69.1955 106.699 66.6895 106.42C64.1836 106.14 61.6471 106.357 59.2251 107.058ZM66.9571 134.022C65.2727 134.507 63.4822 134.482 61.8121 133.95C60.142 133.417 58.6673 132.401 57.5747 131.03C56.4821 129.66 55.8206 127.995 55.6738 126.249C55.5271 124.502 55.9017 122.751 56.7503 121.217C57.5989 119.683 58.8834 118.435 60.4412 117.632C61.999 116.828 63.7602 116.504 65.502 116.702C67.2438 116.899 68.888 117.609 70.2265 118.741C71.5649 119.872 72.5376 121.376 73.0215 123.061C73.3436 124.179 73.4422 125.349 73.3117 126.505C73.1812 127.661 72.8241 128.78 72.2609 129.798C71.6977 130.816 70.9394 131.713 70.0294 132.438C69.1193 133.163 68.0754 133.701 66.9571 134.022Z" fill="#AED0B0"/>
<path d="M280.262 59.1275C278.153 58.5175 275.944 58.3302 273.762 58.5762C271.58 58.8221 269.468 59.4966 267.547 60.5608C265.626 61.625 263.935 63.058 262.569 64.7777C261.204 66.4973 260.192 68.4696 259.59 70.5815C257.938 76.3502 261.387 89.8964 264.01 98.6822C264.277 99.5874 264.768 100.41 265.438 101.075C266.108 101.739 266.936 102.224 267.843 102.483C268.75 102.743 269.709 102.768 270.629 102.559C271.549 102.349 272.401 101.91 273.106 101.282C279.989 95.2179 290.094 85.5604 291.746 79.7993C292.356 77.6879 292.542 75.4769 292.294 73.2934C292.046 71.1099 291.369 68.9969 290.302 67.0759C289.235 65.1549 287.798 63.4637 286.075 62.0997C284.352 60.7356 282.377 59.7255 280.262 59.1275ZM273.508 82.6268C272.043 82.2064 270.736 81.3614 269.752 80.1986C268.767 79.0357 268.149 77.6072 267.976 76.0933C267.802 74.5795 268.082 73.0483 268.778 71.693C269.475 70.3378 270.557 69.2193 271.889 68.4789C273.22 67.7384 274.742 67.4092 276.26 67.5329C277.779 67.6565 279.227 68.2274 280.422 69.1734C281.616 70.1195 282.503 71.3983 282.971 72.8483C283.44 74.2984 283.467 75.8546 283.052 77.3205C282.775 78.2964 282.308 79.2082 281.678 80.0034C281.048 80.7986 280.268 81.4617 279.381 81.9546C278.495 82.4476 277.519 82.7607 276.512 82.8761C275.504 82.9914 274.483 82.9067 273.508 82.6268Z" fill="#E0E0E0"/>
<path d="M282.878 59.8858C280.769 59.2758 278.56 59.0885 276.378 59.3345C274.196 59.5804 272.084 60.2549 270.163 61.3191C268.243 62.3833 266.551 63.8163 265.186 65.536C263.82 67.2556 262.808 69.2279 262.206 71.3398C260.554 77.1009 264.003 90.6547 266.626 99.4405C266.893 100.346 267.384 101.169 268.055 101.833C268.725 102.498 269.552 102.982 270.459 103.241C271.367 103.501 272.325 103.527 273.245 103.317C274.165 103.107 275.017 102.668 275.722 102.041C282.598 95.9762 292.703 86.3187 294.355 80.5576C294.965 78.4467 295.151 76.2362 294.904 74.0531C294.656 71.8699 293.98 69.7572 292.913 67.8363C291.847 65.9154 290.411 64.2241 288.689 62.8597C286.967 61.4953 284.992 60.4846 282.878 59.8858ZM276.147 83.3851C274.682 82.966 273.373 82.1219 272.387 80.9595C271.402 79.7972 270.782 78.3687 270.608 76.8545C270.434 75.3404 270.712 73.8086 271.408 72.4527C272.104 71.0967 273.187 69.9775 274.518 69.2364C275.85 68.4953 277.372 68.1657 278.891 68.289C280.41 68.4124 281.859 68.9833 283.053 69.9296C284.248 70.8758 285.136 72.155 285.604 73.6055C286.072 75.056 286.099 76.6126 285.683 78.0788C285.122 80.047 283.802 81.7118 282.014 82.7069C280.226 83.702 278.115 83.946 276.147 83.3851Z" fill="#EB7720" fill-opacity="0.35"/>
<path d="M179.511 282C260.685 282 326.488 278.158 326.488 273.419C326.488 268.68 260.685 264.838 179.511 264.838C98.3381 264.838 32.5342 268.68 32.5342 273.419C32.5342 278.158 98.3381 282 179.511 282Z" fill="#F5F5F5"/>
<path d="M132.891 100.721H141.002C141.404 100.714 141.804 100.792 142.173 100.95C142.543 101.108 142.875 101.343 143.147 101.639C143.419 101.935 143.626 102.285 143.753 102.666C143.879 103.048 143.924 103.452 143.883 103.852L142.367 120.962C142.28 121.813 141.884 122.603 141.254 123.183C140.624 123.763 139.804 124.092 138.948 124.107H130.844C130.442 124.114 130.042 124.035 129.672 123.875C129.302 123.716 128.97 123.48 128.699 123.182C128.427 122.885 128.222 122.533 128.096 122.15C127.971 121.767 127.928 121.362 127.971 120.962L129.48 103.852C129.57 103.004 129.966 102.219 130.594 101.642C131.222 101.066 132.039 100.739 132.891 100.721Z" fill="#EB7720"/>
<path opacity="0.2" d="M223.629 97.0671H236.304C236.933 97.0559 237.558 97.1788 238.136 97.4276C238.714 97.6763 239.232 98.0453 239.657 98.51C240.081 98.9746 240.402 99.5243 240.598 100.122C240.793 100.721 240.86 101.354 240.792 101.979L239.23 119.847C239.094 121.171 238.48 122.4 237.504 123.304C236.527 124.208 235.254 124.726 233.924 124.759H221.203C220.575 124.769 219.951 124.646 219.374 124.396C218.797 124.147 218.279 123.778 217.855 123.313C217.432 122.849 217.112 122.3 216.916 121.702C216.721 121.104 216.655 120.472 216.723 119.847L218.285 101.979C218.422 100.649 219.041 99.4148 220.025 98.5098C221.01 97.6048 222.292 97.0916 223.629 97.0671Z" fill="black"/>
<path opacity="0.2" d="M221.029 126.753H233.711C234.34 126.742 234.963 126.866 235.54 127.115C236.118 127.365 236.635 127.734 237.059 128.198C237.483 128.663 237.803 129.212 237.998 129.81C238.193 130.407 238.259 131.04 238.191 131.665L236.629 149.532C236.494 150.863 235.875 152.098 234.891 153.004C233.906 153.909 232.623 154.422 231.285 154.445H218.61C217.981 154.456 217.357 154.333 216.778 154.084C216.2 153.835 215.682 153.466 215.257 153.002C214.833 152.537 214.512 151.987 214.316 151.389C214.121 150.791 214.055 150.158 214.123 149.532L215.692 131.665C215.827 130.335 216.444 129.101 217.428 128.196C218.411 127.291 219.692 126.777 221.029 126.753Z" fill="black"/>
<path d="M155.64 63.5694H226.26C228.536 63.5288 230.794 63.9737 232.885 64.8743C234.976 65.7749 236.851 67.1106 238.385 68.7925C239.919 70.4744 241.077 72.4638 241.782 74.6283C242.487 76.7929 242.723 79.0828 242.474 81.3456L227.404 253.55C226.914 258.363 224.676 262.828 221.116 266.103C217.555 269.377 212.918 271.233 208.082 271.319H137.462C135.187 271.359 132.929 270.915 130.839 270.015C128.749 269.114 126.874 267.779 125.34 266.098C123.806 264.417 122.648 262.429 121.942 260.265C121.237 258.102 121 255.813 121.248 253.55L136.303 81.3456C136.792 76.5294 139.03 72.0598 142.594 68.7837C146.158 65.5075 150.8 63.6523 155.64 63.5694Z" fill="#EB7720"/>
<path opacity="0.2" d="M155.64 63.5694H226.26C228.536 63.5288 230.794 63.9737 232.885 64.8743C234.976 65.7749 236.851 67.1106 238.385 68.7925C239.919 70.4744 241.077 72.4638 241.782 74.6283C242.487 76.7929 242.723 79.0828 242.474 81.3456L227.404 253.55C226.914 258.363 224.676 262.828 221.116 266.103C217.555 269.377 212.918 271.233 208.082 271.319H137.462C135.187 271.359 132.929 270.915 130.839 270.015C128.749 269.114 126.874 267.779 125.34 266.098C123.806 264.417 122.648 262.429 121.942 260.265C121.237 258.102 121 255.813 121.248 253.55L136.303 81.3456C136.792 76.5294 139.03 72.0598 142.594 68.7837C146.158 65.5075 150.8 63.6523 155.64 63.5694Z" fill="black"/>
<path d="M153.358 63.5693H223.985C226.261 63.5299 228.519 63.9756 230.609 64.8766C232.699 65.7776 234.574 67.1134 236.107 68.795C237.641 70.4766 238.8 72.4655 239.505 74.6295C240.211 76.7935 240.447 79.0829 240.2 81.3454L225.13 253.55C224.638 258.362 222.4 262.827 218.84 266.101C215.279 269.374 210.643 271.231 205.807 271.319H135.188C132.912 271.361 130.654 270.917 128.563 270.017C126.472 269.117 124.597 267.782 123.063 266.101C121.529 264.42 120.37 262.431 119.665 260.266C118.96 258.102 118.724 255.813 118.973 253.55L134.028 81.3454C134.892 71.5288 143.549 63.5693 153.358 63.5693Z" fill="#EB7720"/>
<path d="M238.077 81.3453L223.015 253.543C222.579 257.78 220.606 261.711 217.469 264.594C214.332 267.477 210.249 269.111 205.989 269.189H135.37C133.366 269.225 131.377 268.835 129.536 268.042C127.694 267.25 126.043 266.075 124.692 264.594C123.341 263.114 122.32 261.363 121.699 259.457C121.077 257.551 120.869 255.535 121.088 253.543L136.158 81.3453C136.593 77.1075 138.564 73.1755 141.699 70.2915C144.834 67.4076 148.917 65.7713 153.176 65.6917H223.796C225.8 65.656 227.789 66.0477 229.63 66.8408C231.472 67.6338 233.123 68.81 234.474 70.291C235.825 71.772 236.845 73.5239 237.467 75.4299C238.088 77.336 238.296 79.3525 238.077 81.3453Z" fill="white"/>
<g opacity="0.1">
<path d="M135.37 269.189H162.144L205.398 65.6919H171.286L128.396 267.468C130.543 268.608 132.938 269.199 135.37 269.189Z" fill="black"/>
<path d="M221.771 65.6919H215.282L172.021 269.189H178.517L221.771 65.6919Z" fill="black"/>
</g>
<path d="M167.784 65.1914C167.718 65.827 167.787 66.4693 167.986 67.0766C168.184 67.6839 168.509 68.2424 168.938 68.7159C169.367 69.1893 169.891 69.5671 170.476 69.8244C171.061 70.0818 171.693 70.2131 172.332 70.2097H203.791C205.155 70.1801 206.461 69.6541 207.464 68.7302C208.468 67.8063 209.1 66.548 209.242 65.1914H167.784Z" fill="#EB7720"/>
<path d="M222.514 71.2559H229.655C229.793 71.2552 229.93 71.2835 230.057 71.3391C230.183 71.3947 230.296 71.4762 230.389 71.5784C230.482 71.6807 230.553 71.8013 230.596 71.9324C230.639 72.0636 230.655 72.2024 230.641 72.3399L230.368 75.448C230.338 75.741 230.202 76.0131 229.986 76.2128C229.769 76.4125 229.487 76.5261 229.193 76.532H222.052C221.913 76.5339 221.776 76.5063 221.649 76.4512C221.522 76.396 221.408 76.3145 221.315 76.212C221.222 76.1095 221.151 75.9884 221.109 75.8567C221.066 75.725 221.051 75.5857 221.066 75.448L221.339 72.3399C221.369 72.0468 221.505 71.7748 221.721 71.5751C221.938 71.3753 222.22 71.2618 222.514 71.2559Z" fill="#EB7720"/>
<path d="M146.27 71.2559H155.829C155.986 71.254 156.14 71.2852 156.283 71.3473C156.427 71.4094 156.555 71.5011 156.66 71.6164C156.765 71.7316 156.845 71.8678 156.894 72.0161C156.943 72.1643 156.96 72.3212 156.944 72.4764L156.694 75.3116C156.66 75.6422 156.507 75.949 156.262 76.1739C156.018 76.3989 155.699 76.5263 155.367 76.5321H145.808C145.652 76.5341 145.498 76.503 145.355 76.4408C145.212 76.3786 145.084 76.2868 144.979 76.1714C144.875 76.056 144.796 75.9196 144.748 75.7714C144.7 75.6232 144.684 75.4664 144.701 75.3116L144.944 72.4764C144.977 72.1459 145.13 71.839 145.375 71.6141C145.62 71.3891 145.938 71.2617 146.27 71.2559Z" fill="#EB7720"/>
<path opacity="0.4" d="M146.27 71.2559H155.829C155.986 71.254 156.14 71.2852 156.283 71.3473C156.427 71.4094 156.555 71.5011 156.66 71.6164C156.765 71.7316 156.845 71.8678 156.894 72.0161C156.943 72.1643 156.96 72.3212 156.944 72.4764L156.694 75.3116C156.66 75.6422 156.507 75.949 156.262 76.1739C156.018 76.3989 155.699 76.5263 155.367 76.5321H145.808C145.652 76.5341 145.498 76.503 145.355 76.4408C145.212 76.3786 145.084 76.2868 144.979 76.1714C144.875 76.056 144.796 75.9196 144.748 75.7714C144.7 75.6232 144.684 75.4664 144.701 75.3116L144.944 72.4764C144.977 72.1459 145.13 71.839 145.375 71.6141C145.62 71.3891 145.938 71.2617 146.27 71.2559Z" fill="white"/>
<path d="M220.612 72.1354H221.733C221.784 72.134 221.835 72.1435 221.882 72.1633C221.928 72.183 221.97 72.2125 222.005 72.2499C222.039 72.2872 222.065 72.3315 222.081 72.3797C222.097 72.428 222.103 72.4791 222.097 72.5296L221.862 75.2131C221.851 75.3204 221.801 75.4198 221.721 75.4925C221.642 75.5652 221.538 75.606 221.43 75.6073H220.308C220.258 75.6087 220.207 75.5992 220.16 75.5794C220.113 75.5597 220.071 75.5302 220.037 75.4928C220.002 75.4555 219.976 75.4112 219.96 75.363C219.944 75.3147 219.939 75.2636 219.944 75.2131L220.179 72.5296C220.191 72.4223 220.241 72.3229 220.32 72.2502C220.4 72.1775 220.504 72.1367 220.612 72.1354Z" fill="#EB7720"/>
<path d="M228.238 72.1353H229.367C229.417 72.135 229.467 72.1453 229.513 72.1655C229.559 72.1857 229.6 72.2154 229.634 72.2526C229.667 72.2898 229.693 72.3337 229.708 72.3814C229.724 72.4291 229.729 72.4796 229.724 72.5294L229.489 75.213C229.479 75.3196 229.431 75.419 229.352 75.4918C229.274 75.5646 229.171 75.6057 229.064 75.6072H227.934C227.884 75.6075 227.835 75.5972 227.789 75.5769C227.743 75.5567 227.702 75.527 227.668 75.4898C227.635 75.4526 227.609 75.4087 227.594 75.361C227.578 75.3133 227.573 75.2629 227.578 75.213L227.813 72.5294C227.823 72.4228 227.871 72.3235 227.95 72.2507C228.028 72.1779 228.131 72.1367 228.238 72.1353Z" fill="white"/>
<path d="M225.82 72.1353H226.949C226.999 72.135 227.049 72.1453 227.095 72.1655C227.141 72.1857 227.182 72.2154 227.216 72.2526C227.249 72.2898 227.275 72.3337 227.29 72.3814C227.306 72.4291 227.311 72.4796 227.306 72.5294L227.071 75.213C227.061 75.3196 227.013 75.419 226.934 75.4918C226.856 75.5646 226.753 75.6057 226.646 75.6072H225.517C225.466 75.6075 225.417 75.5972 225.371 75.5769C225.325 75.5567 225.284 75.527 225.25 75.4898C225.217 75.4526 225.191 75.4087 225.176 75.361C225.16 75.3133 225.155 75.2629 225.16 75.213L225.395 72.5294C225.405 72.4228 225.453 72.3235 225.532 72.2507C225.61 72.1779 225.713 72.1367 225.82 72.1353Z" fill="white"/>
<path d="M238.509 119.725L236.993 137.335C237.735 137.192 238.412 136.815 238.922 136.258C239.433 135.7 239.751 134.994 239.828 134.242L240.799 122.803C240.876 122.096 240.682 121.386 240.258 120.815C239.833 120.244 239.209 119.855 238.509 119.725Z" fill="#EB7720"/>
<path opacity="0.2" d="M238.509 119.725L236.993 137.335C237.735 137.192 238.412 136.815 238.922 136.258C239.433 135.7 239.751 134.994 239.828 134.242L240.799 122.803C240.876 122.096 240.682 121.386 240.258 120.815C239.833 120.244 239.209 119.855 238.509 119.725Z" fill="black"/>
<path d="M240.154 100.721L238.638 118.331C239.378 118.19 240.054 117.813 240.563 117.257C241.072 116.701 241.389 115.996 241.465 115.246L242.428 103.852C242.516 103.139 242.33 102.419 241.908 101.838C241.486 101.257 240.859 100.858 240.154 100.721Z" fill="#EB7720"/>
<path opacity="0.2" d="M240.154 100.721L238.638 118.331C239.378 118.19 240.054 117.813 240.563 117.257C241.072 116.701 241.389 115.996 241.465 115.246L242.428 103.852C242.516 103.139 242.33 102.419 241.908 101.838C241.486 101.257 240.859 100.858 240.154 100.721Z" fill="black"/>
<path d="M297.228 140.905H282.347C281.141 140.905 279.984 141.384 279.131 142.237C278.278 143.09 277.799 144.247 277.799 145.454V154.262C277.809 155.462 278.293 156.609 279.145 157.454C279.996 158.299 281.148 158.773 282.347 158.773H286.6V162.207C286.603 162.396 286.66 162.579 286.766 162.735C286.872 162.892 287.022 163.013 287.196 163.085C287.371 163.157 287.562 163.176 287.747 163.14C287.933 163.104 288.103 163.014 288.238 162.882L292.339 158.773H297.228C298.421 158.763 299.563 158.285 300.407 157.441C301.25 156.597 301.729 155.456 301.739 154.262V145.416C301.729 144.223 301.25 143.081 300.407 142.237C299.563 141.394 298.421 140.915 297.228 140.905Z" fill="#EB7720"/>
<path d="M293.628 145.12H286.479C286.411 144.521 286.373 144.226 286.305 143.604H282.37C282.454 143.945 282.499 144.112 282.583 144.453H285.418C285.456 144.703 285.478 144.832 285.516 145.09C285.706 146.341 285.804 146.962 285.994 148.213C286.039 148.554 286.07 148.721 286.123 149.062C286.312 150.313 286.403 150.934 286.593 152.185C286.699 152.86 286.752 153.194 286.851 153.861H294.734C294.81 153.519 294.848 153.353 294.931 153.012H287.465C287.427 152.686 287.404 152.519 287.366 152.185H295.485L296.243 149.062C296.326 148.721 296.364 148.554 296.455 148.213C296.758 146.962 296.918 146.341 297.213 145.09L293.628 145.12ZM286.585 145.962H289.117C289.117 146.879 289.155 147.334 289.185 148.236H286.851L286.585 145.962ZM287.23 151.374C287.116 150.457 287.063 150.002 286.957 149.1H289.231C289.231 150.01 289.269 150.464 289.299 151.374H287.23ZM292.089 151.374H290.034C290.034 150.457 290.034 150.002 290.034 149.1H292.309C292.21 150.002 292.172 150.457 292.089 151.374ZM292.377 148.243H290.042C290.042 147.334 290.042 146.879 290.042 145.969H292.574C292.498 146.879 292.46 147.334 292.377 148.243ZM294.894 151.374H292.847C292.961 150.457 293.014 150.002 293.135 149.1H295.409L294.894 151.374ZM295.568 148.243H293.218C293.34 147.334 293.393 146.879 293.506 145.969H296.038C295.856 146.879 295.758 147.334 295.568 148.243Z" fill="white"/>
<path d="M287.336 154.679C287.136 154.679 286.941 154.738 286.775 154.849C286.61 154.96 286.48 155.117 286.404 155.302C286.328 155.486 286.308 155.689 286.347 155.884C286.386 156.08 286.482 156.259 286.623 156.4C286.764 156.541 286.943 156.637 287.139 156.676C287.335 156.715 287.537 156.695 287.721 156.619C287.906 156.543 288.063 156.413 288.174 156.248C288.285 156.082 288.344 155.887 288.344 155.687C288.344 155.42 288.238 155.164 288.049 154.975C287.859 154.785 287.603 154.679 287.336 154.679Z" fill="white"/>
<path d="M294.476 156.688C295.029 156.688 295.477 156.24 295.477 155.687C295.477 155.135 295.029 154.687 294.476 154.687C293.924 154.687 293.476 155.135 293.476 155.687C293.476 156.24 293.924 156.688 294.476 156.688Z" fill="white"/>
<path d="M197.333 77.7906H173.712C171.764 77.825 169.896 78.5722 168.461 79.8909C167.027 81.2095 166.125 83.0081 165.927 84.9466L164.707 98.9325C164.606 99.8434 164.701 100.765 164.985 101.636C165.269 102.508 165.735 103.309 166.353 103.986C166.97 104.663 167.725 105.2 168.566 105.563C169.408 105.926 170.317 106.105 171.233 106.088H177.995L177.518 111.531C177.494 111.83 177.565 112.128 177.72 112.384C177.875 112.64 178.107 112.841 178.382 112.959C178.657 113.077 178.962 113.106 179.254 113.041C179.547 112.977 179.812 112.823 180.012 112.6L187.092 106.126H194.854C196.802 106.09 198.669 105.343 200.103 104.024C201.538 102.706 202.44 100.908 202.639 98.9704L203.86 84.9845C203.966 84.0707 203.875 83.1447 203.594 82.2688C203.313 81.3929 202.848 80.5872 202.229 79.9059C201.611 79.2246 200.855 78.6833 200.01 78.3185C199.166 77.9537 198.253 77.7737 197.333 77.7906Z" fill="#EB7720"/>
<path d="M190.269 84.4765H178.936L178.86 82.1265H172.621C172.704 82.6647 172.75 82.93 172.833 83.4682H177.336C177.336 83.87 177.374 84.0747 177.397 84.4765C177.526 86.4626 177.594 87.4557 177.723 89.4418C177.723 89.9724 177.776 90.2453 177.806 90.7836C177.935 92.7621 178.003 93.7552 178.125 95.7413C178.2 96.8026 178.231 97.3332 178.299 98.3945H190.746L191.179 97.0528H179.33V95.7413H192.217C192.884 93.7552 193.218 92.7621 193.877 90.7836L194.324 89.4418C194.992 87.4557 195.325 86.4626 195.985 84.4765H190.269ZM178.974 85.8182H182.991C182.908 87.2661 182.87 87.9863 182.787 89.4418H179.087L178.974 85.8182ZM179.247 94.3995L179.133 90.7836H182.711C182.628 92.2315 182.582 92.9516 182.499 94.3995H179.247ZM186.956 94.3995H183.704C183.833 92.9516 183.901 92.2315 184.03 90.7836H187.608C187.35 92.2315 187.221 92.9516 186.956 94.3995ZM187.851 89.4494H184.151C184.288 87.9939 184.348 87.2737 184.477 85.8258H188.503C188.237 87.2661 188.108 87.9863 187.851 89.4494ZM191.414 94.4071H188.161L188.919 90.7911H192.49C192.073 92.2315 191.853 92.9516 191.414 94.3995V94.4071ZM192.93 89.4494H189.215C189.526 87.9939 189.678 87.2737 189.973 85.8258H193.991C193.566 87.2661 193.347 87.9863 192.914 89.4494H192.93Z" fill="white"/>
<path d="M178.966 99.6525C178.532 99.6595 178.115 99.8254 177.795 100.119C177.475 100.412 177.274 100.813 177.23 101.244C177.208 101.447 177.23 101.652 177.294 101.846C177.357 102.04 177.461 102.218 177.599 102.368C177.737 102.519 177.905 102.638 178.092 102.719C178.279 102.8 178.481 102.84 178.685 102.836C179.119 102.829 179.536 102.664 179.856 102.37C180.175 102.077 180.377 101.676 180.421 101.244C180.443 101.042 180.421 100.837 180.357 100.643C180.294 100.449 180.189 100.271 180.052 100.121C179.914 99.9703 179.746 99.8507 179.559 99.77C179.372 99.6893 179.17 99.6492 178.966 99.6525Z" fill="white"/>
<path d="M190.283 99.6525C189.85 99.6597 189.435 99.8259 189.116 100.119C188.797 100.413 188.598 100.813 188.555 101.244C188.533 101.447 188.555 101.652 188.619 101.846C188.683 102.04 188.787 102.218 188.924 102.368C189.062 102.519 189.23 102.638 189.417 102.719C189.604 102.8 189.807 102.84 190.01 102.836C190.444 102.829 190.859 102.663 191.178 102.37C191.496 102.076 191.696 101.676 191.739 101.244C191.76 101.042 191.738 100.837 191.675 100.643C191.611 100.449 191.507 100.271 191.369 100.121C191.232 99.9703 191.064 99.8507 190.877 99.77C190.689 99.6893 190.487 99.6492 190.283 99.6525Z" fill="white"/>
<path d="M214.306 176.761H187.296V203.771H214.306V176.761Z" fill="#EB7720"/>
<path d="M230.883 176.761H214.297V203.771H230.883V176.761Z" fill="#EB7720"/>
<path d="M209.143 169.983H182.134L187.296 176.76H214.298L209.143 169.983Z" fill="#EB7720"/>
<path opacity="0.3" d="M230.883 176.761H214.297V203.771H230.883V176.761Z" fill="white"/>
<path opacity="0.4" d="M209.143 169.983H182.134L187.296 176.76H214.298L209.143 169.983Z" fill="white"/>
<path d="M219.186 169.983H235.773L230.891 176.76H214.297L219.186 169.983Z" fill="#EB7720"/>
<path opacity="0.6" d="M214.306 176.761H187.296V203.771H214.306V176.761Z" fill="white"/>
<path opacity="0.2" d="M219.186 169.983H235.773L230.891 176.76H214.297L219.186 169.983Z" fill="white"/>
<path d="M290.299 203.103H222.227V271.175H290.299V203.103Z" fill="#EB7720"/>
<path opacity="0.4" d="M290.299 203.103H222.227V271.175H290.299V203.103Z" fill="white"/>
<path d="M222.211 203.103H180.397V271.175H222.211V203.103Z" fill="#EB7720"/>
<path opacity="0.6" d="M222.211 203.103H180.397V271.175H222.211V203.103Z" fill="white"/>
<path opacity="0.5" d="M193.314 203.103V221.387L194.975 222.259L196.407 221.069L198.674 222.259L200.827 221.069L202.495 222.259L204.405 221.069L205.489 222.047V203.103H193.314Z" fill="white"/>
<path opacity="0.5" d="M205.489 271.176V252.891L203.829 252.012L202.396 253.209L200.129 252.012L197.977 253.209L196.309 252.012L194.399 253.209L193.314 252.232V271.176H205.489Z" fill="white"/>
<path d="M250.009 230.862C250.395 232.416 250.585 233.197 250.971 234.751C251.07 235.168 251.123 235.38 251.229 235.805C251.616 237.359 251.805 238.14 252.192 239.694H262.289C262.236 240.103 262.213 240.308 262.168 240.717H252.866C252.965 241.141 253.01 241.354 253.109 241.771H262.896L263.214 239.694C263.449 238.14 263.57 237.359 263.805 235.805C263.874 235.38 263.904 235.168 263.965 234.751C264.2 233.197 264.321 232.416 264.556 230.862C264.609 230.544 264.632 230.385 264.677 230.066H268.202C268.301 229.649 268.354 229.437 268.46 229.02H263.57C263.479 229.778 263.434 230.119 263.35 230.862H250.009ZM262.896 234.751H260C260 233.614 260.045 233.045 260.083 231.908H263.229C263.062 233.045 263.002 233.614 262.896 234.751ZM259.863 238.64C259.863 237.503 259.916 236.934 259.947 235.805H262.752L262.41 238.64H259.863ZM256.073 235.805H258.87C258.87 236.934 258.87 237.503 258.87 238.64H256.316C256.247 237.503 256.194 236.934 256.073 235.805ZM255.717 231.908H258.863C258.863 233.045 258.863 233.614 258.863 234.751H255.997C255.891 233.614 255.838 233.045 255.74 231.908H255.717ZM252.23 235.805H255.035C255.171 236.934 255.247 237.503 255.391 238.64H252.836L252.23 235.805ZM251.396 231.908H254.557C254.693 233.045 254.769 233.614 254.906 234.751H252.01L251.396 231.908Z" fill="white"/>
<path d="M262.259 245.257C262.949 245.257 263.509 244.697 263.509 244.007C263.509 243.316 262.949 242.756 262.259 242.756C261.568 242.756 261.008 243.316 261.008 244.007C261.008 244.697 261.568 245.257 262.259 245.257Z" fill="white"/>
<path d="M253.382 245.257C254.072 245.257 254.632 244.697 254.632 244.007C254.632 243.316 254.072 242.756 253.382 242.756C252.691 242.756 252.131 243.316 252.131 244.007C252.131 244.697 252.691 245.257 253.382 245.257Z" fill="white"/>
<g opacity="0.5">
<path d="M192.087 230.862C192.474 232.416 192.663 233.197 193.05 234.751C193.148 235.168 193.201 235.38 193.307 235.805C193.694 237.359 193.884 238.14 194.27 239.694H204.368C204.315 240.103 204.292 240.308 204.246 240.717H194.96C195.059 241.141 195.104 241.354 195.203 241.771H204.959L205.277 239.694C205.512 238.14 205.634 237.359 205.869 235.805C205.929 235.38 205.967 235.168 206.028 234.751C206.263 233.197 206.384 232.416 206.619 230.862L206.74 230.066H210.273C210.371 229.649 210.425 229.437 210.531 229.02H205.641C205.55 229.778 205.505 230.119 205.421 230.862H192.087ZM204.974 234.751H202.078L202.162 231.908H205.285C205.156 233.045 205.088 233.614 204.959 234.751H204.974ZM201.942 238.64C201.98 237.503 201.995 236.934 202.025 235.805H204.83L204.489 238.64H201.942ZM198.189 235.805H200.987C200.987 236.934 200.987 237.503 200.987 238.64H198.462C198.341 237.503 198.288 236.934 198.189 235.805ZM197.825 231.908H200.979C200.979 233.045 200.979 233.614 200.979 234.751H198.083L197.825 231.908ZM194.346 235.805H197.151L197.5 238.64H194.952L194.346 235.805ZM193.512 231.908H196.666C196.802 233.045 196.878 233.614 197.014 234.751H194.119L193.512 231.908Z" fill="white"/>
<path d="M204.352 245.257C205.043 245.257 205.603 244.697 205.603 244.006C205.603 243.315 205.043 242.755 204.352 242.755C203.662 242.755 203.102 243.315 203.102 244.006C203.102 244.697 203.662 245.257 204.352 245.257Z" fill="white"/>
<path d="M195.475 245.257C196.166 245.257 196.726 244.697 196.726 244.006C196.726 243.315 196.166 242.755 195.475 242.755C194.785 242.755 194.225 243.315 194.225 244.006C194.225 244.697 194.785 245.257 195.475 245.257Z" fill="white"/>
</g>
<path d="M265.442 148.933C265.442 148.933 267.807 165.905 269.93 168.831C272.052 171.757 281.589 179.853 281.589 179.853L287.615 178.974L291.655 182.764L288.729 184.788L285.508 183.348C283.691 183.549 281.859 183.593 280.035 183.477C276.957 183.287 264.934 175.138 262.721 170.886C260.507 166.633 258.006 150.888 258.006 150.888L265.442 148.933Z" fill="#CE7A63"/>
<path d="M267.444 153.838L266.838 153.944C266.421 149.956 264.753 137.843 260.182 140.951C255.793 143.945 257.029 152.443 257.665 155.619L256.907 155.748L257.574 157.84L267.679 155.907L267.444 153.838Z" fill="#EB7720"/>
<path opacity="0.2" d="M263.654 145.825L262.539 143.429L259.045 146.947L257.036 149.979C257.092 151.877 257.31 153.766 257.688 155.626L256.93 155.755L257.597 157.848L263.297 156.756C263.933 153.147 264.053 149.467 263.654 145.825Z" fill="black"/>
<path d="M264.002 115.367C264.002 115.367 276.055 117.974 269.65 123.705L264.343 119.074L264.002 115.367Z" fill="#263238"/>
<path d="M280.732 242.635L273.061 261.427L267.739 259.357L272.03 240.679L280.732 242.635Z" fill="#CE7A63"/>
<path opacity="0.2" d="M272.408 239.352L269.384 252.52L275.941 253.983L281.111 241.3L272.408 239.352Z" fill="black"/>
<path d="M274.266 260.987C275.244 263.208 275.904 265.035 279.906 267.408C280.778 267.908 279.3 270.213 277.124 269.235C273.531 267.612 274.471 267.582 271.393 266.248C268.808 265.103 266.883 264.413 264.775 263.534C264.721 263.511 264.67 263.48 264.624 263.443C264.444 263.309 264.326 263.109 264.293 262.888C264.26 262.666 264.317 262.441 264.449 262.26L267.557 258.008C267.626 257.912 267.725 257.844 267.838 257.813C267.952 257.783 268.072 257.793 268.179 257.841L273.212 260.009C273.671 260.196 274.045 260.544 274.266 260.987Z" fill="#263238"/>
<path d="M297.902 198.471C296.924 210.6 279.504 250.692 279.504 250.692L269.164 247.812C269.164 247.812 277.063 209.296 282.218 202.921C282.218 202.921 280.535 202.921 277.829 202.974C268.406 203.057 246.567 203.042 240.268 201.367C235.773 200.169 226.38 197.766 228.897 182.726L240.541 182.324L254.102 181.854C254.102 181.854 299.282 181.93 297.902 198.471Z" fill="#263238"/>
<path opacity="0.2" d="M277.829 202.974C268.406 203.057 246.567 203.042 240.268 201.367C235.773 200.169 226.38 197.766 228.897 182.726L240.541 182.325C249.705 183.409 261.683 185.22 269.847 188.73C273.819 190.436 276.578 193.513 277.389 197.137C277.668 199.07 277.815 201.02 277.829 202.974Z" fill="black"/>
<path d="M262.751 241.967L258.915 261.124L253.146 260.858L253.829 241.702L262.751 241.967Z" fill="#CE7A63"/>
<path opacity="0.2" d="M262.751 241.967L253.829 241.702L253.435 253.156L260.462 253.407L262.751 241.967Z" fill="black"/>
<path d="M259.795 261.578C260.735 263.853 261.311 265.763 265.352 268.295C266.216 268.856 264.639 271.168 262.463 270.092C258.855 268.325 259.818 268.333 256.717 266.87C254.102 265.634 252.169 264.868 250.054 263.906L249.895 263.83C249.805 263.76 249.73 263.673 249.674 263.575C249.618 263.476 249.582 263.367 249.568 263.254C249.555 263.141 249.564 263.026 249.596 262.917C249.627 262.808 249.68 262.706 249.751 262.617L253.048 258.364C253.119 258.27 253.221 258.203 253.336 258.175C253.45 258.148 253.571 258.161 253.677 258.213L258.726 260.57C259.195 260.762 259.576 261.121 259.795 261.578Z" fill="#263238"/>
<path d="M222.09 182.688C222.09 182.688 218.793 194.537 224.243 199.214C231.861 205.756 259.386 203.762 259.386 203.762C254.633 218.976 252.51 249.199 252.51 249.199H262.827C262.827 249.199 276.881 207.856 274.804 197.167C272.727 186.479 235.856 182.696 235.856 182.696L222.09 182.688Z" fill="#263238"/>
<path d="M268.247 249.01L279.952 251.959L282.339 246.948L269.483 243.302L268.247 249.01Z" fill="#EB7720"/>
<path d="M251.487 250.67L263.427 251.284L264.662 246.031L251.487 245.417V250.67Z" fill="#EB7720"/>
<path d="M256.959 166.307C259.992 157.37 263.782 150.57 264.222 142.952C253.844 127.973 233.551 136.827 233.551 136.827C221.271 159.872 222.089 182.689 222.089 182.689C249.993 182.689 251.593 182.211 251.593 182.211C251.593 182.211 251.691 178.292 256.959 166.307Z" fill="#EB7720"/>
<path opacity="0.2" d="M247.591 136.387C248.038 139.025 248.97 143.786 250.077 144.476C251.593 145.401 253.868 144.104 253.868 144.104C253.868 144.104 255.71 146.598 257.658 144.938C258.752 143.891 259.605 142.618 260.16 141.208C259.586 142.185 258.862 143.065 258.014 143.816C256.043 145.469 254.224 142.982 254.224 142.982C254.224 142.982 251.95 144.271 250.434 143.354C249.433 142.755 248.265 138.987 247.591 136.387Z" fill="black"/>
<path d="M250.092 132.749L252.859 133.696L250.691 135.599L250.092 132.749Z" fill="#EB7720"/>
<path opacity="0.2" d="M250.092 132.749L252.859 133.696L250.691 135.599L250.092 132.749Z" fill="black"/>
<path d="M258.886 135.599L259.644 137.873C259.644 137.873 255.687 142.012 254.55 142.058C253.413 142.103 250.077 134.272 250.077 134.272C254.482 132.279 254.072 130.088 254.072 130.088L258.886 135.599Z" fill="#CE7A63"/>
<path opacity="0.2" d="M257.445 139.988C258.613 138.919 259.659 137.835 259.659 137.835L258.901 135.561L254.618 130.611C254.057 132.802 253.511 137.305 257.445 139.988Z" fill="black"/>
<path d="M261.145 139.48C260.432 141.148 259.379 142.648 258.052 143.885C256.073 145.537 254.261 143.058 254.261 143.058C254.261 143.058 251.987 144.339 250.471 143.422C248.955 142.505 246.976 134.09 246.976 134.09L250.092 132.749L254.383 141.845L260.167 137.062L261.145 139.48Z" fill="#EB7720"/>
<path d="M253.92 122.401C253.914 121.055 254.262 119.731 254.929 118.562C255.596 117.393 256.559 116.421 257.722 115.742C258.884 115.063 260.204 114.701 261.55 114.694C262.896 114.687 264.22 115.034 265.39 115.7C270.893 118.664 271.045 127.321 269.407 132.377C269.012 133.706 268.26 134.9 267.233 135.83C266.206 136.761 264.943 137.392 263.583 137.656C262.222 137.919 260.816 137.804 259.516 137.324C258.216 136.844 257.072 136.017 256.21 134.932C253.511 131.612 253.86 128.208 253.935 122.363L253.92 122.401Z" fill="#CE7A63"/>
<path d="M264.168 126.025C264.487 126.025 264.684 126.487 264.601 126.949C264.517 127.412 264.237 127.707 263.926 127.707C263.615 127.707 263.418 127.245 263.494 126.783C263.57 126.32 263.85 126.002 264.168 126.025Z" fill="#263238"/>
<path d="M269.422 127.01C269.748 127.01 269.945 127.458 269.869 127.928C269.794 128.398 269.498 128.686 269.18 128.686C268.861 128.686 268.679 128.231 268.747 127.761C268.816 127.291 269.104 126.972 269.422 127.01Z" fill="#263238"/>
<path d="M262.759 124.918C263.03 124.708 263.348 124.566 263.686 124.504C264.023 124.442 264.371 124.462 264.699 124.562C264.767 124.584 264.84 124.578 264.904 124.547C264.967 124.516 265.016 124.462 265.04 124.395C265.061 124.325 265.056 124.251 265.025 124.185C264.994 124.119 264.94 124.067 264.874 124.039C264.451 123.912 264.004 123.89 263.571 123.974C263.137 124.059 262.731 124.247 262.387 124.524C262.347 124.55 262.316 124.588 262.297 124.632C262.279 124.676 262.274 124.724 262.283 124.771C262.291 124.818 262.314 124.862 262.348 124.896C262.381 124.93 262.424 124.953 262.471 124.963C262.517 124.988 262.57 124.997 262.622 124.989C262.674 124.981 262.722 124.956 262.759 124.918Z" fill="#263238"/>
<path d="M270.748 126.396C270.81 126.357 270.854 126.296 270.871 126.225C270.888 126.154 270.876 126.08 270.839 126.017C270.624 125.629 270.32 125.297 269.953 125.048C269.586 124.799 269.165 124.641 268.724 124.584C268.666 124.586 268.61 124.607 268.565 124.644C268.519 124.681 268.488 124.732 268.474 124.789C268.465 124.825 268.463 124.861 268.469 124.897C268.474 124.933 268.487 124.968 268.506 124.999C268.525 125.03 268.55 125.057 268.58 125.078C268.61 125.1 268.643 125.115 268.679 125.123C269.035 125.177 269.373 125.312 269.667 125.519C269.962 125.725 270.205 125.997 270.377 126.313C270.397 126.353 270.427 126.387 270.465 126.412C270.502 126.437 270.545 126.453 270.589 126.457C270.647 126.452 270.702 126.431 270.748 126.396Z" fill="#263238"/>
<path d="M266.306 132.18C266.663 132.343 267.051 132.427 267.443 132.427C267.836 132.427 268.224 132.343 268.581 132.18C267.885 130.766 267.375 129.268 267.064 127.723L266.306 132.18Z" fill="#BA4D3C"/>
<path d="M253.556 126.184C251.282 117.921 254.959 115.768 258.931 114.283C262.903 112.797 265.109 114.222 266.375 115.617C266.769 116.056 267.558 117.375 265.011 117.55C263.468 117.609 261.924 117.49 260.409 117.194C260.106 117.141 259.795 117.172 259.509 117.284C259.223 117.397 258.973 117.586 258.787 117.83C257.908 118.983 256.513 121.135 256.513 123.015C256.566 123.731 256.462 124.449 256.208 125.119C255.953 125.79 255.556 126.396 255.042 126.897L253.556 126.184Z" fill="#263238"/>
<path d="M250.691 167.709C250.889 167.711 251.082 167.771 251.245 167.882C251.409 167.993 251.536 168.151 251.611 168.334C251.685 168.517 251.703 168.719 251.663 168.913C251.623 169.106 251.526 169.284 251.385 169.423C251.244 169.562 251.065 169.656 250.871 169.693C250.677 169.73 250.476 169.709 250.293 169.631C250.111 169.554 249.956 169.425 249.847 169.259C249.738 169.094 249.681 168.9 249.683 168.702C249.683 168.57 249.709 168.439 249.76 168.317C249.812 168.195 249.887 168.084 249.981 167.992C250.076 167.899 250.188 167.827 250.311 167.778C250.435 167.73 250.566 167.706 250.698 167.709H250.691Z" fill="#EB7720"/>
<path d="M248.493 178.292C248.624 178.292 248.754 178.318 248.876 178.368C248.997 178.418 249.107 178.492 249.2 178.585C249.293 178.678 249.367 178.788 249.417 178.91C249.468 179.031 249.493 179.161 249.493 179.293C249.493 179.424 249.468 179.554 249.417 179.676C249.367 179.797 249.293 179.907 249.2 180C249.107 180.093 248.997 180.167 248.876 180.217C248.754 180.267 248.624 180.293 248.493 180.293C248.227 180.291 247.972 180.184 247.785 179.995C247.597 179.806 247.492 179.551 247.492 179.285C247.492 179.154 247.518 179.024 247.569 178.903C247.619 178.782 247.693 178.672 247.786 178.58C247.879 178.488 247.989 178.415 248.11 178.365C248.232 178.316 248.362 178.291 248.493 178.292Z" fill="#EB7720"/>
<path d="M253.617 124.319C255.224 124.607 255.997 126.874 256.012 128.36C256.028 129.845 254.875 131.157 253.458 130.209C252.382 129.466 251.624 128.346 251.335 127.071C251.024 125.471 252.017 124.001 253.617 124.319Z" fill="#CE7A63"/>
<path d="M260.955 132.097C262.696 132.588 264.387 133.246 266.003 134.06C265.505 134.594 264.838 134.94 264.114 135.039C263.391 135.138 262.655 134.985 262.031 134.606C261.789 134.52 261.568 134.386 261.381 134.21C261.193 134.035 261.045 133.823 260.943 133.587C260.842 133.351 260.791 133.097 260.793 132.841C260.795 132.584 260.85 132.331 260.955 132.097Z" fill="#263238"/>
<path d="M263.282 134.174C262.586 133.802 261.789 133.661 261.008 133.772C261.248 134.157 261.599 134.458 262.016 134.636C262.712 135.009 263.509 135.15 264.29 135.038C264.056 134.648 263.703 134.345 263.282 134.174Z" fill="#A02724"/>
<path d="M261.137 132.142C261.11 132.291 261.126 132.445 261.182 132.586C261.238 132.726 261.333 132.848 261.455 132.938C262.528 133.434 263.641 133.838 264.783 134.143C264.958 134.209 265.147 134.23 265.333 134.204C265.518 134.177 265.694 134.104 265.844 133.992C264.325 133.254 262.751 132.636 261.137 132.142Z" fill="white"/>
<path d="M266.941 187.752L280.662 187.826L280.674 185.62L266.953 185.546L266.941 187.752Z" fill="#263238"/>
<path d="M268.07 187.761L250.635 187.667C250.5 187.666 250.366 187.639 250.241 187.586C250.116 187.534 250.003 187.457 249.908 187.361C249.813 187.264 249.737 187.15 249.686 187.025C249.635 186.9 249.609 186.765 249.61 186.63L249.616 185.463L268.082 185.563L268.07 187.769L268.07 187.761Z" fill="#263238"/>
<path opacity="0.3" d="M268.07 187.761L250.635 187.667C250.5 187.666 250.366 187.639 250.241 187.586C250.116 187.534 250.003 187.457 249.908 187.361C249.813 187.264 249.737 187.15 249.686 187.025C249.635 186.9 249.609 186.765 249.61 186.63L249.616 185.463L268.082 185.563L268.07 187.769L268.07 187.761Z" fill="white"/>
<path d="M263.102 187.024L265.308 187.036L265.312 186.255L263.106 186.243L263.102 187.024Z" fill="#263238"/>
<path d="M259.66 187.02L261.866 187.032L261.87 186.251L259.664 186.239L259.66 187.02Z" fill="#263238"/>
<path d="M270.688 185.585L269.225 185.577L275.062 165.701L276.525 165.708L270.688 185.585Z" fill="#263238"/>
<path opacity="0.3" d="M270.688 185.585L269.225 185.577L275.062 165.701L276.525 165.708L270.688 185.585Z" fill="white"/>
<path d="M270.149 185.584L295.9 185.721L301.737 165.837L275.986 165.701L270.149 185.584Z" fill="#263238"/>
<path opacity="0.6" d="M270.149 185.584L295.9 185.721L301.737 165.837L275.986 165.701L270.149 185.584Z" fill="white"/>
<path d="M268.892 185.577L295.696 185.721C296.143 185.721 296.507 186.221 296.507 186.827C296.507 187.434 296.136 187.927 295.681 187.927L268.877 187.783C268.429 187.783 268.065 187.282 268.065 186.676C268.065 186.069 268.437 185.577 268.892 185.577Z" fill="#263238"/>
<path opacity="0.5" d="M268.892 185.577L295.696 185.721C296.143 185.721 296.507 186.221 296.507 186.827C296.507 187.434 296.136 187.927 295.681 187.927L268.877 187.783C268.429 187.783 268.065 187.282 268.065 186.676C268.065 186.069 268.437 185.577 268.892 185.577Z" fill="white"/>
<path d="M268.065 186.676C268.065 187.282 268.429 187.775 268.877 187.783C269.324 187.79 269.695 187.29 269.703 186.683C269.71 186.077 269.339 185.577 268.892 185.577C268.444 185.577 268.073 186.069 268.065 186.676Z" fill="#263238"/>
<path opacity="0.3" d="M268.065 186.676C268.065 187.282 268.429 187.775 268.877 187.783C269.324 187.79 269.695 187.29 269.703 186.683C269.71 186.077 269.339 185.577 268.892 185.577C268.444 185.577 268.073 186.069 268.065 186.676Z" fill="white"/>
<path opacity="0.2" d="M242.754 167.171C241.518 165.473 240.207 159.182 239.29 153.981L240.48 153.754L240.199 151.601L239.578 151.715C239.146 147.652 237.463 135.432 232.907 138.07C231.581 140.647 230.413 143.24 229.397 145.802C229.307 148.364 229.526 150.926 230.049 153.436L229.291 153.572L229.989 155.748L231.603 155.444C232.566 160.463 233.968 166.815 235.272 169.332C236.985 172.637 244.369 178.155 249.311 180.839C254.868 179.853 256.134 179.156 256.134 179.156C255.975 178.947 255.845 178.717 255.747 178.474L254.852 178.603C254.852 178.603 244.96 170.211 242.754 167.171Z" fill="black"/>
<path d="M241.397 146.59C241.397 146.59 243.019 164.306 245.081 167.444C247.143 170.582 256.641 179.452 256.641 179.452L262.933 178.83L266.936 182.992L263.805 184.963L260.53 183.302C258.635 183.427 256.733 183.384 254.845 183.174C251.669 182.825 239.593 173.819 237.501 169.271C235.409 164.723 233.582 148.296 233.582 148.296L241.397 146.59Z" fill="#CE7A63"/>
<path d="M242.808 150.411L242.179 150.525C241.747 146.386 240.011 133.802 235.273 137.031C230.724 140.139 231.99 148.963 232.657 152.261L231.899 152.397L232.597 154.573L243.088 152.564L242.808 150.411Z" fill="#EB7720"/>
<path d="M89.471 211.161L87.6592 211.063L88.0837 202.845C88.2574 200.121 89.4536 197.564 91.4328 195.684C93.412 193.805 96.0281 192.743 98.7572 192.71C100.081 192.697 101.392 192.957 102.611 193.473C103.829 193.99 104.928 194.752 105.839 195.713C106.749 196.673 107.452 197.811 107.903 199.055C108.354 200.299 108.544 201.623 108.46 202.944L108.028 211.161L106.217 211.063L106.649 202.845C106.721 201.769 106.57 200.69 106.205 199.675C105.84 198.661 105.268 197.733 104.527 196.949C103.786 196.166 102.891 195.545 101.898 195.124C100.905 194.704 99.8355 194.494 98.7572 194.507C96.4912 194.535 94.3195 195.418 92.6774 196.98C91.0354 198.542 90.0444 200.667 89.903 202.929L89.471 211.161Z" fill="#263238"/>
<path d="M128.336 207.507H74.7646L72.9453 271.069L80.8896 269.25L88.8339 271.069H130.155L128.336 207.507Z" fill="#EB7720"/>
<path opacity="0.6" d="M128.336 207.507H74.7646L72.9453 271.069L80.8896 269.25L88.8339 271.069H130.155L128.336 207.507Z" fill="white"/>
<path d="M88.8339 271.069L80.8896 269.25L72.9453 271.069L74.7646 207.507H87.0222L88.8339 271.069Z" fill="#EB7720"/>
<path opacity="0.3" d="M88.8339 271.069L80.8896 269.25L72.9453 271.069L74.7646 207.507H87.0222L88.8339 271.069Z" fill="white"/>
<path d="M116.995 211.161L116.594 202.944C116.452 200.681 115.46 198.555 113.816 196.993C112.173 195.431 109.999 194.548 107.732 194.522C106.654 194.51 105.586 194.721 104.594 195.142C103.602 195.563 102.707 196.184 101.967 196.967C101.227 197.751 100.656 198.678 100.291 199.692C99.9268 200.707 99.7758 201.785 99.848 202.86L100.28 211.078L98.4683 211.176L98.0362 202.959C97.9517 201.639 98.1405 200.315 98.5907 199.071C99.041 197.827 99.7431 196.689 100.653 195.728C101.563 194.768 102.661 194.005 103.879 193.489C105.097 192.972 106.409 192.712 107.732 192.725C110.462 192.756 113.079 193.818 115.058 195.698C117.038 197.577 118.233 200.136 118.405 202.86L118.838 211.078L116.995 211.161Z" fill="#263238"/>
<g opacity="0.2">
<path d="M116.995 211.161L116.594 202.944C116.452 200.681 115.46 198.555 113.816 196.993C112.173 195.431 109.999 194.548 107.732 194.522C106.654 194.51 105.586 194.721 104.594 195.142C103.602 195.563 102.707 196.184 101.967 196.967C101.227 197.751 100.656 198.678 100.291 199.692C99.9268 200.707 99.7758 201.785 99.848 202.86L100.28 211.078L98.4683 211.176L98.0362 202.959C97.9517 201.639 98.1405 200.315 98.5907 199.071C99.041 197.827 99.7431 196.689 100.653 195.728C101.563 194.768 102.661 194.005 103.879 193.489C105.097 192.972 106.409 192.712 107.732 192.725C110.462 192.756 113.079 193.818 115.058 195.698C117.038 197.577 118.233 200.136 118.405 202.86L118.838 211.078L116.995 211.161Z" fill="white"/>
</g>
<path d="M121.097 230.718H96.1867C95.6257 230.718 95.1709 231.173 95.1709 231.734V235.759C95.1709 236.32 95.6257 236.775 96.1867 236.775H121.097C121.658 236.775 122.113 236.32 122.113 235.759V231.734C122.113 231.173 121.658 230.718 121.097 230.718Z" fill="white"/>
<path d="M64.8494 230.908L63.6289 230.84L63.917 225.337C64.0261 223.505 64.825 221.783 66.1528 220.517C67.4806 219.252 69.2387 218.536 71.0731 218.514C71.9569 218.505 72.8331 218.678 73.6473 219.022C74.4615 219.366 75.1963 219.874 75.8062 220.513C76.416 221.153 76.888 221.911 77.1926 222.741C77.4973 223.571 77.6282 224.454 77.5773 225.337L77.2892 230.848L76.0763 230.779L76.3644 225.276C76.4104 224.554 76.3068 223.831 76.06 223.151C75.8133 222.472 75.4287 221.851 74.9304 221.327C74.4321 220.803 73.8309 220.388 73.1645 220.107C72.4981 219.826 71.7809 219.687 71.0579 219.697C69.5396 219.715 68.0841 220.306 66.9834 221.352C65.8826 222.398 65.2178 223.821 65.1223 225.337L64.8494 230.908Z" fill="#263238"/>
<path d="M90.9034 228.459H54.9873L53.7744 271.069L59.0959 269.849L64.4249 271.069H92.1239L90.9034 228.459Z" fill="#EB7720"/>
<path d="M64.4249 271.069L59.0959 269.849L53.7744 271.069L54.9873 228.459H63.2045L64.4249 271.069Z" fill="#EB7720"/>
<path opacity="0.2" d="M64.4249 271.069L59.0959 269.849L53.7744 271.069L54.9873 228.459H63.2045L64.4249 271.069Z" fill="black"/>
<path d="M83.3007 230.908L83.0127 225.397C82.9067 223.884 82.2377 222.466 81.1375 221.422C80.0374 220.378 78.5859 219.784 77.0694 219.757C76.3458 219.745 75.6276 219.883 74.9601 220.163C74.2927 220.443 73.6905 220.858 73.1918 221.382C72.693 221.907 72.3085 222.529 72.0626 223.209C71.8167 223.89 71.7146 224.614 71.763 225.336L72.051 230.84L70.8381 230.908L70.5425 225.397C70.4927 224.515 70.6244 223.632 70.9295 222.803C71.2346 221.974 71.7065 221.216 72.3162 220.576C72.9258 219.937 73.6602 219.429 74.4739 219.085C75.2875 218.741 76.1632 218.567 77.0467 218.574C78.8811 218.596 80.6392 219.312 81.967 220.578C83.2948 221.844 84.0937 223.566 84.2028 225.397L84.4909 230.901L83.3007 230.908Z" fill="#263238"/>
<g opacity="0.2">
<path d="M83.3007 230.908L83.0127 225.397C82.9067 223.884 82.2377 222.465 81.1375 221.421C80.0374 220.377 78.5859 219.783 77.0694 219.757C76.3458 219.744 75.6276 219.883 74.9601 220.162C74.2927 220.442 73.6905 220.857 73.1918 221.382C72.693 221.906 72.3085 222.528 72.0626 223.209C71.8167 223.89 71.7146 224.614 71.763 225.336L72.051 230.839L70.8381 230.908L70.5425 225.397C70.4927 224.514 70.6244 223.631 70.9295 222.802C71.2346 221.973 71.7065 221.215 72.3162 220.576C72.9258 219.936 73.6602 219.429 74.4739 219.084C75.2875 218.74 76.1632 218.566 77.0467 218.574C78.8811 218.596 80.6392 219.311 81.967 220.577C83.2948 221.843 84.0937 223.565 84.2028 225.397L84.4909 230.9L83.3007 230.908Z" fill="white"/>
</g>
<path d="M85.7112 244.022H69.6857C69.1247 244.022 68.6699 244.477 68.6699 245.038V247.062C68.6699 247.623 69.1247 248.078 69.6857 248.078H85.7112C86.2722 248.078 86.727 247.623 86.727 247.062V245.038C86.727 244.477 86.2722 244.022 85.7112 244.022Z" fill="white"/>
<path d="M120.141 266.907L114.372 266.308L114.66 252.83L120.429 253.429L120.141 266.907Z" fill="#B55B52"/>
<path d="M168.944 247.577L163.781 250.208L156.019 239.079L161.189 236.449L168.944 247.577Z" fill="#B55B52"/>
<path d="M162.704 249.487L168.011 245.697C168.101 245.631 168.212 245.6 168.324 245.61C168.436 245.619 168.54 245.669 168.617 245.75L172.21 249.54C172.298 249.638 172.364 249.753 172.404 249.878C172.444 250.002 172.457 250.134 172.443 250.264C172.428 250.394 172.387 250.52 172.321 250.633C172.254 250.746 172.165 250.844 172.059 250.92C170.186 252.209 169.216 252.732 166.881 254.4C165.449 255.423 163.455 257.068 161.476 258.478C159.498 259.888 157.989 258.008 158.687 257.242C161.817 253.808 161.62 252.292 162.121 250.359C162.205 250.008 162.412 249.699 162.704 249.487Z" fill="#263238"/>
<path d="M113.879 265.58L120.361 266.255C120.472 266.264 120.576 266.314 120.653 266.395C120.73 266.476 120.774 266.583 120.778 266.695L120.982 271.903C120.983 272.034 120.956 272.164 120.903 272.284C120.85 272.404 120.773 272.511 120.675 272.599C120.578 272.687 120.463 272.754 120.339 272.795C120.214 272.835 120.082 272.849 119.951 272.835C117.677 272.555 116.623 272.312 113.773 272.016C112.014 271.827 106.951 271.486 104.54 271.258C102.129 271.031 102.266 268.597 103.274 268.484C107.891 267.983 111.226 266.968 112.879 265.853C113.17 265.648 113.524 265.551 113.879 265.58Z" fill="#263238"/>
<g opacity="0.2">
<path d="M114.66 252.83L114.509 259.781L120.285 260.38L120.429 253.436L114.66 252.83Z" fill="black"/>
<path d="M161.19 236.456L156.02 239.087L160.022 244.818L165.192 242.187L161.19 236.456Z" fill="black"/>
</g>
<path d="M117.419 136.395C117.419 136.395 111.438 180.914 111.286 198.607C111.105 217.013 113.439 258.326 113.439 258.326L121.24 259.137C121.24 259.137 124.408 218.506 125.667 200.472C127.046 180.801 134.687 136.948 134.687 136.948L117.419 136.395Z" fill="#263238"/>
<path d="M121.861 259.478L112.704 258.523L112.34 255.536L122.627 256.249L121.861 259.478Z" fill="#EB7720"/>
<path opacity="0.6" d="M127.206 147.818C121.05 159.272 125.007 180.641 126.804 188.601C128.222 176.775 130.45 162.335 132.163 151.737C131.496 145.688 130.064 142.55 127.206 147.818Z" fill="black"/>
<path d="M123.635 136.592C123.635 136.592 127.508 183.189 131.064 198.221C135.286 216.073 158.164 244.257 158.164 244.257L165.213 240.671C165.213 240.671 149.711 209.349 146.353 199.904C139.175 179.762 146.793 150.32 140.964 137.138L123.635 136.592Z" fill="#263238"/>
<path d="M166.215 240.626L157.467 245.075L155.14 242.801L165.192 237.101L166.215 240.626Z" fill="#EB7720"/>
<path d="M160.666 251.868H160.597C160.464 251.851 160.338 251.8 160.232 251.718C160.125 251.637 160.042 251.529 159.991 251.405C159.949 251.334 159.927 251.253 159.927 251.17C159.927 251.088 159.949 251.007 159.991 250.935C160.362 250.291 162.455 250.177 162.69 250.177C162.717 250.177 162.744 250.184 162.767 250.199C162.79 250.214 162.808 250.235 162.818 250.261C162.835 250.281 162.844 250.306 162.844 250.333C162.844 250.359 162.835 250.384 162.818 250.405C162.311 250.973 161.393 251.891 160.666 251.868ZM162.371 250.473C161.537 250.534 160.423 250.731 160.226 251.064C160.207 251.096 160.197 251.133 160.197 251.17C160.197 251.208 160.207 251.244 160.226 251.276C160.26 251.359 160.315 251.431 160.385 251.486C160.456 251.54 160.539 251.575 160.628 251.587C161.022 251.671 161.666 251.223 162.371 250.473Z" fill="#EB7720"/>
<path d="M162.5 250.457C161.78 250.457 160.469 250.056 160.226 249.502C160.182 249.403 160.173 249.291 160.203 249.186C160.232 249.08 160.296 248.989 160.386 248.926C160.461 248.853 160.552 248.798 160.652 248.765C160.752 248.733 160.858 248.723 160.962 248.737C161.803 248.828 162.773 250.177 162.819 250.253C162.83 250.274 162.836 250.297 162.836 250.321C162.836 250.345 162.83 250.368 162.819 250.389C162.808 250.411 162.792 250.429 162.772 250.442C162.752 250.456 162.729 250.463 162.705 250.465C162.637 250.47 162.568 250.467 162.5 250.457ZM160.886 249.009C160.827 249.004 160.767 249.012 160.711 249.032C160.655 249.051 160.603 249.082 160.56 249.123C160.431 249.244 160.446 249.328 160.469 249.388C160.636 249.76 161.72 250.147 162.425 250.184C162.076 249.752 161.424 249.062 160.909 249.009H160.886Z" fill="#EB7720"/>
<path d="M111.613 266.361C111.114 266.355 110.633 266.178 110.248 265.861C110.164 265.77 110.103 265.659 110.071 265.539C110.039 265.418 110.038 265.292 110.066 265.171C110.079 265.096 110.111 265.025 110.159 264.965C110.207 264.906 110.269 264.859 110.339 264.83C111.097 264.519 113.265 265.929 113.508 266.096C113.532 266.11 113.552 266.131 113.562 266.157C113.573 266.184 113.576 266.212 113.568 266.24C113.562 266.268 113.547 266.294 113.525 266.313C113.503 266.332 113.476 266.343 113.447 266.346C112.838 266.408 112.223 266.414 111.613 266.361ZM110.703 265.057C110.618 265.04 110.53 265.04 110.445 265.057C110.417 265.07 110.392 265.09 110.373 265.115C110.355 265.14 110.343 265.17 110.339 265.201C110.318 265.279 110.317 265.361 110.337 265.44C110.357 265.518 110.397 265.59 110.453 265.648C110.771 266.005 111.711 266.156 113.015 266.081C112.306 265.614 111.525 265.268 110.703 265.057Z" fill="#EB7720"/>
<path d="M113.417 266.346C113.417 266.346 113.379 266.346 113.364 266.346C112.712 265.967 111.476 264.58 111.65 263.935C111.696 263.784 111.825 263.602 112.204 263.602C112.345 263.599 112.486 263.625 112.617 263.68C112.747 263.735 112.865 263.817 112.962 263.92C113.621 264.602 113.599 266.194 113.591 266.232C113.592 266.256 113.586 266.279 113.574 266.299C113.562 266.32 113.544 266.336 113.523 266.346C113.489 266.359 113.451 266.359 113.417 266.346ZM112.287 263.86H112.204C111.954 263.86 111.931 263.951 111.916 263.988C111.817 264.375 112.636 265.444 113.295 265.944C113.305 265.283 113.111 264.635 112.742 264.087C112.621 263.961 112.461 263.881 112.287 263.86Z" fill="#EB7720"/>
<path d="M114.933 112.729C112.786 115.596 110.381 118.261 107.747 120.688C106.353 121.996 104.829 123.157 103.198 124.153C102.237 124.742 101.202 125.201 100.121 125.517C99.4358 125.715 98.7259 125.812 98.0132 125.805C97.5874 125.8 97.1632 125.752 96.7472 125.661C96.5349 125.608 96.3075 125.54 96.0953 125.464C95.846 125.377 95.605 125.268 95.3751 125.138C94.8391 124.849 94.3713 124.448 94.003 123.963C93.7206 123.605 93.4885 123.209 93.3132 122.788C93.0535 122.178 92.8776 121.535 92.7901 120.878C92.6569 119.86 92.6188 118.832 92.6764 117.808C92.8027 115.995 93.056 114.194 93.4344 112.418C94.1288 108.991 95.0764 105.621 96.2696 102.335L99.408 103.147C98.9607 106.444 98.5438 109.81 98.2936 113.07C98.1563 114.65 98.1158 116.237 98.1724 117.823C98.1871 118.499 98.271 119.172 98.4225 119.832C98.4594 120.014 98.5233 120.191 98.612 120.355C98.6575 120.43 98.612 120.195 98.1724 119.915C98.0132 119.839 98.0662 119.847 98.0283 119.839C98.1602 119.809 98.2895 119.769 98.4149 119.718C98.9495 119.5 99.458 119.223 99.9311 118.892C101.146 118.024 102.289 117.061 103.35 116.011C104.479 114.912 105.563 113.737 106.632 112.501C107.701 111.265 108.77 110.007 109.748 108.802L114.933 112.729Z" fill="#B55B52"/>
<path d="M113.667 104.382C111.294 103.731 104.252 112.721 104.252 112.721L110.984 120.234C110.984 120.234 118.875 113.108 118.564 109.916C118.269 106.581 117.139 105.368 113.667 104.382Z" fill="#EB7720"/>
<path d="M99.4914 102.336L99.2261 97.6128L94.6777 101.358C94.6777 101.358 95.3676 105.019 97.6645 105.747L99.0821 103.753C99.3723 103.339 99.5163 102.84 99.4914 102.336Z" fill="#B55B52"/>
<path d="M96.2627 93.7168L92.624 97.0674L94.6708 101.343L99.2268 97.5981L96.2627 93.7168Z" fill="#B55B52"/>
<path d="M94.4124 102.851L93.3587 102.472C93.0741 102.365 92.8361 102.162 92.6864 101.897C92.5368 101.632 92.4849 101.324 92.54 101.025L94.1395 92.519L97.0125 93.5652L96.1256 101.783C96.1066 101.977 96.0432 102.164 95.9403 102.33C95.8374 102.496 95.6978 102.636 95.5322 102.739C95.3667 102.842 95.1796 102.906 94.9854 102.926C94.7912 102.945 94.5952 102.92 94.4124 102.851Z" fill="#263238"/>
<path d="M101.986 92.0488C102.168 91.5561 102.342 91.0709 102.501 90.5858C101.854 89.5426 100.988 88.6527 99.962 87.978C99.5829 88.9104 99.2039 89.8884 98.8324 90.8966C98.461 91.9048 98.1274 92.8979 97.8242 93.8606C99.0442 94.0019 100.28 93.8777 101.448 93.4967C101.63 93.0192 101.812 92.5416 101.986 92.0488Z" fill="#263238"/>
<path d="M100.083 91.3594C100.531 90.1785 100.854 88.9538 101.046 87.7055L91.6228 84.2715L89.0605 91.3139L98.4909 94.7555C99.1376 93.6816 99.6711 92.5435 100.083 91.3594Z" fill="#EB7720"/>
<path opacity="0.6" d="M100.083 91.3594C100.531 90.1785 100.854 88.9538 101.046 87.7055L91.6228 84.2715L89.0605 91.3139L98.4909 94.7555C99.1376 93.6816 99.6711 92.5435 100.083 91.3594Z" fill="white"/>
<path d="M94.072 84.5067C93.6475 84.3475 83.4591 73.8938 82.322 73.4466C81.1849 72.9993 78.4331 77.1535 76.4015 82.7328C74.3699 88.3122 73.7331 93.1941 74.9688 93.649C76.2044 94.1038 90.6455 92.5801 91.0776 92.7317C91.5097 92.8833 92.662 91.2156 93.4883 88.9414C94.3146 86.6672 94.6102 84.6886 94.072 84.5067Z" fill="#EB7720"/>
<path opacity="0.4" d="M94.072 84.5067C93.6475 84.3475 83.4591 73.8938 82.322 73.4466C81.1849 72.9993 78.4331 77.1535 76.4015 82.7328C74.3699 88.3122 73.7331 93.1941 74.9688 93.649C76.2044 94.1038 90.6455 92.5801 91.0776 92.7317C91.5097 92.8833 92.662 91.2156 93.4883 88.9414C94.3146 86.6672 94.6102 84.6886 94.072 84.5067Z" fill="white"/>
<path d="M80.8893 84.3629C78.8577 89.9422 76.2044 94.0964 74.9688 93.6492C73.7331 93.2019 74.3699 88.3427 76.4015 82.7331C78.4331 77.1234 81.0864 72.9995 82.322 73.4468C83.5576 73.894 82.9209 78.7911 80.8893 84.3629Z" fill="#EB7720"/>
<path d="M77.9325 83.2708C77.7961 83.6423 77.6672 84.0289 77.5459 84.37C78.2455 85.2472 79.1014 85.9874 80.0703 86.5532C80.3583 85.8558 80.6464 85.1205 80.9269 84.3624C81.2073 83.6043 81.4499 82.8463 81.6849 82.1337C80.5793 81.9456 79.4485 81.9636 78.3495 82.1868C78.1599 82.5431 78.0235 82.9069 77.9325 83.2708Z" fill="#263238"/>
<path opacity="0.7" d="M77.9325 83.2708C77.7961 83.6423 77.6672 84.0289 77.5459 84.37C78.2455 85.2472 79.1014 85.9874 80.0703 86.5532C80.3583 85.8558 80.6464 85.1205 80.9269 84.3624C81.2073 83.6043 81.4499 82.8463 81.6849 82.1337C80.5793 81.9456 79.4485 81.9636 78.3495 82.1868C78.1599 82.5431 78.0235 82.9069 77.9325 83.2708Z" fill="white"/>
<path opacity="0.2" d="M111.681 109.666C112.029 114.707 110.854 117.709 110.021 119.157L110.983 120.226C110.983 120.226 115.433 116.208 117.525 112.858C115.175 109.371 111.286 104.367 111.681 109.666Z" fill="black"/>
<path d="M138.182 80.9971C141.343 80.9971 143.906 78.4346 143.906 75.2737C143.906 72.1127 141.343 69.5503 138.182 69.5503C135.021 69.5503 132.459 72.1127 132.459 75.2737C132.459 78.4346 135.021 80.9971 138.182 80.9971Z" fill="#263238"/>
<path d="M137.568 77.8813C137.569 78.5938 137.359 79.2907 136.965 79.8839C136.57 80.477 136.008 80.9397 135.35 81.2134C134.692 81.4871 133.968 81.5595 133.269 81.4214C132.57 81.2833 131.928 80.941 131.424 80.4377C130.919 79.9344 130.576 79.2929 130.436 78.5942C130.296 77.8955 130.367 77.1711 130.64 76.5127C130.912 75.8543 131.373 75.2915 131.966 74.8955C132.558 74.4995 133.255 74.2881 133.967 74.2881C134.921 74.2881 135.835 74.6664 136.51 75.3401C137.186 76.0137 137.566 76.9276 137.568 77.8813Z" fill="#EB7720"/>
<path d="M122.537 73.4165C122.537 73.4165 114.956 72.7949 114.956 85.8336C114.956 94.7636 119.292 98.8951 124.606 95.8931C124.606 95.8931 136.326 94.9304 137.675 84.2038C139.025 73.4772 130.731 69.4822 122.537 73.4165Z" fill="#263238"/>
<path d="M112.12 104.731C112.12 104.731 109.429 105.898 117.426 139.442L140.926 137.736C139.834 128.2 139.41 122.31 142.54 102.351C139.201 101.911 135.834 101.713 132.466 101.759C128.895 101.76 125.328 102.013 121.793 102.518C117.237 103.291 112.12 104.731 112.12 104.731Z" fill="#EB7720"/>
<path d="M130.526 89.8203C130.102 93.3074 129.89 99.6751 132.459 101.76C132.459 101.76 131.777 105.308 125.394 105.778C118.382 106.285 121.786 102.533 121.786 102.533C125.576 101.343 125.243 98.5077 124.386 95.8924L130.526 89.8203Z" fill="#B55B52"/>
<path opacity="0.2" d="M128.024 92.2988L124.386 95.8921C124.596 96.4991 124.753 97.123 124.856 97.7569C126.304 97.4385 128.191 95.6874 128.237 94.1485C128.279 93.5242 128.208 92.8973 128.024 92.2988Z" fill="black"/>
<path d="M134.453 84.0291C133.141 89.6312 132.701 92.0343 129.343 94.4525C124.294 98.0912 117.699 95.2485 117.313 89.3659C116.964 84.0594 119.17 75.7965 125.106 74.4851C126.411 74.1916 127.77 74.2367 129.054 74.616C130.337 74.9953 131.502 75.6963 132.439 76.6524C133.375 77.6086 134.052 78.7881 134.404 80.0791C134.756 81.3702 134.773 82.7298 134.453 84.0291Z" fill="#B55B52"/>
<path d="M124.787 83.991C124.711 84.4534 124.4 84.7491 124.105 84.7491C123.809 84.7491 123.62 84.2791 123.695 83.8167C123.771 83.3542 124.09 83.0586 124.385 83.0586C124.681 83.0586 124.87 83.5286 124.787 83.991Z" fill="#263238"/>
<path d="M119.58 83.104C119.496 83.5589 119.193 83.8621 118.89 83.8621C118.587 83.8621 118.405 83.3997 118.488 82.9373C118.571 82.4748 118.875 82.1792 119.178 82.1792C119.481 82.1792 119.625 82.6265 119.58 83.104Z" fill="#263238"/>
<path d="M119.307 82.2245L118.253 81.709C118.253 81.709 118.67 82.6717 119.307 82.2245Z" fill="#263238"/>
<path d="M121.414 84.2031C120.824 85.1867 120.103 86.0845 119.269 86.8715C119.476 87.0781 119.726 87.2373 120 87.3381C120.275 87.4389 120.569 87.4788 120.86 87.4552L121.414 84.2031Z" fill="#A02724"/>
<path d="M135.104 89.487C134.539 90.4471 133.618 91.1466 132.542 91.4352C131.117 91.7991 130.435 90.5104 130.859 89.1611C131.238 87.9633 132.444 86.3335 133.891 86.5533C134.201 86.6116 134.492 86.7462 134.736 86.945C134.981 87.1438 135.172 87.4004 135.292 87.6917C135.413 87.983 135.459 88.2997 135.426 88.6132C135.393 88.9267 135.283 89.227 135.104 89.487Z" fill="#B55B52"/>
<path d="M127.062 83.2862C127.003 83.2852 126.947 83.2656 126.9 83.2301C126.854 83.1946 126.82 83.1452 126.804 83.0891C126.433 81.8762 124.878 81.3607 124.863 81.3531C124.829 81.3417 124.797 81.3236 124.77 81.2999C124.743 81.2761 124.72 81.2473 124.704 81.2149C124.688 81.1825 124.678 81.1472 124.675 81.1111C124.673 81.075 124.678 81.0388 124.689 81.0044C124.7 80.9701 124.719 80.9383 124.742 80.911C124.766 80.8836 124.795 80.8612 124.827 80.845C124.86 80.8288 124.895 80.8192 124.931 80.8166C124.967 80.814 125.003 80.8186 125.038 80.8301C125.543 81.0004 126.007 81.2754 126.399 81.6373C126.791 81.9991 127.102 82.4396 127.312 82.9299C127.322 82.9642 127.326 83.0003 127.323 83.0361C127.319 83.0718 127.309 83.1065 127.292 83.1382C127.275 83.1699 127.252 83.198 127.224 83.2208C127.196 83.2435 127.164 83.2606 127.13 83.271C127.108 83.2803 127.085 83.2854 127.062 83.2862Z" fill="#263238"/>
<path d="M118.42 80.4282C118.361 80.4234 118.306 80.4005 118.261 80.3625C118.216 80.3246 118.185 80.2736 118.17 80.2167C118.156 80.1598 118.16 80.0999 118.182 80.0453C118.203 79.9908 118.242 79.9444 118.291 79.9127C118.664 79.6864 119.086 79.5531 119.521 79.5241C119.957 79.4951 120.393 79.5712 120.793 79.7459C120.825 79.7624 120.854 79.785 120.877 79.8126C120.901 79.8401 120.919 79.8721 120.93 79.9066C120.941 79.941 120.946 79.9774 120.943 80.0136C120.94 80.0498 120.93 80.085 120.914 80.1174C120.897 80.1498 120.875 80.1786 120.847 80.2022C120.82 80.2258 120.788 80.2437 120.753 80.255C120.719 80.2662 120.682 80.2706 120.646 80.2678C120.61 80.265 120.575 80.2551 120.542 80.2387C120.225 80.1028 119.879 80.0456 119.535 80.072C119.19 80.0984 118.857 80.2076 118.564 80.3903C118.52 80.4144 118.47 80.4274 118.42 80.4282Z" fill="#263238"/>
<path d="M124.515 83.1119L123.461 82.604C123.461 82.604 123.885 83.5667 124.515 83.1119Z" fill="#263238"/>
<path d="M121.315 88.8877C123.244 88.4869 125.206 88.2737 127.175 88.251C126.728 89.5776 125.833 90.6844 123.612 90.7678C123.336 90.8059 123.055 90.7865 122.787 90.7111C122.519 90.6356 122.269 90.5055 122.054 90.329C121.838 90.1525 121.661 89.9334 121.534 89.6854C121.407 89.4374 121.333 89.1659 121.315 88.8877Z" fill="#263238"/>
<path d="M124.59 89.6989C123.736 89.6923 122.903 89.9578 122.21 90.457C122.632 90.7092 123.122 90.8232 123.612 90.783C124.466 90.7896 125.3 90.5241 125.993 90.0249C125.573 89.7672 125.081 89.6529 124.59 89.6989Z" fill="#A02724"/>
<path d="M121.513 88.8425C121.564 89.0001 121.658 89.1406 121.783 89.2488C121.909 89.357 122.062 89.4288 122.225 89.4565C123.501 89.3888 124.768 89.2164 126.016 88.9411C126.218 88.9162 126.411 88.8407 126.577 88.7215C126.743 88.6022 126.875 88.4431 126.963 88.2588C125.134 88.3114 123.312 88.5066 121.513 88.8425Z" fill="white"/>
<path d="M118.291 79.9129C120.016 79.1824 121.518 78.008 122.642 76.5092C122.642 76.5092 122.642 80.5421 124.287 80.2313C125.932 79.9205 123.461 76.5017 123.461 76.5017C123.461 76.5017 127.251 78.1846 128.548 81.4746C129.844 84.7646 131.322 88.3578 134.241 87.4633C137.159 86.5688 136.515 77.2446 132.217 74.9173L126.152 73.8257L124.363 74.091C123.434 74.2232 122.543 74.5486 121.748 75.0462C120.549 75.7816 119.606 76.8699 119.049 78.1618L118.291 79.9129Z" fill="#263238"/>
<path d="M132.444 80.3978C132.163 79.8065 130.822 79.8596 129.412 80.5115C128.002 81.1634 127.979 81.7775 128.259 82.3687C128.54 82.96 129.018 83.3012 130.428 82.6492C131.838 81.9973 132.724 80.9891 132.444 80.3978ZM129.192 81.9139C128.995 81.4894 129.033 81.0573 130.018 80.5873C131.004 80.1173 131.966 80.087 132.163 80.5115C132.361 80.936 131.731 81.6562 130.746 82.1186C129.76 82.581 129.397 82.3612 129.192 81.9366V81.9139Z" fill="#EB7720"/>
<path opacity="0.2" d="M139.941 110.128L138.159 108.612L136.84 109.211C136.382 113.877 137.57 118.557 140.198 122.439C140.312 119.915 140.547 117.072 140.957 113.676C140.396 111.629 139.941 110.128 139.941 110.128Z" fill="black"/>
<path d="M163.956 128.602L162.993 128.701L162.538 124.357C162.401 122.912 162.816 121.469 163.699 120.317C164.582 119.166 165.868 118.391 167.299 118.148C167.991 118.032 168.699 118.059 169.38 118.228C170.061 118.397 170.7 118.704 171.257 119.131C171.813 119.558 172.276 120.094 172.617 120.708C172.957 121.321 173.167 121.998 173.235 122.697L173.697 127.04L172.734 127.147L172.28 122.795C172.224 122.226 172.053 121.674 171.776 121.174C171.5 120.673 171.124 120.235 170.672 119.884C170.22 119.536 169.7 119.285 169.145 119.147C168.591 119.008 168.014 118.986 167.451 119.081C166.263 119.282 165.195 119.926 164.463 120.882C163.73 121.838 163.387 123.036 163.501 124.236L163.956 128.602Z" fill="#263238"/>
<path d="M146.089 109.158C146.225 109.81 146.407 110.614 146.581 111.349C146.756 112.084 146.96 112.865 147.173 113.623C147.597 115.139 148.044 116.602 148.583 118.035C149.551 120.825 150.928 123.456 152.668 125.843L152.828 126.047L152.903 126.154L152.812 126.063C152.691 125.956 152.549 125.876 152.396 125.828C152.168 125.767 152.176 125.828 152.327 125.828C152.865 125.799 153.394 125.687 153.896 125.494C155.3 124.982 156.659 124.356 157.96 123.622C160.711 122.106 163.493 120.377 166.184 118.626L168.284 121.097C165.924 123.551 163.357 125.798 160.613 127.814C159.158 128.888 157.604 129.822 155.973 130.603C154.968 131.086 153.894 131.408 152.79 131.558C151.943 131.662 151.085 131.569 150.281 131.286C149.744 131.086 149.251 130.788 148.825 130.406C148.719 130.308 148.605 130.202 148.514 130.103L148.393 129.974L148.15 129.709C146.902 128.329 145.809 126.816 144.891 125.198C143.995 123.652 143.212 122.044 142.549 120.385C141.897 118.745 141.33 117.073 140.851 115.374C140.616 114.54 140.396 113.699 140.199 112.85C140.002 112.001 139.82 111.175 139.668 110.204L146.089 109.158Z" fill="#B55B52"/>
<path d="M142.533 102.335C144.936 102.881 149.143 111.569 149.143 111.569L139.698 117.974C139.698 117.974 135.908 111.447 136.666 108.332C137.439 105.102 139.789 101.729 142.533 102.335Z" fill="#EB7720"/>
<path d="M165.79 118.588L171.278 115.556L170.126 121.34C170.126 121.34 166.578 122.469 164.819 120.786L165.79 118.588Z" fill="#B55B52"/>
<path d="M176.092 116.337L174.864 121.135L170.126 121.348L171.278 115.563L176.092 116.337Z" fill="#B55B52"/>
<path d="M178.396 126.313L177.487 122.037C177.226 120.862 176.529 119.829 175.538 119.145C174.547 118.462 173.334 118.179 172.142 118.353C171.576 118.436 171.033 118.635 170.547 118.938C170.062 119.241 169.644 119.641 169.32 120.112C168.996 120.584 168.773 121.118 168.665 121.68C168.557 122.242 168.567 122.821 168.693 123.379L169.603 127.654L168.663 127.859L167.753 123.583C167.598 122.897 167.587 122.187 167.72 121.496C167.852 120.806 168.126 120.15 168.524 119.57C168.922 118.99 169.435 118.498 170.031 118.126C170.628 117.753 171.295 117.508 171.991 117.405C173.426 117.194 174.888 117.534 176.083 118.357C177.279 119.18 178.118 120.424 178.434 121.84L179.344 126.115L178.396 126.313Z" fill="#263238"/>
<g opacity="0.3">
<path d="M178.396 126.313L177.487 122.037C177.226 120.862 176.529 119.829 175.538 119.145C174.547 118.462 173.334 118.179 172.142 118.353C171.576 118.436 171.033 118.635 170.547 118.938C170.062 119.241 169.644 119.641 169.32 120.112C168.996 120.584 168.773 121.118 168.665 121.68C168.557 122.242 168.567 122.821 168.693 123.379L169.603 127.654L168.663 127.859L167.753 123.583C167.598 122.897 167.587 122.187 167.72 121.496C167.852 120.806 168.126 120.15 168.524 119.57C168.922 118.99 169.435 118.498 170.031 118.126C170.628 117.753 171.295 117.508 171.991 117.405C173.426 117.194 174.888 117.534 176.083 118.357C177.279 119.18 178.118 120.424 178.434 121.84L179.344 126.115L178.396 126.313Z" fill="white"/>
</g>
<path d="M184.051 123.455L155.936 127.904L160.264 161.41L164.282 159.795L168.602 160.091L190.283 156.657L184.051 123.455Z" fill="#EB7720"/>
<path opacity="0.6" d="M184.051 123.455L155.936 127.904L160.264 161.41L164.282 159.795L168.602 160.091L190.283 156.657L184.051 123.455Z" fill="white"/>
<path d="M168.602 160.091L164.282 159.795L160.264 161.41L155.936 127.904L162.364 126.889L168.602 160.091Z" fill="#EB7720"/>
<path opacity="0.3" d="M168.602 160.091L164.282 159.795L160.264 161.41L155.936 127.904L162.364 126.889L168.602 160.091Z" fill="white"/>
<path d="M181.29 137.887L169.662 139.729C169.037 139.828 168.611 140.414 168.71 141.039L168.727 141.144C168.826 141.768 169.412 142.194 170.037 142.095L181.664 140.253C182.289 140.155 182.715 139.568 182.616 138.944L182.599 138.839C182.5 138.215 181.914 137.789 181.29 137.887Z" fill="white"/>
</svg>
